%TF.GenerationSoftware,KiCad,Pcbnew,9.0.4*%
%TF.CreationDate,2025-09-25T07:19:07+02:00*%
%TF.ProjectId,stm32_sensirion_wb,73746d33-325f-4736-956e-736972696f6e,rev?*%
%TF.SameCoordinates,Original*%
%TF.FileFunction,Copper,L3,Inr*%
%TF.FilePolarity,Positive*%
%FSLAX46Y46*%
G04 Gerber Fmt 4.6, Leading zero omitted, Abs format (unit mm)*
G04 Created by KiCad (PCBNEW 9.0.4) date 2025-09-25 07:19:07*
%MOMM*%
%LPD*%
G01*
G04 APERTURE LIST*
%TA.AperFunction,ComponentPad*%
%ADD10C,0.700000*%
%TD*%
%TA.AperFunction,ComponentPad*%
%ADD11C,4.400000*%
%TD*%
%TA.AperFunction,ComponentPad*%
%ADD12C,1.700000*%
%TD*%
%TA.AperFunction,HeatsinkPad*%
%ADD13O,2.100000X1.000000*%
%TD*%
%TA.AperFunction,HeatsinkPad*%
%ADD14O,1.800000X1.000000*%
%TD*%
%TA.AperFunction,ViaPad*%
%ADD15C,0.650000*%
%TD*%
%TA.AperFunction,ViaPad*%
%ADD16C,0.700000*%
%TD*%
%TA.AperFunction,ViaPad*%
%ADD17C,0.900000*%
%TD*%
%TA.AperFunction,ViaPad*%
%ADD18C,0.600000*%
%TD*%
G04 APERTURE END LIST*
D10*
%TO.N,GND*%
%TO.C,H1*%
X110600000Y-34750000D03*
X111083274Y-33583274D03*
X111083274Y-35916726D03*
X112250000Y-33100000D03*
D11*
X112250000Y-34750000D03*
D10*
X112250000Y-36400000D03*
X113416726Y-33583274D03*
X113416726Y-35916726D03*
X113900000Y-34750000D03*
%TD*%
%TO.N,GND*%
%TO.C,H2*%
X57100000Y-60250000D03*
X57583274Y-59083274D03*
X57583274Y-61416726D03*
X58750000Y-58600000D03*
D11*
X58750000Y-60250000D03*
D10*
X58750000Y-61900000D03*
X59916726Y-59083274D03*
X59916726Y-61416726D03*
X60400000Y-60250000D03*
%TD*%
D12*
%TO.N,GND*%
%TO.C,J3*%
X108300000Y-50910000D03*
X108300000Y-58530000D03*
%TD*%
%TO.N,GND*%
%TO.C,J1*%
X62165000Y-35200000D03*
%TD*%
D13*
%TO.N,GND*%
%TO.C,J2*%
X62105000Y-41180000D03*
D14*
X57925000Y-41180000D03*
D13*
X62105000Y-49820000D03*
D14*
X57925000Y-49820000D03*
%TD*%
D15*
%TO.N,GND*%
X72400000Y-55900000D03*
D16*
X94000000Y-42600000D03*
X83581250Y-43500000D03*
D17*
X69500000Y-33000000D03*
D16*
X85981250Y-39400000D03*
D17*
X62500000Y-62000000D03*
D16*
X94000000Y-44700000D03*
D17*
X78500000Y-38000000D03*
D16*
X97000000Y-47150000D03*
X88100000Y-57250000D03*
D17*
X65500000Y-62000000D03*
D16*
X67100000Y-45500000D03*
X94000000Y-46800000D03*
X91800000Y-46800000D03*
D17*
X78500000Y-33000000D03*
D16*
X92900000Y-45800000D03*
X95700000Y-38900000D03*
X89800000Y-46800000D03*
X77800000Y-57800000D03*
X77800000Y-56700000D03*
D17*
X77500000Y-62000000D03*
D16*
X94400000Y-40200000D03*
D18*
X58000000Y-43250000D03*
D17*
X104500000Y-58000000D03*
D16*
X109150000Y-59850000D03*
X99200000Y-46200000D03*
X113300000Y-45900000D03*
X107100000Y-44500000D03*
X91700000Y-51950000D03*
D17*
X57500000Y-33000000D03*
X103000000Y-60500000D03*
D16*
X105000000Y-47500000D03*
X82800000Y-58000000D03*
D17*
X75500000Y-33000000D03*
D16*
X100018750Y-49500000D03*
X97800000Y-36181250D03*
X93500000Y-40200000D03*
D17*
X69500000Y-38000000D03*
X81500000Y-33000000D03*
X68000000Y-40500000D03*
D16*
X64300000Y-42300000D03*
D17*
X66500000Y-38000000D03*
D16*
X64200000Y-48700000D03*
X89800000Y-42600000D03*
X111800000Y-45900000D03*
D17*
X102000000Y-33000000D03*
X57500000Y-55000000D03*
X95500000Y-33000000D03*
D16*
X72300000Y-59900000D03*
X91800000Y-42600000D03*
D17*
X74500000Y-62000000D03*
D16*
X85225000Y-56950000D03*
D17*
X108000000Y-38000000D03*
D16*
X91000000Y-43700000D03*
D17*
X66500000Y-33000000D03*
X60500000Y-33000000D03*
D16*
X86750000Y-45600000D03*
X76500000Y-47800000D03*
X107100000Y-42200000D03*
X98200000Y-40925000D03*
D17*
X68500000Y-62000000D03*
X106000000Y-60500000D03*
D16*
X82700000Y-52000000D03*
X63300000Y-39150000D03*
X70500000Y-58200000D03*
D17*
X71000000Y-40500000D03*
D16*
X70500000Y-59600000D03*
X93850000Y-58900000D03*
D17*
X73000000Y-48000000D03*
D18*
X58000000Y-47750000D03*
D16*
X84800000Y-53012500D03*
D17*
X72500000Y-33000000D03*
D16*
X86081250Y-35800000D03*
X111800000Y-40500000D03*
X92700000Y-43700000D03*
D17*
X101500000Y-58000000D03*
D16*
X89800000Y-44600000D03*
X67700000Y-59600000D03*
X73700000Y-59900000D03*
X82700000Y-51100000D03*
X113200000Y-40500000D03*
X91000000Y-45700000D03*
D17*
X99000000Y-33000000D03*
X81500000Y-38000000D03*
D16*
X109250000Y-52100000D03*
D18*
X58750000Y-45500000D03*
D16*
X81000000Y-57400000D03*
D17*
X100500000Y-35500000D03*
D16*
X86081250Y-37600000D03*
D17*
X71500000Y-62000000D03*
D16*
X84800000Y-45600000D03*
X63750000Y-51900000D03*
D17*
X111000000Y-38000000D03*
D16*
X67700000Y-58200000D03*
X82800000Y-59400000D03*
X91250000Y-58900000D03*
X110400000Y-45900000D03*
D18*
X57000000Y-45500000D03*
D16*
X104200000Y-46200000D03*
D17*
X75500000Y-38000000D03*
X63500000Y-33000000D03*
X105000000Y-38000000D03*
D16*
X76100000Y-55450000D03*
D17*
X106500000Y-35500000D03*
X76000000Y-51000000D03*
D16*
X69100000Y-59600000D03*
D17*
X103500000Y-35500000D03*
X84500000Y-33000000D03*
X105000000Y-33000000D03*
X102000000Y-38000000D03*
D16*
X77800000Y-55500000D03*
X69100000Y-58200000D03*
D17*
X72500000Y-38000000D03*
D16*
X86800000Y-51950000D03*
D15*
X71100000Y-56000000D03*
D16*
X110400000Y-40500000D03*
D17*
X108000000Y-33000000D03*
%TD*%
%TA.AperFunction,Conductor*%
%TO.N,GND*%
G36*
X113504418Y-32000816D02*
G01*
X113704561Y-32015130D01*
X113722063Y-32017647D01*
X113913797Y-32059355D01*
X113930755Y-32064334D01*
X114114609Y-32132909D01*
X114130701Y-32140259D01*
X114302904Y-32234288D01*
X114317784Y-32243849D01*
X114474867Y-32361441D01*
X114488237Y-32373027D01*
X114626972Y-32511762D01*
X114638558Y-32525132D01*
X114756146Y-32682210D01*
X114765711Y-32697095D01*
X114859740Y-32869298D01*
X114867090Y-32885390D01*
X114935662Y-33069236D01*
X114940646Y-33086212D01*
X114982351Y-33277931D01*
X114984869Y-33295442D01*
X114999184Y-33495580D01*
X114999500Y-33504427D01*
X114999500Y-61495572D01*
X114999184Y-61504419D01*
X114984869Y-61704557D01*
X114982351Y-61722068D01*
X114940646Y-61913787D01*
X114935662Y-61930763D01*
X114867090Y-62114609D01*
X114859740Y-62130701D01*
X114765711Y-62302904D01*
X114756146Y-62317789D01*
X114638558Y-62474867D01*
X114626972Y-62488237D01*
X114488237Y-62626972D01*
X114474867Y-62638558D01*
X114317789Y-62756146D01*
X114302904Y-62765711D01*
X114130701Y-62859740D01*
X114114609Y-62867090D01*
X113930763Y-62935662D01*
X113913787Y-62940646D01*
X113722068Y-62982351D01*
X113704557Y-62984869D01*
X113523779Y-62997799D01*
X113504417Y-62999184D01*
X113495572Y-62999500D01*
X57504428Y-62999500D01*
X57495582Y-62999184D01*
X57473622Y-62997613D01*
X57295442Y-62984869D01*
X57277931Y-62982351D01*
X57086212Y-62940646D01*
X57069236Y-62935662D01*
X56885390Y-62867090D01*
X56869298Y-62859740D01*
X56697095Y-62765711D01*
X56682210Y-62756146D01*
X56525132Y-62638558D01*
X56511762Y-62626972D01*
X56373027Y-62488237D01*
X56361441Y-62474867D01*
X56243849Y-62317784D01*
X56234288Y-62302904D01*
X56140259Y-62130701D01*
X56132909Y-62114609D01*
X56072091Y-61951551D01*
X56064334Y-61930755D01*
X56059355Y-61913797D01*
X56017647Y-61722063D01*
X56015130Y-61704556D01*
X56014144Y-61690775D01*
X56000816Y-61504418D01*
X56000500Y-61495572D01*
X56000500Y-61257147D01*
X87674500Y-61257147D01*
X87674500Y-61342853D01*
X87690300Y-61401817D01*
X87696682Y-61425637D01*
X87696685Y-61425644D01*
X87739530Y-61499855D01*
X87739534Y-61499860D01*
X87739535Y-61499862D01*
X87800138Y-61560465D01*
X87800140Y-61560466D01*
X87800144Y-61560469D01*
X87874355Y-61603314D01*
X87874362Y-61603318D01*
X87957147Y-61625500D01*
X87957149Y-61625500D01*
X88042851Y-61625500D01*
X88042853Y-61625500D01*
X88125638Y-61603318D01*
X88199862Y-61560465D01*
X88260465Y-61499862D01*
X88303318Y-61425638D01*
X88325500Y-61342853D01*
X88325500Y-61257147D01*
X88303318Y-61174362D01*
X88282899Y-61138995D01*
X107599499Y-61138995D01*
X107626418Y-61274322D01*
X107626421Y-61274332D01*
X107679221Y-61401804D01*
X107679228Y-61401817D01*
X107755885Y-61516541D01*
X107755888Y-61516545D01*
X107853454Y-61614111D01*
X107853458Y-61614114D01*
X107968182Y-61690771D01*
X107968195Y-61690778D01*
X108043737Y-61722068D01*
X108095672Y-61743580D01*
X108095676Y-61743580D01*
X108095677Y-61743581D01*
X108231004Y-61770500D01*
X108231007Y-61770500D01*
X108368995Y-61770500D01*
X108460041Y-61752389D01*
X108504328Y-61743580D01*
X108631811Y-61690775D01*
X108746542Y-61614114D01*
X108844114Y-61516542D01*
X108920775Y-61401811D01*
X108973580Y-61274328D01*
X109000500Y-61138993D01*
X109000500Y-61001007D01*
X109000500Y-61001004D01*
X108973581Y-60865677D01*
X108973580Y-60865676D01*
X108973580Y-60865672D01*
X108973578Y-60865667D01*
X108920778Y-60738195D01*
X108920771Y-60738182D01*
X108844114Y-60623458D01*
X108844111Y-60623454D01*
X108746545Y-60525888D01*
X108746541Y-60525885D01*
X108631817Y-60449228D01*
X108631804Y-60449221D01*
X108504332Y-60396421D01*
X108504322Y-60396418D01*
X108368995Y-60369500D01*
X108368993Y-60369500D01*
X108231007Y-60369500D01*
X108231005Y-60369500D01*
X108095677Y-60396418D01*
X108095667Y-60396421D01*
X107968195Y-60449221D01*
X107968182Y-60449228D01*
X107853458Y-60525885D01*
X107853454Y-60525888D01*
X107755888Y-60623454D01*
X107755885Y-60623458D01*
X107679228Y-60738182D01*
X107679221Y-60738195D01*
X107626421Y-60865667D01*
X107626418Y-60865677D01*
X107599500Y-61001004D01*
X107599500Y-61001007D01*
X107599500Y-61138993D01*
X107599500Y-61138995D01*
X107599499Y-61138995D01*
X88282899Y-61138995D01*
X88282898Y-61138993D01*
X88260469Y-61100144D01*
X88260463Y-61100136D01*
X88199863Y-61039536D01*
X88199855Y-61039530D01*
X88125644Y-60996685D01*
X88125640Y-60996683D01*
X88125638Y-60996682D01*
X88042853Y-60974500D01*
X87957147Y-60974500D01*
X87874362Y-60996682D01*
X87874355Y-60996685D01*
X87800144Y-61039530D01*
X87800136Y-61039536D01*
X87739536Y-61100136D01*
X87739530Y-61100144D01*
X87696685Y-61174355D01*
X87696682Y-61174362D01*
X87674500Y-61257147D01*
X56000500Y-61257147D01*
X56000500Y-58423753D01*
X106950000Y-58423753D01*
X106950000Y-58636246D01*
X106983242Y-58846127D01*
X106983242Y-58846130D01*
X107048904Y-59048217D01*
X107145375Y-59237550D01*
X107184728Y-59291716D01*
X107817037Y-58659408D01*
X107834075Y-58722993D01*
X107899901Y-58837007D01*
X107992993Y-58930099D01*
X108107007Y-58995925D01*
X108170590Y-59012962D01*
X107538282Y-59645269D01*
X107538282Y-59645270D01*
X107592449Y-59684624D01*
X107781782Y-59781095D01*
X107983870Y-59846757D01*
X108193754Y-59880000D01*
X108406246Y-59880000D01*
X108616127Y-59846757D01*
X108616130Y-59846757D01*
X108818217Y-59781095D01*
X109007554Y-59684622D01*
X109061716Y-59645270D01*
X109061717Y-59645270D01*
X108429408Y-59012962D01*
X108492993Y-58995925D01*
X108607007Y-58930099D01*
X108700099Y-58837007D01*
X108765925Y-58722993D01*
X108782962Y-58659408D01*
X109415270Y-59291717D01*
X109415270Y-59291716D01*
X109454622Y-59237554D01*
X109551095Y-59048217D01*
X109616757Y-58846130D01*
X109616757Y-58846127D01*
X109650000Y-58636246D01*
X109650000Y-58423753D01*
X109616757Y-58213872D01*
X109616757Y-58213869D01*
X109551095Y-58011782D01*
X109454624Y-57822449D01*
X109415270Y-57768282D01*
X109415269Y-57768282D01*
X108782962Y-58400590D01*
X108765925Y-58337007D01*
X108700099Y-58222993D01*
X108607007Y-58129901D01*
X108492993Y-58064075D01*
X108429409Y-58047037D01*
X109061716Y-57414728D01*
X109007550Y-57375375D01*
X108818217Y-57278904D01*
X108616129Y-57213242D01*
X108406246Y-57180000D01*
X108193754Y-57180000D01*
X107983872Y-57213242D01*
X107983869Y-57213242D01*
X107781782Y-57278904D01*
X107592439Y-57375380D01*
X107538282Y-57414727D01*
X107538282Y-57414728D01*
X108170591Y-58047037D01*
X108107007Y-58064075D01*
X107992993Y-58129901D01*
X107899901Y-58222993D01*
X107834075Y-58337007D01*
X107817037Y-58400591D01*
X107184728Y-57768282D01*
X107184727Y-57768282D01*
X107145380Y-57822439D01*
X107048904Y-58011782D01*
X106983242Y-58213869D01*
X106983242Y-58213872D01*
X106950000Y-58423753D01*
X56000500Y-58423753D01*
X56000500Y-55803856D01*
X87749500Y-55803856D01*
X87749500Y-55896144D01*
X87756161Y-55921004D01*
X87773387Y-55985290D01*
X87773388Y-55985293D01*
X87819526Y-56065205D01*
X87819529Y-56065209D01*
X87819531Y-56065212D01*
X87884788Y-56130469D01*
X87884791Y-56130470D01*
X87884794Y-56130473D01*
X87964706Y-56176611D01*
X87964707Y-56176611D01*
X87964712Y-56176614D01*
X88053856Y-56200500D01*
X88053858Y-56200500D01*
X88146142Y-56200500D01*
X88146144Y-56200500D01*
X88235288Y-56176614D01*
X88315212Y-56130469D01*
X88380469Y-56065212D01*
X88384058Y-56058995D01*
X107599499Y-56058995D01*
X107626418Y-56194322D01*
X107626421Y-56194332D01*
X107679221Y-56321804D01*
X107679228Y-56321817D01*
X107755885Y-56436541D01*
X107755888Y-56436545D01*
X107853454Y-56534111D01*
X107853458Y-56534114D01*
X107968182Y-56610771D01*
X107968195Y-56610778D01*
X108095667Y-56663578D01*
X108095672Y-56663580D01*
X108095676Y-56663580D01*
X108095677Y-56663581D01*
X108231004Y-56690500D01*
X108231007Y-56690500D01*
X108368995Y-56690500D01*
X108460041Y-56672389D01*
X108504328Y-56663580D01*
X108631811Y-56610775D01*
X108746542Y-56534114D01*
X108844114Y-56436542D01*
X108920775Y-56321811D01*
X108973580Y-56194328D01*
X108986282Y-56130473D01*
X109000500Y-56058995D01*
X109000500Y-55921004D01*
X108973581Y-55785677D01*
X108973580Y-55785676D01*
X108973580Y-55785672D01*
X108944188Y-55714712D01*
X108920778Y-55658195D01*
X108920771Y-55658182D01*
X108844114Y-55543458D01*
X108844111Y-55543454D01*
X108746545Y-55445888D01*
X108746541Y-55445885D01*
X108631817Y-55369228D01*
X108631804Y-55369221D01*
X108504332Y-55316421D01*
X108504322Y-55316418D01*
X108368995Y-55289500D01*
X108368993Y-55289500D01*
X108231007Y-55289500D01*
X108231005Y-55289500D01*
X108095677Y-55316418D01*
X108095667Y-55316421D01*
X107968195Y-55369221D01*
X107968182Y-55369228D01*
X107853458Y-55445885D01*
X107853454Y-55445888D01*
X107755888Y-55543454D01*
X107755885Y-55543458D01*
X107679228Y-55658182D01*
X107679221Y-55658195D01*
X107626421Y-55785667D01*
X107626418Y-55785677D01*
X107599500Y-55921004D01*
X107599500Y-55921007D01*
X107599500Y-56058993D01*
X107599500Y-56058995D01*
X107599499Y-56058995D01*
X88384058Y-56058995D01*
X88426614Y-55985288D01*
X88450500Y-55896144D01*
X88450500Y-55803856D01*
X88426614Y-55714712D01*
X88426611Y-55714706D01*
X88380473Y-55634794D01*
X88380470Y-55634791D01*
X88380469Y-55634788D01*
X88315212Y-55569531D01*
X88315209Y-55569529D01*
X88315205Y-55569526D01*
X88235293Y-55523388D01*
X88235290Y-55523387D01*
X88235289Y-55523386D01*
X88235288Y-55523386D01*
X88146144Y-55499500D01*
X88053856Y-55499500D01*
X87964712Y-55523386D01*
X87964711Y-55523386D01*
X87964709Y-55523387D01*
X87964706Y-55523388D01*
X87884794Y-55569526D01*
X87884785Y-55569533D01*
X87819533Y-55634785D01*
X87819526Y-55634794D01*
X87773388Y-55714706D01*
X87773387Y-55714709D01*
X87773386Y-55714711D01*
X87773386Y-55714712D01*
X87749500Y-55803856D01*
X56000500Y-55803856D01*
X56000500Y-53807147D01*
X78174500Y-53807147D01*
X78174500Y-53892853D01*
X78175490Y-53896545D01*
X78196682Y-53975637D01*
X78196685Y-53975644D01*
X78239530Y-54049855D01*
X78239534Y-54049860D01*
X78239535Y-54049862D01*
X78300138Y-54110465D01*
X78300140Y-54110466D01*
X78300144Y-54110469D01*
X78369481Y-54150500D01*
X78374362Y-54153318D01*
X78457147Y-54175500D01*
X78457149Y-54175500D01*
X78542851Y-54175500D01*
X78542853Y-54175500D01*
X78625638Y-54153318D01*
X78699862Y-54110465D01*
X78760465Y-54049862D01*
X78803318Y-53975638D01*
X78825500Y-53892853D01*
X78825500Y-53807147D01*
X78803318Y-53724362D01*
X78803314Y-53724355D01*
X78760469Y-53650144D01*
X78760463Y-53650136D01*
X78699863Y-53589536D01*
X78699855Y-53589530D01*
X78625644Y-53546685D01*
X78625640Y-53546683D01*
X78625638Y-53546682D01*
X78542853Y-53524500D01*
X78457147Y-53524500D01*
X78374362Y-53546682D01*
X78374355Y-53546685D01*
X78300144Y-53589530D01*
X78300136Y-53589536D01*
X78239536Y-53650136D01*
X78239530Y-53650144D01*
X78196685Y-53724355D01*
X78196682Y-53724362D01*
X78174500Y-53807147D01*
X56000500Y-53807147D01*
X56000500Y-53518995D01*
X107599499Y-53518995D01*
X107626418Y-53654322D01*
X107626421Y-53654332D01*
X107679221Y-53781804D01*
X107679228Y-53781817D01*
X107755885Y-53896541D01*
X107755888Y-53896545D01*
X107853454Y-53994111D01*
X107853458Y-53994114D01*
X107968182Y-54070771D01*
X107968195Y-54070778D01*
X108064009Y-54110465D01*
X108095672Y-54123580D01*
X108095676Y-54123580D01*
X108095677Y-54123581D01*
X108231004Y-54150500D01*
X108231007Y-54150500D01*
X108368995Y-54150500D01*
X108460041Y-54132389D01*
X108504328Y-54123580D01*
X108631811Y-54070775D01*
X108746542Y-53994114D01*
X108844114Y-53896542D01*
X108920775Y-53781811D01*
X108973580Y-53654328D01*
X108994992Y-53546685D01*
X109000500Y-53518995D01*
X109000500Y-53381004D01*
X108973581Y-53245677D01*
X108973580Y-53245676D01*
X108973580Y-53245672D01*
X108973578Y-53245667D01*
X108920778Y-53118195D01*
X108920771Y-53118182D01*
X108844114Y-53003458D01*
X108844111Y-53003454D01*
X108746545Y-52905888D01*
X108746541Y-52905885D01*
X108631817Y-52829228D01*
X108631804Y-52829221D01*
X108504332Y-52776421D01*
X108504322Y-52776418D01*
X108368995Y-52749500D01*
X108368993Y-52749500D01*
X108231007Y-52749500D01*
X108231005Y-52749500D01*
X108095677Y-52776418D01*
X108095667Y-52776421D01*
X107968195Y-52829221D01*
X107968182Y-52829228D01*
X107853458Y-52905885D01*
X107853454Y-52905888D01*
X107755888Y-53003454D01*
X107755885Y-53003458D01*
X107679228Y-53118182D01*
X107679221Y-53118195D01*
X107626421Y-53245667D01*
X107626418Y-53245677D01*
X107599500Y-53381004D01*
X107599500Y-53381007D01*
X107599500Y-53518993D01*
X107599500Y-53518995D01*
X107599499Y-53518995D01*
X56000500Y-53518995D01*
X56000500Y-51957147D01*
X78174500Y-51957147D01*
X78174500Y-52042853D01*
X78180334Y-52064624D01*
X78196682Y-52125637D01*
X78196685Y-52125644D01*
X78239530Y-52199855D01*
X78239534Y-52199860D01*
X78239535Y-52199862D01*
X78300138Y-52260465D01*
X78300140Y-52260466D01*
X78300144Y-52260469D01*
X78374355Y-52303314D01*
X78374362Y-52303318D01*
X78457147Y-52325500D01*
X78457149Y-52325500D01*
X78542851Y-52325500D01*
X78542853Y-52325500D01*
X78625638Y-52303318D01*
X78699862Y-52260465D01*
X78760465Y-52199862D01*
X78803318Y-52125638D01*
X78825500Y-52042853D01*
X78825500Y-51957147D01*
X78803318Y-51874362D01*
X78803314Y-51874355D01*
X78760469Y-51800144D01*
X78760463Y-51800136D01*
X78699863Y-51739536D01*
X78699855Y-51739530D01*
X78625644Y-51696685D01*
X78625640Y-51696683D01*
X78625638Y-51696682D01*
X78542853Y-51674500D01*
X78457147Y-51674500D01*
X78374362Y-51696682D01*
X78374355Y-51696685D01*
X78300144Y-51739530D01*
X78300136Y-51739536D01*
X78239536Y-51800136D01*
X78239530Y-51800144D01*
X78196685Y-51874355D01*
X78196682Y-51874362D01*
X78174500Y-51957147D01*
X56000500Y-51957147D01*
X56000500Y-50957147D01*
X78174500Y-50957147D01*
X78174500Y-51042853D01*
X78190615Y-51102993D01*
X78196682Y-51125637D01*
X78196685Y-51125644D01*
X78239530Y-51199855D01*
X78239534Y-51199860D01*
X78239535Y-51199862D01*
X78300138Y-51260465D01*
X78300140Y-51260466D01*
X78300144Y-51260469D01*
X78374355Y-51303314D01*
X78374362Y-51303318D01*
X78457147Y-51325500D01*
X78457149Y-51325500D01*
X78542851Y-51325500D01*
X78542853Y-51325500D01*
X78625638Y-51303318D01*
X78699862Y-51260465D01*
X78760465Y-51199862D01*
X78803318Y-51125638D01*
X78825500Y-51042853D01*
X78825500Y-50957147D01*
X78803318Y-50874362D01*
X78762552Y-50803753D01*
X106950000Y-50803753D01*
X106950000Y-51016246D01*
X106983242Y-51226127D01*
X106983242Y-51226130D01*
X107048904Y-51428217D01*
X107145375Y-51617550D01*
X107184728Y-51671716D01*
X107817037Y-51039408D01*
X107834075Y-51102993D01*
X107899901Y-51217007D01*
X107992993Y-51310099D01*
X108107007Y-51375925D01*
X108170590Y-51392962D01*
X107538282Y-52025269D01*
X107538282Y-52025270D01*
X107592449Y-52064624D01*
X107781782Y-52161095D01*
X107983870Y-52226757D01*
X108193754Y-52260000D01*
X108406246Y-52260000D01*
X108616127Y-52226757D01*
X108616130Y-52226757D01*
X108818217Y-52161095D01*
X109007554Y-52064622D01*
X109061716Y-52025270D01*
X109061717Y-52025270D01*
X108429408Y-51392962D01*
X108492993Y-51375925D01*
X108607007Y-51310099D01*
X108700099Y-51217007D01*
X108765925Y-51102993D01*
X108782962Y-51039408D01*
X109415270Y-51671717D01*
X109415270Y-51671716D01*
X109454622Y-51617554D01*
X109551095Y-51428217D01*
X109616757Y-51226130D01*
X109616757Y-51226127D01*
X109650000Y-51016246D01*
X109650000Y-50803753D01*
X109616757Y-50593872D01*
X109616757Y-50593869D01*
X109551095Y-50391782D01*
X109454624Y-50202449D01*
X109415270Y-50148282D01*
X109415269Y-50148282D01*
X108782962Y-50780590D01*
X108765925Y-50717007D01*
X108700099Y-50602993D01*
X108607007Y-50509901D01*
X108492993Y-50444075D01*
X108429409Y-50427037D01*
X109061716Y-49794728D01*
X109007550Y-49755375D01*
X108818217Y-49658904D01*
X108616129Y-49593242D01*
X108406246Y-49560000D01*
X108193754Y-49560000D01*
X107983872Y-49593242D01*
X107983869Y-49593242D01*
X107781782Y-49658904D01*
X107592439Y-49755380D01*
X107538282Y-49794727D01*
X107538282Y-49794728D01*
X108170591Y-50427037D01*
X108107007Y-50444075D01*
X107992993Y-50509901D01*
X107899901Y-50602993D01*
X107834075Y-50717007D01*
X107817037Y-50780591D01*
X107184728Y-50148282D01*
X107184727Y-50148282D01*
X107145380Y-50202439D01*
X107048904Y-50391782D01*
X106983242Y-50593869D01*
X106983242Y-50593872D01*
X106950000Y-50803753D01*
X78762552Y-50803753D01*
X78760467Y-50800141D01*
X78760463Y-50800136D01*
X78699863Y-50739536D01*
X78699855Y-50739530D01*
X78625644Y-50696685D01*
X78625640Y-50696683D01*
X78625638Y-50696682D01*
X78542853Y-50674500D01*
X78457147Y-50674500D01*
X78374362Y-50696682D01*
X78374355Y-50696685D01*
X78300144Y-50739530D01*
X78300136Y-50739536D01*
X78239536Y-50800136D01*
X78239530Y-50800144D01*
X78196685Y-50874355D01*
X78196682Y-50874362D01*
X78174500Y-50957147D01*
X56000500Y-50957147D01*
X56000500Y-49570000D01*
X56555138Y-49570000D01*
X57358012Y-49570000D01*
X57340795Y-49579940D01*
X57284940Y-49635795D01*
X57245444Y-49704204D01*
X57225000Y-49780504D01*
X57225000Y-49859496D01*
X57245444Y-49935796D01*
X57284940Y-50004205D01*
X57340795Y-50060060D01*
X57358012Y-50070000D01*
X56555138Y-50070000D01*
X56563430Y-50111690D01*
X56563430Y-50111692D01*
X56638807Y-50293671D01*
X56638814Y-50293684D01*
X56748248Y-50457462D01*
X56748251Y-50457466D01*
X56887533Y-50596748D01*
X56887537Y-50596751D01*
X57051315Y-50706185D01*
X57051328Y-50706192D01*
X57233306Y-50781569D01*
X57233318Y-50781572D01*
X57426504Y-50819999D01*
X57426508Y-50820000D01*
X57675000Y-50820000D01*
X57675000Y-50120000D01*
X58175000Y-50120000D01*
X58175000Y-50820000D01*
X58423492Y-50820000D01*
X58423495Y-50819999D01*
X58616681Y-50781572D01*
X58616693Y-50781569D01*
X58798671Y-50706192D01*
X58798684Y-50706185D01*
X58962462Y-50596751D01*
X58962466Y-50596748D01*
X59101748Y-50457466D01*
X59101751Y-50457462D01*
X59211185Y-50293684D01*
X59211192Y-50293671D01*
X59286569Y-50111692D01*
X59286569Y-50111690D01*
X59294862Y-50070000D01*
X58491988Y-50070000D01*
X58509205Y-50060060D01*
X58565060Y-50004205D01*
X58604556Y-49935796D01*
X58625000Y-49859496D01*
X58625000Y-49780504D01*
X58604556Y-49704204D01*
X58565060Y-49635795D01*
X58509205Y-49579940D01*
X58491988Y-49570000D01*
X59294862Y-49570000D01*
X60585138Y-49570000D01*
X61388012Y-49570000D01*
X61370795Y-49579940D01*
X61314940Y-49635795D01*
X61275444Y-49704204D01*
X61255000Y-49780504D01*
X61255000Y-49859496D01*
X61275444Y-49935796D01*
X61314940Y-50004205D01*
X61370795Y-50060060D01*
X61388012Y-50070000D01*
X60585138Y-50070000D01*
X60593430Y-50111690D01*
X60593430Y-50111692D01*
X60668807Y-50293671D01*
X60668814Y-50293684D01*
X60778248Y-50457462D01*
X60778251Y-50457466D01*
X60917533Y-50596748D01*
X60917537Y-50596751D01*
X61081315Y-50706185D01*
X61081328Y-50706192D01*
X61263306Y-50781569D01*
X61263318Y-50781572D01*
X61456504Y-50819999D01*
X61456508Y-50820000D01*
X61855000Y-50820000D01*
X61855000Y-50120000D01*
X62355000Y-50120000D01*
X62355000Y-50820000D01*
X62753492Y-50820000D01*
X62753495Y-50819999D01*
X62946681Y-50781572D01*
X62946693Y-50781569D01*
X63128671Y-50706192D01*
X63128684Y-50706185D01*
X63292462Y-50596751D01*
X63292466Y-50596748D01*
X63431748Y-50457466D01*
X63431751Y-50457462D01*
X63541185Y-50293684D01*
X63541192Y-50293671D01*
X63616569Y-50111692D01*
X63616569Y-50111690D01*
X63624862Y-50070000D01*
X62821988Y-50070000D01*
X62839205Y-50060060D01*
X62895060Y-50004205D01*
X62934556Y-49935796D01*
X62955000Y-49859496D01*
X62955000Y-49780504D01*
X62934556Y-49704204D01*
X62895060Y-49635795D01*
X62839205Y-49579940D01*
X62821988Y-49570000D01*
X63624862Y-49570000D01*
X63616569Y-49528309D01*
X63616569Y-49528307D01*
X63541192Y-49346328D01*
X63541185Y-49346315D01*
X63455389Y-49217913D01*
X63455388Y-49217912D01*
X63431748Y-49182533D01*
X63406362Y-49157147D01*
X83574500Y-49157147D01*
X83574500Y-49242853D01*
X83589984Y-49300638D01*
X83596682Y-49325637D01*
X83596685Y-49325644D01*
X83639530Y-49399855D01*
X83639534Y-49399860D01*
X83639535Y-49399862D01*
X83700138Y-49460465D01*
X83700140Y-49460466D01*
X83700144Y-49460469D01*
X83731060Y-49478318D01*
X83774362Y-49503318D01*
X83857147Y-49525500D01*
X83857149Y-49525500D01*
X83942851Y-49525500D01*
X83942853Y-49525500D01*
X84025638Y-49503318D01*
X84099862Y-49460465D01*
X84160465Y-49399862D01*
X84203318Y-49325638D01*
X84225500Y-49242853D01*
X84225500Y-49157147D01*
X84218801Y-49132147D01*
X91963950Y-49132147D01*
X91963950Y-49217853D01*
X91985998Y-49300136D01*
X91986132Y-49300637D01*
X91986135Y-49300644D01*
X92028980Y-49374855D01*
X92028984Y-49374860D01*
X92028985Y-49374862D01*
X92089588Y-49435465D01*
X92089590Y-49435466D01*
X92089594Y-49435469D01*
X92132896Y-49460469D01*
X92163812Y-49478318D01*
X92246597Y-49500500D01*
X92246599Y-49500500D01*
X92332301Y-49500500D01*
X92332303Y-49500500D01*
X92415088Y-49478318D01*
X92451757Y-49457147D01*
X95674500Y-49457147D01*
X95674500Y-49542853D01*
X95684438Y-49579940D01*
X95696682Y-49625637D01*
X95696685Y-49625644D01*
X95739530Y-49699855D01*
X95739534Y-49699860D01*
X95739535Y-49699862D01*
X95800138Y-49760465D01*
X95800140Y-49760466D01*
X95800144Y-49760469D01*
X95874355Y-49803314D01*
X95874362Y-49803318D01*
X95957147Y-49825500D01*
X95957149Y-49825500D01*
X96042851Y-49825500D01*
X96042853Y-49825500D01*
X96125638Y-49803318D01*
X96199862Y-49760465D01*
X96260465Y-49699862D01*
X96303318Y-49625638D01*
X96325500Y-49542853D01*
X96325500Y-49457147D01*
X96303318Y-49374362D01*
X96275191Y-49325644D01*
X96260469Y-49300144D01*
X96260463Y-49300136D01*
X96199863Y-49239536D01*
X96199855Y-49239530D01*
X96125644Y-49196685D01*
X96125640Y-49196683D01*
X96125638Y-49196682D01*
X96042853Y-49174500D01*
X95957147Y-49174500D01*
X95874362Y-49196682D01*
X95874355Y-49196685D01*
X95800144Y-49239530D01*
X95800136Y-49239536D01*
X95739536Y-49300136D01*
X95739530Y-49300144D01*
X95696685Y-49374355D01*
X95696682Y-49374362D01*
X95674500Y-49457147D01*
X92451757Y-49457147D01*
X92489312Y-49435465D01*
X92549915Y-49374862D01*
X92592768Y-49300638D01*
X92614950Y-49217853D01*
X92614950Y-49132147D01*
X92592768Y-49049362D01*
X92589238Y-49043248D01*
X92549919Y-48975144D01*
X92549913Y-48975136D01*
X92489313Y-48914536D01*
X92489305Y-48914530D01*
X92415094Y-48871685D01*
X92415090Y-48871683D01*
X92415088Y-48871682D01*
X92332303Y-48849500D01*
X92246597Y-48849500D01*
X92163812Y-48871682D01*
X92163805Y-48871685D01*
X92089594Y-48914530D01*
X92089586Y-48914536D01*
X92028986Y-48975136D01*
X92028980Y-48975144D01*
X91986135Y-49049355D01*
X91986132Y-49049362D01*
X91963950Y-49132147D01*
X84218801Y-49132147D01*
X84203318Y-49074362D01*
X84201088Y-49070500D01*
X84160469Y-49000144D01*
X84160463Y-49000136D01*
X84099863Y-48939536D01*
X84099855Y-48939530D01*
X84025644Y-48896685D01*
X84025640Y-48896683D01*
X84025638Y-48896682D01*
X83942853Y-48874500D01*
X83857147Y-48874500D01*
X83774362Y-48896682D01*
X83774355Y-48896685D01*
X83700144Y-48939530D01*
X83700136Y-48939536D01*
X83639536Y-49000136D01*
X83639530Y-49000144D01*
X83596685Y-49074355D01*
X83596683Y-49074360D01*
X83596682Y-49074362D01*
X83574500Y-49157147D01*
X63406362Y-49157147D01*
X63292466Y-49043251D01*
X63292462Y-49043248D01*
X63128684Y-48933814D01*
X63128671Y-48933807D01*
X62946693Y-48858430D01*
X62946681Y-48858427D01*
X62753495Y-48820000D01*
X62355000Y-48820000D01*
X62355000Y-49520000D01*
X61855000Y-49520000D01*
X61855000Y-48924049D01*
X61874685Y-48857010D01*
X61891870Y-48835820D01*
X61903203Y-48824627D01*
X61927665Y-48810505D01*
X62025505Y-48712665D01*
X62094688Y-48592836D01*
X62130500Y-48459183D01*
X62130500Y-48320817D01*
X62094688Y-48187164D01*
X62025505Y-48067335D01*
X61927665Y-47969495D01*
X61927664Y-47969494D01*
X61927661Y-47969492D01*
X61881370Y-47942766D01*
X61881369Y-47942766D01*
X61807836Y-47900312D01*
X61674183Y-47864500D01*
X61535817Y-47864500D01*
X61402164Y-47900312D01*
X61402161Y-47900313D01*
X61282338Y-47969492D01*
X61282333Y-47969496D01*
X61184496Y-48067333D01*
X61184492Y-48067338D01*
X61115313Y-48187161D01*
X61115312Y-48187164D01*
X61079500Y-48320817D01*
X61079500Y-48459183D01*
X61111622Y-48579062D01*
X61115312Y-48592835D01*
X61115313Y-48592838D01*
X61184492Y-48712661D01*
X61189441Y-48719110D01*
X61186813Y-48721125D01*
X61212911Y-48768919D01*
X61207927Y-48838611D01*
X61166055Y-48894544D01*
X61139197Y-48909838D01*
X61081328Y-48933807D01*
X61081315Y-48933814D01*
X60917537Y-49043248D01*
X60917533Y-49043251D01*
X60778251Y-49182533D01*
X60778248Y-49182537D01*
X60668814Y-49346315D01*
X60668807Y-49346328D01*
X60593430Y-49528307D01*
X60593430Y-49528309D01*
X60585138Y-49570000D01*
X59294862Y-49570000D01*
X59286569Y-49528309D01*
X59286569Y-49528307D01*
X59211192Y-49346328D01*
X59211185Y-49346315D01*
X59101751Y-49182537D01*
X59101748Y-49182533D01*
X58962466Y-49043251D01*
X58962462Y-49043248D01*
X58798684Y-48933814D01*
X58798671Y-48933807D01*
X58616693Y-48858430D01*
X58616681Y-48858427D01*
X58423495Y-48820000D01*
X58175000Y-48820000D01*
X58175000Y-49520000D01*
X57675000Y-49520000D01*
X57675000Y-48820000D01*
X57426504Y-48820000D01*
X57233318Y-48858427D01*
X57233306Y-48858430D01*
X57051328Y-48933807D01*
X57051315Y-48933814D01*
X56887537Y-49043248D01*
X56887533Y-49043251D01*
X56748251Y-49182533D01*
X56748248Y-49182537D01*
X56638814Y-49346315D01*
X56638807Y-49346328D01*
X56563430Y-49528307D01*
X56563430Y-49528309D01*
X56555138Y-49570000D01*
X56000500Y-49570000D01*
X56000500Y-47841465D01*
X76923200Y-47841465D01*
X76923200Y-47978534D01*
X76949937Y-48112949D01*
X76949940Y-48112961D01*
X77002386Y-48239578D01*
X77002393Y-48239591D01*
X77078536Y-48353546D01*
X77078539Y-48353550D01*
X77175449Y-48450460D01*
X77175453Y-48450463D01*
X77289408Y-48526606D01*
X77289421Y-48526613D01*
X77404626Y-48574332D01*
X77416043Y-48579061D01*
X77537972Y-48603314D01*
X77550465Y-48605799D01*
X77550469Y-48605800D01*
X77550470Y-48605800D01*
X77687531Y-48605800D01*
X77687532Y-48605799D01*
X77821957Y-48579061D01*
X77948585Y-48526610D01*
X78062547Y-48450463D01*
X78159463Y-48353547D01*
X78235610Y-48239585D01*
X78288061Y-48112957D01*
X78314800Y-47978530D01*
X78314800Y-47841470D01*
X78314799Y-47841465D01*
X78955200Y-47841465D01*
X78955200Y-47978534D01*
X78981937Y-48112949D01*
X78981940Y-48112961D01*
X79034386Y-48239578D01*
X79034393Y-48239591D01*
X79110536Y-48353546D01*
X79110539Y-48353550D01*
X79207449Y-48450460D01*
X79207453Y-48450463D01*
X79321408Y-48526606D01*
X79321421Y-48526613D01*
X79436626Y-48574332D01*
X79448043Y-48579061D01*
X79569972Y-48603314D01*
X79582465Y-48605799D01*
X79582469Y-48605800D01*
X79582470Y-48605800D01*
X79719531Y-48605800D01*
X79719532Y-48605799D01*
X79853957Y-48579061D01*
X79980585Y-48526610D01*
X80094547Y-48450463D01*
X80191463Y-48353547D01*
X80255875Y-48257147D01*
X83274500Y-48257147D01*
X83274500Y-48342853D01*
X83277366Y-48353547D01*
X83296682Y-48425637D01*
X83296685Y-48425644D01*
X83339530Y-48499855D01*
X83339534Y-48499860D01*
X83339535Y-48499862D01*
X83400138Y-48560465D01*
X83400140Y-48560466D01*
X83400144Y-48560469D01*
X83456210Y-48592838D01*
X83474362Y-48603318D01*
X83557147Y-48625500D01*
X83557149Y-48625500D01*
X83642851Y-48625500D01*
X83642853Y-48625500D01*
X83725638Y-48603318D01*
X83799862Y-48560465D01*
X83860465Y-48499862D01*
X83895606Y-48438995D01*
X107599499Y-48438995D01*
X107626418Y-48574322D01*
X107626421Y-48574332D01*
X107679221Y-48701804D01*
X107679228Y-48701817D01*
X107755885Y-48816541D01*
X107755888Y-48816545D01*
X107853454Y-48914111D01*
X107853458Y-48914114D01*
X107968182Y-48990771D01*
X107968195Y-48990778D01*
X108094870Y-49043248D01*
X108095672Y-49043580D01*
X108095676Y-49043580D01*
X108095677Y-49043581D01*
X108231004Y-49070500D01*
X108231007Y-49070500D01*
X108368995Y-49070500D01*
X108475295Y-49049355D01*
X108504328Y-49043580D01*
X108609207Y-49000138D01*
X108631804Y-48990778D01*
X108631804Y-48990777D01*
X108631811Y-48990775D01*
X108746542Y-48914114D01*
X108844114Y-48816542D01*
X108920775Y-48701811D01*
X108973580Y-48574328D01*
X108996484Y-48459182D01*
X109000500Y-48438995D01*
X109000500Y-48301004D01*
X108973581Y-48165677D01*
X108973580Y-48165676D01*
X108973580Y-48165672D01*
X108973578Y-48165667D01*
X108920778Y-48038195D01*
X108920771Y-48038182D01*
X108844114Y-47923458D01*
X108844111Y-47923454D01*
X108746545Y-47825888D01*
X108746541Y-47825885D01*
X108631817Y-47749228D01*
X108631804Y-47749221D01*
X108504332Y-47696421D01*
X108504322Y-47696418D01*
X108368995Y-47669500D01*
X108368993Y-47669500D01*
X108231007Y-47669500D01*
X108231005Y-47669500D01*
X108095677Y-47696418D01*
X108095667Y-47696421D01*
X107968195Y-47749221D01*
X107968182Y-47749228D01*
X107853458Y-47825885D01*
X107853454Y-47825888D01*
X107755888Y-47923454D01*
X107755885Y-47923458D01*
X107679228Y-48038182D01*
X107679221Y-48038195D01*
X107626421Y-48165667D01*
X107626418Y-48165677D01*
X107599500Y-48301004D01*
X107599500Y-48301007D01*
X107599500Y-48438993D01*
X107599500Y-48438995D01*
X107599499Y-48438995D01*
X83895606Y-48438995D01*
X83903318Y-48425638D01*
X83925500Y-48342853D01*
X83925500Y-48257147D01*
X83903318Y-48174362D01*
X83898298Y-48165667D01*
X83860469Y-48100144D01*
X83860463Y-48100136D01*
X83799863Y-48039536D01*
X83799855Y-48039530D01*
X83725644Y-47996685D01*
X83725640Y-47996683D01*
X83725638Y-47996682D01*
X83642853Y-47974500D01*
X83557147Y-47974500D01*
X83474362Y-47996682D01*
X83474355Y-47996685D01*
X83400144Y-48039530D01*
X83400136Y-48039536D01*
X83339536Y-48100136D01*
X83339530Y-48100144D01*
X83296685Y-48174355D01*
X83296682Y-48174362D01*
X83274500Y-48257147D01*
X80255875Y-48257147D01*
X80267610Y-48239585D01*
X80320061Y-48112957D01*
X80346800Y-47978530D01*
X80346800Y-47841470D01*
X80320061Y-47707043D01*
X80304510Y-47669500D01*
X80267613Y-47580421D01*
X80267606Y-47580408D01*
X80191463Y-47466453D01*
X80191460Y-47466449D01*
X80094550Y-47369539D01*
X80094546Y-47369536D01*
X79980591Y-47293393D01*
X79980578Y-47293386D01*
X79853961Y-47240940D01*
X79853949Y-47240937D01*
X79719534Y-47214200D01*
X79719530Y-47214200D01*
X79582470Y-47214200D01*
X79582465Y-47214200D01*
X79448050Y-47240937D01*
X79448038Y-47240940D01*
X79321421Y-47293386D01*
X79321408Y-47293393D01*
X79207453Y-47369536D01*
X79207449Y-47369539D01*
X79110539Y-47466449D01*
X79110536Y-47466453D01*
X79034393Y-47580408D01*
X79034386Y-47580421D01*
X78981940Y-47707038D01*
X78981937Y-47707050D01*
X78955200Y-47841465D01*
X78314799Y-47841465D01*
X78288061Y-47707043D01*
X78272510Y-47669500D01*
X78235613Y-47580421D01*
X78235606Y-47580408D01*
X78159463Y-47466453D01*
X78159460Y-47466449D01*
X78062550Y-47369539D01*
X78062546Y-47369536D01*
X77948591Y-47293393D01*
X77948578Y-47293386D01*
X77821961Y-47240940D01*
X77821949Y-47240937D01*
X77687534Y-47214200D01*
X77687530Y-47214200D01*
X77550470Y-47214200D01*
X77550465Y-47214200D01*
X77416050Y-47240937D01*
X77416038Y-47240940D01*
X77289421Y-47293386D01*
X77289408Y-47293393D01*
X77175453Y-47369536D01*
X77175449Y-47369539D01*
X77078539Y-47466449D01*
X77078536Y-47466453D01*
X77002393Y-47580408D01*
X77002386Y-47580421D01*
X76949940Y-47707038D01*
X76949937Y-47707050D01*
X76923200Y-47841465D01*
X56000500Y-47841465D01*
X56000500Y-45895766D01*
X74707050Y-45895766D01*
X74707050Y-46114233D01*
X74741226Y-46330013D01*
X74808734Y-46537785D01*
X74907921Y-46732447D01*
X75036325Y-46909182D01*
X75036329Y-46909187D01*
X75190812Y-47063670D01*
X75190817Y-47063674D01*
X75344974Y-47175674D01*
X75367556Y-47192081D01*
X75562212Y-47291264D01*
X75562214Y-47291265D01*
X75666100Y-47325019D01*
X75769988Y-47358774D01*
X75985766Y-47392950D01*
X75985767Y-47392950D01*
X76204233Y-47392950D01*
X76204234Y-47392950D01*
X76420012Y-47358774D01*
X76627788Y-47291264D01*
X76822444Y-47192081D01*
X76999189Y-47063669D01*
X77153669Y-46909189D01*
X77282081Y-46732444D01*
X77381264Y-46537788D01*
X77448774Y-46330012D01*
X77482950Y-46114234D01*
X77482950Y-45895766D01*
X79787050Y-45895766D01*
X79787050Y-46114233D01*
X79821226Y-46330013D01*
X79888734Y-46537785D01*
X79987921Y-46732447D01*
X80116325Y-46909182D01*
X80116329Y-46909187D01*
X80270812Y-47063670D01*
X80270817Y-47063674D01*
X80424974Y-47175674D01*
X80447556Y-47192081D01*
X80642212Y-47291264D01*
X80642214Y-47291265D01*
X80746100Y-47325019D01*
X80849988Y-47358774D01*
X81065766Y-47392950D01*
X81065767Y-47392950D01*
X81284233Y-47392950D01*
X81284234Y-47392950D01*
X81500012Y-47358774D01*
X81707788Y-47291264D01*
X81902444Y-47192081D01*
X82079189Y-47063669D01*
X82233669Y-46909189D01*
X82362081Y-46732444D01*
X82400447Y-46657147D01*
X97974500Y-46657147D01*
X97974500Y-46742852D01*
X97996682Y-46825637D01*
X97996685Y-46825644D01*
X98039530Y-46899855D01*
X98039534Y-46899860D01*
X98039535Y-46899862D01*
X98100138Y-46960465D01*
X98100140Y-46960466D01*
X98100144Y-46960469D01*
X98174355Y-47003314D01*
X98174362Y-47003318D01*
X98257147Y-47025500D01*
X98257149Y-47025500D01*
X98342851Y-47025500D01*
X98342853Y-47025500D01*
X98425638Y-47003318D01*
X98499862Y-46960465D01*
X98560465Y-46899862D01*
X98603318Y-46825638D01*
X98625500Y-46742853D01*
X98625500Y-46657147D01*
X98603318Y-46574362D01*
X98582202Y-46537788D01*
X98560469Y-46500144D01*
X98560463Y-46500136D01*
X98499863Y-46439536D01*
X98499855Y-46439530D01*
X98425644Y-46396685D01*
X98425640Y-46396683D01*
X98425638Y-46396682D01*
X98342853Y-46374500D01*
X98257147Y-46374500D01*
X98174362Y-46396682D01*
X98174355Y-46396685D01*
X98100144Y-46439530D01*
X98100136Y-46439536D01*
X98039536Y-46500136D01*
X98039530Y-46500144D01*
X97996685Y-46574355D01*
X97996682Y-46574362D01*
X97974500Y-46657147D01*
X82400447Y-46657147D01*
X82461264Y-46537788D01*
X82528774Y-46330012D01*
X82562950Y-46114234D01*
X82562950Y-45895766D01*
X82528774Y-45679988D01*
X82461264Y-45472212D01*
X82362081Y-45277556D01*
X82345674Y-45254974D01*
X82233674Y-45100817D01*
X82233670Y-45100812D01*
X82079187Y-44946329D01*
X82079182Y-44946325D01*
X81902447Y-44817921D01*
X81902446Y-44817920D01*
X81902444Y-44817919D01*
X81805116Y-44768327D01*
X81707785Y-44718734D01*
X81500013Y-44651226D01*
X81392123Y-44634138D01*
X81284234Y-44617050D01*
X81065766Y-44617050D01*
X80993840Y-44628442D01*
X80849986Y-44651226D01*
X80642214Y-44718734D01*
X80447552Y-44817921D01*
X80270817Y-44946325D01*
X80270812Y-44946329D01*
X80116329Y-45100812D01*
X80116325Y-45100817D01*
X79987921Y-45277552D01*
X79888734Y-45472214D01*
X79821226Y-45679986D01*
X79787050Y-45895766D01*
X77482950Y-45895766D01*
X77448774Y-45679988D01*
X77381264Y-45472212D01*
X77282081Y-45277556D01*
X77265674Y-45254974D01*
X77153674Y-45100817D01*
X77153670Y-45100812D01*
X76999187Y-44946329D01*
X76999182Y-44946325D01*
X76822447Y-44817921D01*
X76822446Y-44817920D01*
X76822444Y-44817919D01*
X76725116Y-44768327D01*
X76627785Y-44718734D01*
X76420013Y-44651226D01*
X76312123Y-44634138D01*
X76204234Y-44617050D01*
X75985766Y-44617050D01*
X75913840Y-44628442D01*
X75769986Y-44651226D01*
X75562214Y-44718734D01*
X75367552Y-44817921D01*
X75190817Y-44946325D01*
X75190812Y-44946329D01*
X75036329Y-45100812D01*
X75036325Y-45100817D01*
X74907921Y-45277552D01*
X74808734Y-45472214D01*
X74741226Y-45679986D01*
X74707050Y-45895766D01*
X56000500Y-45895766D01*
X56000500Y-44350000D01*
X110785000Y-44350000D01*
X112875000Y-44350000D01*
X112875000Y-42450000D01*
X110785000Y-42450000D01*
X110785000Y-44350000D01*
X56000500Y-44350000D01*
X56000500Y-40930000D01*
X56555138Y-40930000D01*
X57358012Y-40930000D01*
X57340795Y-40939940D01*
X57284940Y-40995795D01*
X57245444Y-41064204D01*
X57225000Y-41140504D01*
X57225000Y-41219496D01*
X57245444Y-41295796D01*
X57284940Y-41364205D01*
X57340795Y-41420060D01*
X57358012Y-41430000D01*
X56555138Y-41430000D01*
X56563430Y-41471690D01*
X56563430Y-41471692D01*
X56638807Y-41653671D01*
X56638814Y-41653684D01*
X56748248Y-41817462D01*
X56748251Y-41817466D01*
X56887533Y-41956748D01*
X56887537Y-41956751D01*
X57051315Y-42066185D01*
X57051328Y-42066192D01*
X57233306Y-42141569D01*
X57233318Y-42141572D01*
X57426504Y-42179999D01*
X57426508Y-42180000D01*
X57675000Y-42180000D01*
X57675000Y-41480000D01*
X58175000Y-41480000D01*
X58175000Y-42180000D01*
X58423492Y-42180000D01*
X58423495Y-42179999D01*
X58616681Y-42141572D01*
X58616693Y-42141569D01*
X58798671Y-42066192D01*
X58798684Y-42066185D01*
X58962462Y-41956751D01*
X58962466Y-41956748D01*
X59101748Y-41817466D01*
X59101751Y-41817462D01*
X59211185Y-41653684D01*
X59211192Y-41653671D01*
X59286569Y-41471692D01*
X59286569Y-41471690D01*
X59294862Y-41430000D01*
X58491988Y-41430000D01*
X58509205Y-41420060D01*
X58565060Y-41364205D01*
X58604556Y-41295796D01*
X58625000Y-41219496D01*
X58625000Y-41140504D01*
X58604556Y-41064204D01*
X58565060Y-40995795D01*
X58509205Y-40939940D01*
X58491988Y-40930000D01*
X59294862Y-40930000D01*
X60585138Y-40930000D01*
X61388012Y-40930000D01*
X61370795Y-40939940D01*
X61314940Y-40995795D01*
X61275444Y-41064204D01*
X61255000Y-41140504D01*
X61255000Y-41219496D01*
X61275444Y-41295796D01*
X61314940Y-41364205D01*
X61370795Y-41420060D01*
X61388012Y-41430000D01*
X60585138Y-41430000D01*
X60593430Y-41471690D01*
X60593430Y-41471692D01*
X60668807Y-41653671D01*
X60668814Y-41653684D01*
X60778248Y-41817462D01*
X60778251Y-41817466D01*
X60917533Y-41956748D01*
X60917537Y-41956751D01*
X61081315Y-42066185D01*
X61081322Y-42066189D01*
X61139196Y-42090160D01*
X61193600Y-42134000D01*
X61215666Y-42200294D01*
X61198388Y-42267994D01*
X61188774Y-42280378D01*
X61189441Y-42280890D01*
X61184492Y-42287338D01*
X61115313Y-42407161D01*
X61115312Y-42407164D01*
X61079500Y-42540817D01*
X61079500Y-42679183D01*
X61101548Y-42761465D01*
X61115312Y-42812835D01*
X61115313Y-42812838D01*
X61184492Y-42932661D01*
X61184494Y-42932664D01*
X61184495Y-42932665D01*
X61282335Y-43030505D01*
X61402164Y-43099688D01*
X61535817Y-43135500D01*
X61535819Y-43135500D01*
X61674181Y-43135500D01*
X61674183Y-43135500D01*
X61807836Y-43099688D01*
X61927665Y-43030505D01*
X62025505Y-42932665D01*
X62094688Y-42812836D01*
X62119358Y-42720766D01*
X74707050Y-42720766D01*
X74707050Y-42939233D01*
X74741226Y-43155013D01*
X74808734Y-43362785D01*
X74851444Y-43446606D01*
X74891795Y-43525800D01*
X74907921Y-43557447D01*
X75036325Y-43734182D01*
X75036329Y-43734187D01*
X75190812Y-43888670D01*
X75190817Y-43888674D01*
X75344974Y-44000674D01*
X75367556Y-44017081D01*
X75562212Y-44116264D01*
X75562214Y-44116265D01*
X75666100Y-44150019D01*
X75769988Y-44183774D01*
X75985766Y-44217950D01*
X75985767Y-44217950D01*
X76204233Y-44217950D01*
X76204234Y-44217950D01*
X76420012Y-44183774D01*
X76627788Y-44116264D01*
X76822444Y-44017081D01*
X76999189Y-43888669D01*
X77153669Y-43734189D01*
X77282081Y-43557444D01*
X77381264Y-43362788D01*
X77448774Y-43155012D01*
X77482950Y-42939234D01*
X77482950Y-42761465D01*
X77939200Y-42761465D01*
X77939200Y-42898534D01*
X77965937Y-43032949D01*
X77965940Y-43032961D01*
X78018386Y-43159578D01*
X78018393Y-43159591D01*
X78094536Y-43273546D01*
X78094539Y-43273550D01*
X78191449Y-43370460D01*
X78191453Y-43370463D01*
X78305408Y-43446606D01*
X78305421Y-43446613D01*
X78432038Y-43499059D01*
X78432043Y-43499061D01*
X78566465Y-43525799D01*
X78566469Y-43525800D01*
X78566470Y-43525800D01*
X78703531Y-43525800D01*
X78703532Y-43525799D01*
X78837957Y-43499061D01*
X78964585Y-43446610D01*
X79078547Y-43370463D01*
X79175463Y-43273547D01*
X79251610Y-43159585D01*
X79304061Y-43032957D01*
X79330800Y-42898530D01*
X79330800Y-42761470D01*
X79326546Y-42740083D01*
X79326546Y-42740081D01*
X79322704Y-42720766D01*
X79787050Y-42720766D01*
X79787050Y-42939233D01*
X79821226Y-43155013D01*
X79888734Y-43362785D01*
X79931444Y-43446606D01*
X79971795Y-43525800D01*
X79987921Y-43557447D01*
X80116325Y-43734182D01*
X80116329Y-43734187D01*
X80270812Y-43888670D01*
X80270817Y-43888674D01*
X80424974Y-44000674D01*
X80447556Y-44017081D01*
X80642212Y-44116264D01*
X80642214Y-44116265D01*
X80746100Y-44150019D01*
X80849988Y-44183774D01*
X81065766Y-44217950D01*
X81065767Y-44217950D01*
X81284233Y-44217950D01*
X81284234Y-44217950D01*
X81500012Y-44183774D01*
X81707788Y-44116264D01*
X81902444Y-44017081D01*
X82079189Y-43888669D01*
X82233669Y-43734189D01*
X82362081Y-43557444D01*
X82461264Y-43362788D01*
X82528774Y-43155012D01*
X82562950Y-42939234D01*
X82562950Y-42720766D01*
X82528774Y-42504988D01*
X82479906Y-42354586D01*
X82461265Y-42297214D01*
X82409409Y-42195441D01*
X82409408Y-42195439D01*
X82384866Y-42147273D01*
X84899500Y-42147273D01*
X84899500Y-42252727D01*
X84926793Y-42354587D01*
X84979520Y-42445913D01*
X85054087Y-42520480D01*
X85145413Y-42573207D01*
X85247273Y-42600500D01*
X85247275Y-42600500D01*
X85352725Y-42600500D01*
X85352727Y-42600500D01*
X85454587Y-42573207D01*
X85545913Y-42520480D01*
X85620480Y-42445913D01*
X85673207Y-42354587D01*
X85700500Y-42252727D01*
X85700500Y-42147273D01*
X85673207Y-42045413D01*
X85622247Y-41957147D01*
X98274500Y-41957147D01*
X98274500Y-42042853D01*
X98290498Y-42102556D01*
X98296682Y-42125637D01*
X98296685Y-42125644D01*
X98339530Y-42199855D01*
X98339534Y-42199860D01*
X98339535Y-42199862D01*
X98400138Y-42260465D01*
X98400140Y-42260466D01*
X98400144Y-42260469D01*
X98474355Y-42303314D01*
X98474362Y-42303318D01*
X98557147Y-42325500D01*
X98557149Y-42325500D01*
X98642851Y-42325500D01*
X98642853Y-42325500D01*
X98725638Y-42303318D01*
X98799862Y-42260465D01*
X98860465Y-42199862D01*
X98903318Y-42125638D01*
X98925500Y-42042853D01*
X98925500Y-41957147D01*
X98903318Y-41874362D01*
X98875855Y-41826794D01*
X98860469Y-41800144D01*
X98860463Y-41800136D01*
X98799863Y-41739536D01*
X98799855Y-41739530D01*
X98725644Y-41696685D01*
X98725640Y-41696683D01*
X98725638Y-41696682D01*
X98642853Y-41674500D01*
X98557147Y-41674500D01*
X98474362Y-41696682D01*
X98474355Y-41696685D01*
X98400144Y-41739530D01*
X98400136Y-41739536D01*
X98339536Y-41800136D01*
X98339530Y-41800144D01*
X98296685Y-41874355D01*
X98296682Y-41874362D01*
X98274500Y-41957147D01*
X85622247Y-41957147D01*
X85620480Y-41954087D01*
X85545913Y-41879520D01*
X85454587Y-41826793D01*
X85352727Y-41799500D01*
X85247273Y-41799500D01*
X85145413Y-41826793D01*
X85145410Y-41826794D01*
X85054085Y-41879521D01*
X84979521Y-41954085D01*
X84926794Y-42045410D01*
X84926793Y-42045413D01*
X84899500Y-42147273D01*
X82384866Y-42147273D01*
X82362080Y-42102554D01*
X82233674Y-41925817D01*
X82233670Y-41925812D01*
X82079187Y-41771329D01*
X82079182Y-41771325D01*
X81902447Y-41642921D01*
X81902446Y-41642920D01*
X81902444Y-41642919D01*
X81805116Y-41593327D01*
X81707785Y-41543734D01*
X81500013Y-41476226D01*
X81392123Y-41459138D01*
X81284234Y-41442050D01*
X81065766Y-41442050D01*
X80993840Y-41453442D01*
X80849986Y-41476226D01*
X80642214Y-41543734D01*
X80447552Y-41642921D01*
X80270817Y-41771325D01*
X80270812Y-41771329D01*
X80116329Y-41925812D01*
X80116325Y-41925817D01*
X79987921Y-42102552D01*
X79888734Y-42297214D01*
X79821226Y-42504986D01*
X79787050Y-42720766D01*
X79322704Y-42720766D01*
X79304062Y-42627050D01*
X79304061Y-42627043D01*
X79293066Y-42600499D01*
X79251613Y-42500421D01*
X79251606Y-42500408D01*
X79175463Y-42386453D01*
X79175460Y-42386449D01*
X79078550Y-42289539D01*
X79078546Y-42289536D01*
X78964591Y-42213393D01*
X78964578Y-42213386D01*
X78837961Y-42160940D01*
X78837949Y-42160937D01*
X78703534Y-42134200D01*
X78703530Y-42134200D01*
X78566470Y-42134200D01*
X78566465Y-42134200D01*
X78432050Y-42160937D01*
X78432038Y-42160940D01*
X78305421Y-42213386D01*
X78305408Y-42213393D01*
X78248940Y-42251124D01*
X78248933Y-42251129D01*
X78191453Y-42289537D01*
X78094537Y-42386453D01*
X78093613Y-42387834D01*
X78093610Y-42387838D01*
X78018393Y-42500408D01*
X78018386Y-42500421D01*
X77965940Y-42627038D01*
X77965937Y-42627050D01*
X77939200Y-42761465D01*
X77482950Y-42761465D01*
X77482950Y-42720766D01*
X77448774Y-42504988D01*
X77381264Y-42297212D01*
X77376230Y-42287333D01*
X77368076Y-42271329D01*
X77368073Y-42271324D01*
X77282081Y-42102556D01*
X77153669Y-41925811D01*
X77085005Y-41857147D01*
X77474500Y-41857147D01*
X77474500Y-41942857D01*
X77477510Y-41954087D01*
X77496682Y-42025638D01*
X77539535Y-42099862D01*
X77600138Y-42160465D01*
X77600140Y-42160466D01*
X77600144Y-42160469D01*
X77667801Y-42199530D01*
X77674362Y-42203318D01*
X77757147Y-42225500D01*
X77757149Y-42225500D01*
X77842851Y-42225500D01*
X77842853Y-42225500D01*
X77925638Y-42203318D01*
X77999862Y-42160465D01*
X78060465Y-42099862D01*
X78103318Y-42025638D01*
X78125500Y-41942853D01*
X78125500Y-41857147D01*
X78103318Y-41774362D01*
X78101565Y-41771325D01*
X78060469Y-41700144D01*
X78060463Y-41700136D01*
X77999863Y-41639536D01*
X77999855Y-41639530D01*
X77925644Y-41596685D01*
X77925640Y-41596683D01*
X77925638Y-41596682D01*
X77842853Y-41574500D01*
X77757147Y-41574500D01*
X77674362Y-41596682D01*
X77674355Y-41596685D01*
X77600144Y-41639530D01*
X77600136Y-41639536D01*
X77539536Y-41700136D01*
X77539530Y-41700144D01*
X77496685Y-41774355D01*
X77496682Y-41774362D01*
X77474500Y-41857147D01*
X77085005Y-41857147D01*
X76999189Y-41771331D01*
X76999187Y-41771329D01*
X76999182Y-41771325D01*
X76822447Y-41642921D01*
X76822446Y-41642920D01*
X76822444Y-41642919D01*
X76725116Y-41593327D01*
X76627785Y-41543734D01*
X76420013Y-41476226D01*
X76312123Y-41459138D01*
X76204234Y-41442050D01*
X75985766Y-41442050D01*
X75913840Y-41453442D01*
X75769986Y-41476226D01*
X75562214Y-41543734D01*
X75367552Y-41642921D01*
X75190817Y-41771325D01*
X75190812Y-41771329D01*
X75036329Y-41925812D01*
X75036325Y-41925817D01*
X74907921Y-42102552D01*
X74808734Y-42297214D01*
X74741226Y-42504986D01*
X74707050Y-42720766D01*
X62119358Y-42720766D01*
X62130500Y-42679183D01*
X62130500Y-42540817D01*
X62094688Y-42407164D01*
X62060096Y-42347249D01*
X62025507Y-42287338D01*
X62025503Y-42287333D01*
X61927664Y-42189494D01*
X61916999Y-42183337D01*
X61868784Y-42132769D01*
X61855000Y-42075950D01*
X61855000Y-41480000D01*
X62355000Y-41480000D01*
X62355000Y-42180000D01*
X62753492Y-42180000D01*
X62753495Y-42179999D01*
X62946681Y-42141572D01*
X62946693Y-42141569D01*
X63128671Y-42066192D01*
X63128684Y-42066185D01*
X63292462Y-41956751D01*
X63292466Y-41956748D01*
X63431748Y-41817466D01*
X63431751Y-41817462D01*
X63541185Y-41653684D01*
X63541192Y-41653671D01*
X63616569Y-41471692D01*
X63616569Y-41471690D01*
X63624862Y-41430000D01*
X62821988Y-41430000D01*
X62839205Y-41420060D01*
X62895060Y-41364205D01*
X62934556Y-41295796D01*
X62955000Y-41219496D01*
X62955000Y-41140504D01*
X62934556Y-41064204D01*
X62895060Y-40995795D01*
X62839205Y-40939940D01*
X62821988Y-40930000D01*
X63624862Y-40930000D01*
X63616569Y-40888309D01*
X63616569Y-40888307D01*
X63541192Y-40706328D01*
X63541185Y-40706315D01*
X63431751Y-40542537D01*
X63431748Y-40542533D01*
X63292466Y-40403251D01*
X63292462Y-40403248D01*
X63128684Y-40293814D01*
X63128671Y-40293807D01*
X62946693Y-40218430D01*
X62946681Y-40218427D01*
X62753495Y-40180000D01*
X62355000Y-40180000D01*
X62355000Y-40880000D01*
X61855000Y-40880000D01*
X61855000Y-40180000D01*
X61456504Y-40180000D01*
X61263318Y-40218427D01*
X61263306Y-40218430D01*
X61081328Y-40293807D01*
X61081315Y-40293814D01*
X60917537Y-40403248D01*
X60917533Y-40403251D01*
X60778251Y-40542533D01*
X60778248Y-40542537D01*
X60668814Y-40706315D01*
X60668807Y-40706328D01*
X60593430Y-40888307D01*
X60593430Y-40888309D01*
X60585138Y-40930000D01*
X59294862Y-40930000D01*
X59286569Y-40888309D01*
X59286569Y-40888307D01*
X59211192Y-40706328D01*
X59211185Y-40706315D01*
X59101751Y-40542537D01*
X59101748Y-40542533D01*
X58962466Y-40403251D01*
X58962462Y-40403248D01*
X58798684Y-40293814D01*
X58798671Y-40293807D01*
X58616693Y-40218430D01*
X58616681Y-40218427D01*
X58423495Y-40180000D01*
X58175000Y-40180000D01*
X58175000Y-40880000D01*
X57675000Y-40880000D01*
X57675000Y-40180000D01*
X57426504Y-40180000D01*
X57233318Y-40218427D01*
X57233306Y-40218430D01*
X57051328Y-40293807D01*
X57051315Y-40293814D01*
X56887537Y-40403248D01*
X56887533Y-40403251D01*
X56748251Y-40542533D01*
X56748248Y-40542537D01*
X56638814Y-40706315D01*
X56638807Y-40706328D01*
X56563430Y-40888307D01*
X56563430Y-40888309D01*
X56555138Y-40930000D01*
X56000500Y-40930000D01*
X56000500Y-35268995D01*
X58924499Y-35268995D01*
X58951418Y-35404322D01*
X58951421Y-35404332D01*
X59004221Y-35531804D01*
X59004228Y-35531817D01*
X59080885Y-35646541D01*
X59080888Y-35646545D01*
X59178454Y-35744111D01*
X59178458Y-35744114D01*
X59293182Y-35820771D01*
X59293195Y-35820778D01*
X59420667Y-35873578D01*
X59420672Y-35873580D01*
X59420676Y-35873580D01*
X59420677Y-35873581D01*
X59556004Y-35900500D01*
X59556007Y-35900500D01*
X59693995Y-35900500D01*
X59785041Y-35882389D01*
X59829328Y-35873580D01*
X59956811Y-35820775D01*
X60071542Y-35744114D01*
X60169114Y-35646542D01*
X60245775Y-35531811D01*
X60298580Y-35404328D01*
X60325500Y-35268993D01*
X60325500Y-35131007D01*
X60325500Y-35131004D01*
X60321933Y-35113073D01*
X60321933Y-35113072D01*
X60318090Y-35093753D01*
X60815000Y-35093753D01*
X60815000Y-35306246D01*
X60848242Y-35516127D01*
X60848242Y-35516130D01*
X60913904Y-35718217D01*
X61010375Y-35907550D01*
X61049728Y-35961716D01*
X61682037Y-35329408D01*
X61699075Y-35392993D01*
X61764901Y-35507007D01*
X61857993Y-35600099D01*
X61972007Y-35665925D01*
X62035590Y-35682962D01*
X61403282Y-36315269D01*
X61403282Y-36315270D01*
X61457449Y-36354624D01*
X61646782Y-36451095D01*
X61848870Y-36516757D01*
X62058754Y-36550000D01*
X62271246Y-36550000D01*
X62481127Y-36516757D01*
X62481130Y-36516757D01*
X62683217Y-36451095D01*
X62872554Y-36354622D01*
X62926716Y-36315270D01*
X62926717Y-36315270D01*
X62294408Y-35682962D01*
X62357993Y-35665925D01*
X62472007Y-35600099D01*
X62565099Y-35507007D01*
X62630925Y-35392993D01*
X62647962Y-35329408D01*
X63280270Y-35961717D01*
X63280270Y-35961716D01*
X63319622Y-35907554D01*
X63416095Y-35718217D01*
X63481757Y-35516130D01*
X63481757Y-35516127D01*
X63515000Y-35306246D01*
X63515000Y-35093753D01*
X63481757Y-34883872D01*
X63481757Y-34883869D01*
X63416095Y-34681782D01*
X63319623Y-34492447D01*
X63319622Y-34492445D01*
X63280271Y-34438282D01*
X63280269Y-34438282D01*
X62647962Y-35070590D01*
X62630925Y-35007007D01*
X62565099Y-34892993D01*
X62472007Y-34799901D01*
X62357993Y-34734075D01*
X62294409Y-34717037D01*
X62654298Y-34357147D01*
X87874500Y-34357147D01*
X87874500Y-34442853D01*
X87889679Y-34499500D01*
X87896682Y-34525637D01*
X87896685Y-34525644D01*
X87939530Y-34599855D01*
X87939534Y-34599860D01*
X87939535Y-34599862D01*
X88000138Y-34660465D01*
X88000140Y-34660466D01*
X88000144Y-34660469D01*
X88037060Y-34681782D01*
X88074362Y-34703318D01*
X88157147Y-34725500D01*
X88157149Y-34725500D01*
X88242851Y-34725500D01*
X88242853Y-34725500D01*
X88325638Y-34703318D01*
X88399862Y-34660465D01*
X88460465Y-34599862D01*
X88503318Y-34525638D01*
X88525500Y-34442853D01*
X88525500Y-34357147D01*
X88974500Y-34357147D01*
X88974500Y-34442853D01*
X88989679Y-34499500D01*
X88996682Y-34525637D01*
X88996685Y-34525644D01*
X89039530Y-34599855D01*
X89039534Y-34599860D01*
X89039535Y-34599862D01*
X89100138Y-34660465D01*
X89100140Y-34660466D01*
X89100144Y-34660469D01*
X89137060Y-34681782D01*
X89174362Y-34703318D01*
X89257147Y-34725500D01*
X89257149Y-34725500D01*
X89342851Y-34725500D01*
X89342853Y-34725500D01*
X89425638Y-34703318D01*
X89499862Y-34660465D01*
X89560465Y-34599862D01*
X89603318Y-34525638D01*
X89625500Y-34442853D01*
X89625500Y-34357147D01*
X89603318Y-34274362D01*
X89603314Y-34274355D01*
X89560469Y-34200144D01*
X89560463Y-34200136D01*
X89499863Y-34139536D01*
X89499855Y-34139530D01*
X89425644Y-34096685D01*
X89425640Y-34096683D01*
X89425638Y-34096682D01*
X89342853Y-34074500D01*
X89257147Y-34074500D01*
X89174362Y-34096682D01*
X89174355Y-34096685D01*
X89100144Y-34139530D01*
X89100136Y-34139536D01*
X89039536Y-34200136D01*
X89039530Y-34200144D01*
X88996685Y-34274355D01*
X88996682Y-34274362D01*
X88974500Y-34357147D01*
X88525500Y-34357147D01*
X88503318Y-34274362D01*
X88503314Y-34274355D01*
X88460469Y-34200144D01*
X88460463Y-34200136D01*
X88399863Y-34139536D01*
X88399855Y-34139530D01*
X88325644Y-34096685D01*
X88325640Y-34096683D01*
X88325638Y-34096682D01*
X88242853Y-34074500D01*
X88157147Y-34074500D01*
X88074362Y-34096682D01*
X88074355Y-34096685D01*
X88000144Y-34139530D01*
X88000136Y-34139536D01*
X87939536Y-34200136D01*
X87939530Y-34200144D01*
X87896685Y-34274355D01*
X87896682Y-34274362D01*
X87874500Y-34357147D01*
X62654298Y-34357147D01*
X62926716Y-34084728D01*
X62872550Y-34045375D01*
X62683217Y-33948904D01*
X62481129Y-33883242D01*
X62271246Y-33850000D01*
X62058754Y-33850000D01*
X61848872Y-33883242D01*
X61848869Y-33883242D01*
X61646782Y-33948904D01*
X61457439Y-34045380D01*
X61403282Y-34084727D01*
X61403282Y-34084728D01*
X62035591Y-34717037D01*
X61972007Y-34734075D01*
X61857993Y-34799901D01*
X61764901Y-34892993D01*
X61699075Y-35007007D01*
X61682037Y-35070591D01*
X61049728Y-34438282D01*
X61049727Y-34438282D01*
X61010380Y-34492439D01*
X60913904Y-34681782D01*
X60848242Y-34883869D01*
X60848242Y-34883872D01*
X60815000Y-35093753D01*
X60318090Y-35093753D01*
X60308633Y-35046215D01*
X60298580Y-34995672D01*
X60298578Y-34995667D01*
X60245778Y-34868195D01*
X60245771Y-34868182D01*
X60169114Y-34753458D01*
X60169111Y-34753454D01*
X60071545Y-34655888D01*
X60071541Y-34655885D01*
X59956817Y-34579228D01*
X59956804Y-34579221D01*
X59829332Y-34526421D01*
X59829322Y-34526418D01*
X59693995Y-34499500D01*
X59693993Y-34499500D01*
X59556007Y-34499500D01*
X59556005Y-34499500D01*
X59420677Y-34526418D01*
X59420667Y-34526421D01*
X59293195Y-34579221D01*
X59293182Y-34579228D01*
X59178458Y-34655885D01*
X59178454Y-34655888D01*
X59080888Y-34753454D01*
X59080885Y-34753458D01*
X59004228Y-34868182D01*
X59004221Y-34868195D01*
X58951421Y-34995667D01*
X58951418Y-34995677D01*
X58924500Y-35131004D01*
X58924500Y-35131007D01*
X58924500Y-35268993D01*
X58924500Y-35268995D01*
X58924499Y-35268995D01*
X56000500Y-35268995D01*
X56000500Y-33504427D01*
X56000816Y-33495581D01*
X56015130Y-33295443D01*
X56015131Y-33295434D01*
X56017646Y-33277938D01*
X56059356Y-33086199D01*
X56064333Y-33069248D01*
X56132911Y-32885385D01*
X56140259Y-32869298D01*
X56202815Y-32754734D01*
X56234291Y-32697089D01*
X56243845Y-32682221D01*
X56361448Y-32525123D01*
X56373020Y-32511769D01*
X56511769Y-32373020D01*
X56525123Y-32361448D01*
X56682221Y-32243845D01*
X56697089Y-32234291D01*
X56869298Y-32140258D01*
X56885385Y-32132911D01*
X57069248Y-32064333D01*
X57086199Y-32059356D01*
X57277938Y-32017646D01*
X57295436Y-32015130D01*
X57495582Y-32000816D01*
X57504428Y-32000500D01*
X57565892Y-32000500D01*
X113434108Y-32000500D01*
X113495572Y-32000500D01*
X113504418Y-32000816D01*
G37*
%TD.AperFunction*%
%TD*%
M02*
