%TF.GenerationSoftware,KiCad,Pcbnew,9.0.4*%
%TF.CreationDate,2025-09-25T07:19:07+02:00*%
%TF.ProjectId,stm32_sensirion_wb,73746d33-325f-4736-956e-736972696f6e,rev?*%
%TF.SameCoordinates,Original*%
%TF.FileFunction,Paste,Top*%
%TF.FilePolarity,Positive*%
%FSLAX46Y46*%
G04 Gerber Fmt 4.6, Leading zero omitted, Abs format (unit mm)*
G04 Created by KiCad (PCBNEW 9.0.4) date 2025-09-25 07:19:07*
%MOMM*%
%LPD*%
G01*
G04 APERTURE LIST*
G04 Aperture macros list*
%AMRoundRect*
0 Rectangle with rounded corners*
0 $1 Rounding radius*
0 $2 $3 $4 $5 $6 $7 $8 $9 X,Y pos of 4 corners*
0 Add a 4 corners polygon primitive as box body*
4,1,4,$2,$3,$4,$5,$6,$7,$8,$9,$2,$3,0*
0 Add four circle primitives for the rounded corners*
1,1,$1+$1,$2,$3*
1,1,$1+$1,$4,$5*
1,1,$1+$1,$6,$7*
1,1,$1+$1,$8,$9*
0 Add four rect primitives between the rounded corners*
20,1,$1+$1,$2,$3,$4,$5,0*
20,1,$1+$1,$4,$5,$6,$7,0*
20,1,$1+$1,$6,$7,$8,$9,0*
20,1,$1+$1,$8,$9,$2,$3,0*%
G04 Aperture macros list end*
%ADD10R,1.200000X1.200000*%
%ADD11RoundRect,0.200000X-0.275000X0.200000X-0.275000X-0.200000X0.275000X-0.200000X0.275000X0.200000X0*%
%ADD12RoundRect,0.225000X-0.250000X0.225000X-0.250000X-0.225000X0.250000X-0.225000X0.250000X0.225000X0*%
%ADD13RoundRect,0.218750X-0.218750X-0.381250X0.218750X-0.381250X0.218750X0.381250X-0.218750X0.381250X0*%
%ADD14RoundRect,0.218750X-0.218750X-0.256250X0.218750X-0.256250X0.218750X0.256250X-0.218750X0.256250X0*%
%ADD15RoundRect,0.225000X0.250000X-0.225000X0.250000X0.225000X-0.250000X0.225000X-0.250000X-0.225000X0*%
%ADD16RoundRect,0.150000X-0.587500X-0.150000X0.587500X-0.150000X0.587500X0.150000X-0.587500X0.150000X0*%
%ADD17RoundRect,0.225000X0.225000X0.250000X-0.225000X0.250000X-0.225000X-0.250000X0.225000X-0.250000X0*%
%ADD18RoundRect,0.102000X0.323000X-0.373000X0.323000X0.373000X-0.323000X0.373000X-0.323000X-0.373000X0*%
%ADD19RoundRect,0.250000X-0.275000X-0.250000X0.275000X-0.250000X0.275000X0.250000X-0.275000X0.250000X0*%
%ADD20RoundRect,0.250000X-0.850000X-0.275000X0.850000X-0.275000X0.850000X0.275000X-0.850000X0.275000X0*%
%ADD21RoundRect,0.250000X0.315000X-0.315000X0.315000X0.315000X-0.315000X0.315000X-0.315000X-0.315000X0*%
%ADD22RoundRect,0.062500X0.062500X-0.375000X0.062500X0.375000X-0.062500X0.375000X-0.062500X-0.375000X0*%
%ADD23RoundRect,0.062500X0.375000X-0.062500X0.375000X0.062500X-0.375000X0.062500X-0.375000X-0.062500X0*%
%ADD24RoundRect,0.150000X0.150000X-0.512500X0.150000X0.512500X-0.150000X0.512500X-0.150000X-0.512500X0*%
%ADD25RoundRect,0.200000X0.200000X0.275000X-0.200000X0.275000X-0.200000X-0.275000X0.200000X-0.275000X0*%
%ADD26RoundRect,0.218750X0.256250X-0.218750X0.256250X0.218750X-0.256250X0.218750X-0.256250X-0.218750X0*%
%ADD27R,1.500000X1.500000*%
%ADD28RoundRect,0.250000X-0.650000X0.325000X-0.650000X-0.325000X0.650000X-0.325000X0.650000X0.325000X0*%
%ADD29RoundRect,0.050000X-0.100000X0.285000X-0.100000X-0.285000X0.100000X-0.285000X0.100000X0.285000X0*%
%ADD30RoundRect,0.200000X-0.200000X-0.275000X0.200000X-0.275000X0.200000X0.275000X-0.200000X0.275000X0*%
%ADD31RoundRect,0.243750X0.456250X-0.243750X0.456250X0.243750X-0.456250X0.243750X-0.456250X-0.243750X0*%
%ADD32RoundRect,0.200000X0.275000X-0.200000X0.275000X0.200000X-0.275000X0.200000X-0.275000X-0.200000X0*%
%ADD33RoundRect,0.225000X-0.225000X-0.250000X0.225000X-0.250000X0.225000X0.250000X-0.225000X0.250000X0*%
%ADD34R,1.000000X1.800000*%
%ADD35RoundRect,0.150000X-0.350000X0.150000X-0.350000X-0.150000X0.350000X-0.150000X0.350000X0.150000X0*%
%ADD36RoundRect,0.150000X-0.425000X0.150000X-0.425000X-0.150000X0.425000X-0.150000X0.425000X0.150000X0*%
%ADD37RoundRect,0.075000X-0.500000X0.075000X-0.500000X-0.075000X0.500000X-0.075000X0.500000X0.075000X0*%
%ADD38O,2.100000X1.000000*%
%ADD39O,1.800000X1.000000*%
%ADD40RoundRect,0.150000X-0.512500X-0.150000X0.512500X-0.150000X0.512500X0.150000X-0.512500X0.150000X0*%
%ADD41RoundRect,0.041250X-0.096250X-0.308750X0.096250X-0.308750X0.096250X0.308750X-0.096250X0.308750X0*%
%ADD42RoundRect,0.036750X-0.188250X-0.085750X0.188250X-0.085750X0.188250X0.085750X-0.188250X0.085750X0*%
G04 APERTURE END LIST*
D10*
%TO.C,D2*%
X69012500Y-51290000D03*
X66212500Y-51290000D03*
%TD*%
D11*
%TO.C,R5*%
X73100000Y-56975000D03*
X73100000Y-58625000D03*
%TD*%
D12*
%TO.C,C2*%
X84800000Y-50225000D03*
X84800000Y-51775000D03*
%TD*%
D13*
%TO.C,L3*%
X90637500Y-35150000D03*
X92762500Y-35150000D03*
%TD*%
D12*
%TO.C,C9*%
X97000000Y-44525000D03*
X97000000Y-46075000D03*
%TD*%
D14*
%TO.C,L4*%
X100912500Y-43500000D03*
X102487500Y-43500000D03*
%TD*%
D15*
%TO.C,C3*%
X86700000Y-48275000D03*
X86700000Y-46725000D03*
%TD*%
D16*
%TO.C,Q1*%
X64675000Y-53790000D03*
X64675000Y-55690000D03*
X66550000Y-54740000D03*
%TD*%
D17*
%TO.C,C15*%
X88375000Y-51050000D03*
X86825000Y-51050000D03*
%TD*%
D18*
%TO.C,X2*%
X97775000Y-38925000D03*
X97775000Y-37475000D03*
X96625000Y-37475000D03*
X96625000Y-38925000D03*
%TD*%
D12*
%TO.C,C21*%
X104200000Y-43450000D03*
X104200000Y-45000000D03*
%TD*%
D19*
%TO.C,J5*%
X110250000Y-43400000D03*
D20*
X111775000Y-41925000D03*
X111775000Y-44875000D03*
%TD*%
D13*
%TO.C,L1*%
X71237500Y-51500000D03*
X73362500Y-51500000D03*
%TD*%
D21*
%TO.C,U3*%
X89800000Y-46800000D03*
X91200000Y-46800000D03*
X92600000Y-46800000D03*
X94000000Y-46800000D03*
X89800000Y-45400000D03*
X91200000Y-45400000D03*
X92600000Y-45400000D03*
X94000000Y-45400000D03*
X89800000Y-44000000D03*
X91200000Y-44000000D03*
X92600000Y-44000000D03*
X94000000Y-44000000D03*
X89800000Y-42600000D03*
X91200000Y-42600000D03*
X92600000Y-42600000D03*
X94000000Y-42600000D03*
D22*
X89150000Y-48137500D03*
X89650000Y-48137500D03*
X90150000Y-48137500D03*
X90650000Y-48137500D03*
X91150000Y-48137500D03*
X91650000Y-48137500D03*
X92150000Y-48137500D03*
X92650000Y-48137500D03*
X93150000Y-48137500D03*
X93650000Y-48137500D03*
X94150000Y-48137500D03*
X94650000Y-48137500D03*
D23*
X95337500Y-47450000D03*
X95337500Y-46950000D03*
X95337500Y-46450000D03*
X95337500Y-45950000D03*
X95337500Y-45450000D03*
X95337500Y-44950000D03*
X95337500Y-44450000D03*
X95337500Y-43950000D03*
X95337500Y-43450000D03*
X95337500Y-42950000D03*
X95337500Y-42450000D03*
X95337500Y-41950000D03*
D22*
X94650000Y-41262500D03*
X94150000Y-41262500D03*
X93650000Y-41262500D03*
X93150000Y-41262500D03*
X92650000Y-41262500D03*
X92150000Y-41262500D03*
X91650000Y-41262500D03*
X91150000Y-41262500D03*
X90650000Y-41262500D03*
X90150000Y-41262500D03*
X89650000Y-41262500D03*
X89150000Y-41262500D03*
D23*
X88462500Y-41950000D03*
X88462500Y-42450000D03*
X88462500Y-42950000D03*
X88462500Y-43450000D03*
X88462500Y-43950000D03*
X88462500Y-44450000D03*
X88462500Y-44950000D03*
X88462500Y-45450000D03*
X88462500Y-45950000D03*
X88462500Y-46450000D03*
X88462500Y-46950000D03*
X88462500Y-47450000D03*
%TD*%
D24*
%TO.C,U4*%
X80050000Y-56137500D03*
X81000000Y-56137500D03*
X81950000Y-56137500D03*
X81950000Y-53862500D03*
X80050000Y-53862500D03*
%TD*%
D17*
%TO.C,C18*%
X94025000Y-39050000D03*
X92475000Y-39050000D03*
%TD*%
D25*
%TO.C,R4*%
X76525000Y-58600000D03*
X74875000Y-58600000D03*
%TD*%
D12*
%TO.C,C19*%
X93850000Y-56175000D03*
X93850000Y-57725000D03*
%TD*%
D26*
%TO.C,L2*%
X90650000Y-39487500D03*
X90650000Y-37912500D03*
%TD*%
D27*
%TO.C,SW1*%
X97650000Y-61350000D03*
X89850000Y-61350000D03*
%TD*%
D15*
%TO.C,C12*%
X97000000Y-42475000D03*
X97000000Y-40925000D03*
%TD*%
D17*
%TO.C,C11*%
X88775000Y-37600000D03*
X87225000Y-37600000D03*
%TD*%
D28*
%TO.C,C1*%
X69050000Y-53765000D03*
X69050000Y-56715000D03*
%TD*%
D15*
%TO.C,C6*%
X84800000Y-48275000D03*
X84800000Y-46725000D03*
%TD*%
D29*
%TO.C,U1*%
X73050000Y-53520000D03*
X72550000Y-53520000D03*
X72050000Y-53520000D03*
X71550000Y-53520000D03*
X71550000Y-55000000D03*
X72050000Y-55000000D03*
X72550000Y-55000000D03*
X73050000Y-55000000D03*
%TD*%
D11*
%TO.C,R10*%
X96700000Y-56125000D03*
X96700000Y-57775000D03*
%TD*%
D30*
%TO.C,R2*%
X60775000Y-51900000D03*
X62425000Y-51900000D03*
%TD*%
D31*
%TO.C,D3*%
X102600000Y-50137500D03*
X102600000Y-48262500D03*
%TD*%
D30*
%TO.C,R1*%
X64675000Y-59000000D03*
X66325000Y-59000000D03*
%TD*%
D32*
%TO.C,R8*%
X93500000Y-52625000D03*
X93500000Y-50975000D03*
%TD*%
D30*
%TO.C,R3*%
X60675000Y-39150000D03*
X62325000Y-39150000D03*
%TD*%
D33*
%TO.C,C5*%
X97225000Y-49500000D03*
X98775000Y-49500000D03*
%TD*%
D32*
%TO.C,R7*%
X95500000Y-52625000D03*
X95500000Y-50975000D03*
%TD*%
D17*
%TO.C,C17*%
X86775000Y-55850000D03*
X85225000Y-55850000D03*
%TD*%
D34*
%TO.C,X1*%
X90150000Y-53400000D03*
X87650000Y-53400000D03*
%TD*%
D33*
%TO.C,C13*%
X80025000Y-58600000D03*
X81575000Y-58600000D03*
%TD*%
D17*
%TO.C,C8*%
X88775000Y-35800000D03*
X87225000Y-35800000D03*
%TD*%
D33*
%TO.C,C14*%
X90125000Y-51050000D03*
X91675000Y-51050000D03*
%TD*%
%TO.C,C16*%
X80000000Y-51500000D03*
X81550000Y-51500000D03*
%TD*%
D35*
%TO.C,J2*%
X62680000Y-42230000D03*
D36*
X62680000Y-43100000D03*
D37*
X62680000Y-44250000D03*
X62680000Y-45250000D03*
X62680000Y-45750000D03*
X62680000Y-46750000D03*
D36*
X62680000Y-47900000D03*
D35*
X62760000Y-48700000D03*
X62760000Y-48700000D03*
D36*
X62680000Y-47900000D03*
D37*
X62680000Y-47250000D03*
X62680000Y-46250000D03*
X62680000Y-44750000D03*
X62680000Y-43750000D03*
D36*
X62680000Y-43100000D03*
D35*
X62680000Y-42230000D03*
D38*
X62105000Y-41180000D03*
D39*
X57925000Y-41180000D03*
D38*
X62105000Y-49820000D03*
D39*
X57925000Y-49820000D03*
%TD*%
D12*
%TO.C,C20*%
X99200000Y-43450000D03*
X99200000Y-45000000D03*
%TD*%
D11*
%TO.C,R9*%
X91250000Y-56200000D03*
X91250000Y-57850000D03*
%TD*%
%TO.C,R6*%
X105000000Y-48575000D03*
X105000000Y-50225000D03*
%TD*%
D40*
%TO.C,U2*%
X68562500Y-44510000D03*
X68562500Y-45460000D03*
X68562500Y-46410000D03*
X70837500Y-46410000D03*
X70837500Y-45460000D03*
X70837500Y-44510000D03*
%TD*%
D28*
%TO.C,C7*%
X76100000Y-53725000D03*
X76100000Y-56675000D03*
%TD*%
D17*
%TO.C,C4*%
X86375000Y-43500000D03*
X84825000Y-43500000D03*
%TD*%
D10*
%TO.C,D1*%
X62112500Y-56640000D03*
X62112500Y-53840000D03*
%TD*%
D17*
%TO.C,C10*%
X88775000Y-39400000D03*
X87225000Y-39400000D03*
%TD*%
D41*
%TO.C,FLT1*%
X106500000Y-43400000D03*
D42*
X107112500Y-43169000D03*
D41*
X107725000Y-43400000D03*
D42*
X107112500Y-43624000D03*
%TD*%
M02*
