%TF.GenerationSoftware,KiCad,Pcbnew,9.0.4*%
%TF.CreationDate,2025-09-25T07:19:07+02:00*%
%TF.ProjectId,stm32_sensirion_wb,73746d33-325f-4736-956e-736972696f6e,rev?*%
%TF.SameCoordinates,Original*%
%TF.FileFunction,Soldermask,Top*%
%TF.FilePolarity,Negative*%
%FSLAX46Y46*%
G04 Gerber Fmt 4.6, Leading zero omitted, Abs format (unit mm)*
G04 Created by KiCad (PCBNEW 9.0.4) date 2025-09-25 07:19:07*
%MOMM*%
%LPD*%
G01*
G04 APERTURE LIST*
G04 Aperture macros list*
%AMRoundRect*
0 Rectangle with rounded corners*
0 $1 Rounding radius*
0 $2 $3 $4 $5 $6 $7 $8 $9 X,Y pos of 4 corners*
0 Add a 4 corners polygon primitive as box body*
4,1,4,$2,$3,$4,$5,$6,$7,$8,$9,$2,$3,0*
0 Add four circle primitives for the rounded corners*
1,1,$1+$1,$2,$3*
1,1,$1+$1,$4,$5*
1,1,$1+$1,$6,$7*
1,1,$1+$1,$8,$9*
0 Add four rect primitives between the rounded corners*
20,1,$1+$1,$2,$3,$4,$5,0*
20,1,$1+$1,$4,$5,$6,$7,0*
20,1,$1+$1,$6,$7,$8,$9,0*
20,1,$1+$1,$8,$9,$2,$3,0*%
G04 Aperture macros list end*
%ADD10R,1.200000X1.200000*%
%ADD11RoundRect,0.200000X-0.275000X0.200000X-0.275000X-0.200000X0.275000X-0.200000X0.275000X0.200000X0*%
%ADD12RoundRect,0.225000X-0.250000X0.225000X-0.250000X-0.225000X0.250000X-0.225000X0.250000X0.225000X0*%
%ADD13RoundRect,0.218750X-0.218750X-0.381250X0.218750X-0.381250X0.218750X0.381250X-0.218750X0.381250X0*%
%ADD14RoundRect,0.218750X-0.218750X-0.256250X0.218750X-0.256250X0.218750X0.256250X-0.218750X0.256250X0*%
%ADD15RoundRect,0.225000X0.250000X-0.225000X0.250000X0.225000X-0.250000X0.225000X-0.250000X-0.225000X0*%
%ADD16RoundRect,0.150000X-0.587500X-0.150000X0.587500X-0.150000X0.587500X0.150000X-0.587500X0.150000X0*%
%ADD17RoundRect,0.225000X0.225000X0.250000X-0.225000X0.250000X-0.225000X-0.250000X0.225000X-0.250000X0*%
%ADD18RoundRect,0.102000X0.323000X-0.373000X0.323000X0.373000X-0.323000X0.373000X-0.323000X-0.373000X0*%
%ADD19RoundRect,0.250000X-0.275000X-0.250000X0.275000X-0.250000X0.275000X0.250000X-0.275000X0.250000X0*%
%ADD20RoundRect,0.250000X-0.850000X-0.275000X0.850000X-0.275000X0.850000X0.275000X-0.850000X0.275000X0*%
%ADD21RoundRect,0.062500X0.062500X-0.375000X0.062500X0.375000X-0.062500X0.375000X-0.062500X-0.375000X0*%
%ADD22RoundRect,0.062500X0.375000X-0.062500X0.375000X0.062500X-0.375000X0.062500X-0.375000X-0.062500X0*%
%ADD23R,5.600000X5.600000*%
%ADD24C,0.700000*%
%ADD25C,4.400000*%
%ADD26RoundRect,0.150000X0.150000X-0.512500X0.150000X0.512500X-0.150000X0.512500X-0.150000X-0.512500X0*%
%ADD27RoundRect,0.200000X0.200000X0.275000X-0.200000X0.275000X-0.200000X-0.275000X0.200000X-0.275000X0*%
%ADD28RoundRect,0.218750X0.256250X-0.218750X0.256250X0.218750X-0.256250X0.218750X-0.256250X-0.218750X0*%
%ADD29R,1.500000X1.500000*%
%ADD30R,1.700000X1.700000*%
%ADD31C,1.700000*%
%ADD32RoundRect,0.250000X-0.650000X0.325000X-0.650000X-0.325000X0.650000X-0.325000X0.650000X0.325000X0*%
%ADD33RoundRect,0.050000X-0.100000X0.285000X-0.100000X-0.285000X0.100000X-0.285000X0.100000X0.285000X0*%
%ADD34RoundRect,0.200000X-0.200000X-0.275000X0.200000X-0.275000X0.200000X0.275000X-0.200000X0.275000X0*%
%ADD35RoundRect,0.243750X0.456250X-0.243750X0.456250X0.243750X-0.456250X0.243750X-0.456250X-0.243750X0*%
%ADD36RoundRect,0.200000X0.275000X-0.200000X0.275000X0.200000X-0.275000X0.200000X-0.275000X-0.200000X0*%
%ADD37RoundRect,0.225000X-0.225000X-0.250000X0.225000X-0.250000X0.225000X0.250000X-0.225000X0.250000X0*%
%ADD38R,1.000000X1.800000*%
%ADD39C,2.374900*%
%ADD40C,0.990600*%
%ADD41C,0.787400*%
%ADD42C,0.650000*%
%ADD43RoundRect,0.150000X-0.350000X0.150000X-0.350000X-0.150000X0.350000X-0.150000X0.350000X0.150000X0*%
%ADD44RoundRect,0.150000X-0.425000X0.150000X-0.425000X-0.150000X0.425000X-0.150000X0.425000X0.150000X0*%
%ADD45RoundRect,0.075000X-0.500000X0.075000X-0.500000X-0.075000X0.500000X-0.075000X0.500000X0.075000X0*%
%ADD46O,2.100000X1.000000*%
%ADD47O,1.800000X1.000000*%
%ADD48RoundRect,0.150000X-0.512500X-0.150000X0.512500X-0.150000X0.512500X0.150000X-0.512500X0.150000X0*%
%ADD49RoundRect,0.041250X-0.096250X-0.308750X0.096250X-0.308750X0.096250X0.308750X-0.096250X0.308750X0*%
%ADD50RoundRect,0.036750X-0.188250X-0.085750X0.188250X-0.085750X0.188250X0.085750X-0.188250X0.085750X0*%
G04 APERTURE END LIST*
%TO.C,J5*%
G36*
X110785000Y-42460000D02*
G01*
X112875000Y-42460000D01*
X112875000Y-44340000D01*
X110785000Y-44340000D01*
X110785000Y-42460000D01*
G37*
%TD*%
D10*
%TO.C,D2*%
X69012500Y-51290000D03*
X66212500Y-51290000D03*
%TD*%
D11*
%TO.C,R5*%
X73100000Y-56975000D03*
X73100000Y-58625000D03*
%TD*%
D12*
%TO.C,C2*%
X84800000Y-50225000D03*
X84800000Y-51775000D03*
%TD*%
D13*
%TO.C,L3*%
X90637500Y-35150000D03*
X92762500Y-35150000D03*
%TD*%
D12*
%TO.C,C9*%
X97000000Y-44525000D03*
X97000000Y-46075000D03*
%TD*%
D14*
%TO.C,L4*%
X100912500Y-43500000D03*
X102487500Y-43500000D03*
%TD*%
D15*
%TO.C,C3*%
X86700000Y-48275000D03*
X86700000Y-46725000D03*
%TD*%
D16*
%TO.C,Q1*%
X64675000Y-53790000D03*
X64675000Y-55690000D03*
X66550000Y-54740000D03*
%TD*%
D17*
%TO.C,C15*%
X88375000Y-51050000D03*
X86825000Y-51050000D03*
%TD*%
D18*
%TO.C,X2*%
X97775000Y-38925000D03*
X97775000Y-37475000D03*
X96625000Y-37475000D03*
X96625000Y-38925000D03*
%TD*%
D12*
%TO.C,C21*%
X104200000Y-43450000D03*
X104200000Y-45000000D03*
%TD*%
D19*
%TO.C,J5*%
X110250000Y-43400000D03*
D20*
X111775000Y-41925000D03*
X111775000Y-44875000D03*
%TD*%
D13*
%TO.C,L1*%
X71237500Y-51500000D03*
X73362500Y-51500000D03*
%TD*%
D21*
%TO.C,U3*%
X89150000Y-48137500D03*
X89650000Y-48137500D03*
X90150000Y-48137500D03*
X90650000Y-48137500D03*
X91150000Y-48137500D03*
X91650000Y-48137500D03*
X92150000Y-48137500D03*
X92650000Y-48137500D03*
X93150000Y-48137500D03*
X93650000Y-48137500D03*
X94150000Y-48137500D03*
X94650000Y-48137500D03*
D22*
X95337500Y-47450000D03*
X95337500Y-46950000D03*
X95337500Y-46450000D03*
X95337500Y-45950000D03*
X95337500Y-45450000D03*
X95337500Y-44950000D03*
X95337500Y-44450000D03*
X95337500Y-43950000D03*
X95337500Y-43450000D03*
X95337500Y-42950000D03*
X95337500Y-42450000D03*
X95337500Y-41950000D03*
D21*
X94650000Y-41262500D03*
X94150000Y-41262500D03*
X93650000Y-41262500D03*
X93150000Y-41262500D03*
X92650000Y-41262500D03*
X92150000Y-41262500D03*
X91650000Y-41262500D03*
X91150000Y-41262500D03*
X90650000Y-41262500D03*
X90150000Y-41262500D03*
X89650000Y-41262500D03*
X89150000Y-41262500D03*
D22*
X88462500Y-41950000D03*
X88462500Y-42450000D03*
X88462500Y-42950000D03*
X88462500Y-43450000D03*
X88462500Y-43950000D03*
X88462500Y-44450000D03*
X88462500Y-44950000D03*
X88462500Y-45450000D03*
X88462500Y-45950000D03*
X88462500Y-46450000D03*
X88462500Y-46950000D03*
X88462500Y-47450000D03*
D23*
X91900000Y-44700000D03*
%TD*%
D24*
%TO.C,H1*%
X110600000Y-34750000D03*
X111083274Y-33583274D03*
X111083274Y-35916726D03*
X112250000Y-33100000D03*
D25*
X112250000Y-34750000D03*
D24*
X112250000Y-36400000D03*
X113416726Y-33583274D03*
X113416726Y-35916726D03*
X113900000Y-34750000D03*
%TD*%
D26*
%TO.C,U4*%
X80050000Y-56137500D03*
X81000000Y-56137500D03*
X81950000Y-56137500D03*
X81950000Y-53862500D03*
X80050000Y-53862500D03*
%TD*%
D17*
%TO.C,C18*%
X94025000Y-39050000D03*
X92475000Y-39050000D03*
%TD*%
D27*
%TO.C,R4*%
X76525000Y-58600000D03*
X74875000Y-58600000D03*
%TD*%
D12*
%TO.C,C19*%
X93850000Y-56175000D03*
X93850000Y-57725000D03*
%TD*%
D28*
%TO.C,L2*%
X90650000Y-39487500D03*
X90650000Y-37912500D03*
%TD*%
D29*
%TO.C,SW1*%
X97650000Y-61350000D03*
X89850000Y-61350000D03*
%TD*%
D15*
%TO.C,C12*%
X97000000Y-42475000D03*
X97000000Y-40925000D03*
%TD*%
D17*
%TO.C,C11*%
X88775000Y-37600000D03*
X87225000Y-37600000D03*
%TD*%
D24*
%TO.C,H2*%
X57100000Y-60250000D03*
X57583274Y-59083274D03*
X57583274Y-61416726D03*
X58750000Y-58600000D03*
D25*
X58750000Y-60250000D03*
D24*
X58750000Y-61900000D03*
X59916726Y-59083274D03*
X59916726Y-61416726D03*
X60400000Y-60250000D03*
%TD*%
D30*
%TO.C,J3*%
X108300000Y-48370000D03*
D31*
X108300000Y-50910000D03*
X108300000Y-53450000D03*
X108300000Y-55990000D03*
X108300000Y-58530000D03*
X108300000Y-61070000D03*
%TD*%
D32*
%TO.C,C1*%
X69050000Y-53765000D03*
X69050000Y-56715000D03*
%TD*%
D15*
%TO.C,C6*%
X84800000Y-48275000D03*
X84800000Y-46725000D03*
%TD*%
D33*
%TO.C,U1*%
X73050000Y-53520000D03*
X72550000Y-53520000D03*
X72050000Y-53520000D03*
X71550000Y-53520000D03*
X71550000Y-55000000D03*
X72050000Y-55000000D03*
X72550000Y-55000000D03*
X73050000Y-55000000D03*
%TD*%
D11*
%TO.C,R10*%
X96700000Y-56125000D03*
X96700000Y-57775000D03*
%TD*%
D34*
%TO.C,R2*%
X60775000Y-51900000D03*
X62425000Y-51900000D03*
%TD*%
D35*
%TO.C,D3*%
X102600000Y-50137500D03*
X102600000Y-48262500D03*
%TD*%
D34*
%TO.C,R1*%
X64675000Y-59000000D03*
X66325000Y-59000000D03*
%TD*%
D36*
%TO.C,R8*%
X93500000Y-52625000D03*
X93500000Y-50975000D03*
%TD*%
D34*
%TO.C,R3*%
X60675000Y-39150000D03*
X62325000Y-39150000D03*
%TD*%
D37*
%TO.C,C5*%
X97225000Y-49500000D03*
X98775000Y-49500000D03*
%TD*%
D36*
%TO.C,R7*%
X95500000Y-52625000D03*
X95500000Y-50975000D03*
%TD*%
D17*
%TO.C,C17*%
X86775000Y-55850000D03*
X85225000Y-55850000D03*
%TD*%
D38*
%TO.C,X1*%
X90150000Y-53400000D03*
X87650000Y-53400000D03*
%TD*%
D37*
%TO.C,C13*%
X80025000Y-58600000D03*
X81575000Y-58600000D03*
%TD*%
D17*
%TO.C,C8*%
X88775000Y-35800000D03*
X87225000Y-35800000D03*
%TD*%
D39*
%TO.C,J4*%
X81175000Y-42830000D03*
D40*
X78635000Y-42830000D03*
D39*
X76095000Y-42830000D03*
X81175000Y-46005000D03*
X76095000Y-46005000D03*
D40*
X79651000Y-47910000D03*
X77619000Y-47910000D03*
D41*
X78000000Y-44100000D03*
X79270000Y-44100000D03*
X78000000Y-45370000D03*
X79270000Y-45370000D03*
X78000000Y-46640000D03*
X79270000Y-46640000D03*
%TD*%
D37*
%TO.C,C14*%
X90125000Y-51050000D03*
X91675000Y-51050000D03*
%TD*%
D30*
%TO.C,J1*%
X59625000Y-35200000D03*
D31*
X62165000Y-35200000D03*
%TD*%
D37*
%TO.C,C16*%
X80000000Y-51500000D03*
X81550000Y-51500000D03*
%TD*%
D42*
%TO.C,J2*%
X61605000Y-42610000D03*
X61605000Y-48390000D03*
D43*
X62680000Y-42230000D03*
D44*
X62680000Y-43100000D03*
D45*
X62680000Y-44250000D03*
X62680000Y-45250000D03*
X62680000Y-45750000D03*
X62680000Y-46750000D03*
D44*
X62680000Y-47900000D03*
D43*
X62760000Y-48700000D03*
X62760000Y-48700000D03*
D44*
X62680000Y-47900000D03*
D45*
X62680000Y-47250000D03*
X62680000Y-46250000D03*
X62680000Y-44750000D03*
X62680000Y-43750000D03*
D44*
X62680000Y-43100000D03*
D43*
X62680000Y-42230000D03*
D46*
X62105000Y-41180000D03*
D47*
X57925000Y-41180000D03*
D46*
X62105000Y-49820000D03*
D47*
X57925000Y-49820000D03*
%TD*%
D12*
%TO.C,C20*%
X99200000Y-43450000D03*
X99200000Y-45000000D03*
%TD*%
D11*
%TO.C,R9*%
X91250000Y-56200000D03*
X91250000Y-57850000D03*
%TD*%
%TO.C,R6*%
X105000000Y-48575000D03*
X105000000Y-50225000D03*
%TD*%
D48*
%TO.C,U2*%
X68562500Y-44510000D03*
X68562500Y-45460000D03*
X68562500Y-46410000D03*
X70837500Y-46410000D03*
X70837500Y-45460000D03*
X70837500Y-44510000D03*
%TD*%
D32*
%TO.C,C7*%
X76100000Y-53725000D03*
X76100000Y-56675000D03*
%TD*%
D17*
%TO.C,C4*%
X86375000Y-43500000D03*
X84825000Y-43500000D03*
%TD*%
D10*
%TO.C,D1*%
X62112500Y-56640000D03*
X62112500Y-53840000D03*
%TD*%
D17*
%TO.C,C10*%
X88775000Y-39400000D03*
X87225000Y-39400000D03*
%TD*%
D49*
%TO.C,FLT1*%
X106500000Y-43400000D03*
D50*
X107112500Y-43169000D03*
D49*
X107725000Y-43400000D03*
D50*
X107112500Y-43624000D03*
%TD*%
M02*
