M48
; DRILL file {KiCad 9.0.4} date 2025-09-25T07:19:10+0200
; FORMAT={-:-/ absolute / metric / decimal}
; #@! TF.CreationDate,2025-09-25T07:19:10+02:00
; #@! TF.GenerationSoftware,Kicad,Pcbnew,9.0.4
; #@! TF.FileFunction,Plated,1,4,PTH
FMAT,2
METRIC
; #@! TA.AperFunction,Plated,PTH,ViaDrill
T1C0.250
; #@! TA.AperFunction,Plated,PTH,ViaDrill
T2C0.300
; #@! TA.AperFunction,Plated,PTH,ViaDrill
T3C0.400
; #@! TA.AperFunction,Plated,PTH,ComponentDrill
T4C0.400
; #@! TA.AperFunction,Plated,PTH,ComponentDrill
T5C0.600
; #@! TA.AperFunction,Plated,PTH,ComponentDrill
T6C1.000
; #@! TA.AperFunction,Plated,PTH,ComponentDrill
T7C2.200
%
G90
G05
T1
X71.1Y-56.0
X72.4Y-55.9
X77.8Y-41.9
X78.5Y-51.0
X78.5Y-52.0
X78.5Y-53.85
X83.6Y-48.3
X83.9Y-49.2
X88.0Y-61.3
X88.2Y-34.4
X89.3Y-34.4
X92.289Y-49.175
X96.0Y-49.5
X98.3Y-46.7
X98.6Y-42.0
T2
X57.0Y-45.5
X58.0Y-43.25
X58.0Y-47.75
X58.75Y-45.5
X63.3Y-39.15
X63.75Y-51.9
X64.2Y-48.7
X64.3Y-42.3
X67.1Y-45.5
X67.7Y-58.2
X67.7Y-59.6
X69.1Y-58.2
X69.1Y-59.6
X70.5Y-58.2
X70.5Y-59.6
X72.3Y-59.9
X73.7Y-59.9
X76.1Y-55.45
X76.5Y-47.8
X77.8Y-55.5
X77.8Y-56.7
X77.8Y-57.8
X81.0Y-57.4
X82.7Y-51.1
X82.7Y-52.0
X82.8Y-58.0
X82.8Y-59.4
X83.581Y-43.5
X84.8Y-45.6
X84.8Y-53.012
X85.225Y-56.95
X85.981Y-39.4
X86.081Y-35.8
X86.081Y-37.6
X86.75Y-45.6
X86.8Y-51.95
X88.1Y-55.85
X88.1Y-57.25
X89.8Y-42.6
X89.8Y-44.6
X89.8Y-46.8
X91.0Y-43.7
X91.0Y-45.7
X91.25Y-58.9
X91.7Y-51.95
X91.8Y-42.6
X91.8Y-46.8
X92.7Y-43.7
X92.9Y-45.8
X93.5Y-40.2
X93.85Y-58.9
X94.0Y-42.6
X94.0Y-44.7
X94.0Y-46.8
X94.4Y-40.2
X95.7Y-38.9
X97.0Y-47.15
X97.8Y-36.181
X98.2Y-40.925
X99.2Y-46.2
X100.019Y-49.5
X104.2Y-46.2
X105.0Y-47.5
X107.1Y-42.2
X107.1Y-44.5
X109.15Y-59.85
X109.25Y-52.1
X110.4Y-40.5
X110.4Y-45.9
X111.8Y-40.5
X111.8Y-45.9
X113.2Y-40.5
X113.3Y-45.9
T3
X57.5Y-33.0
X57.5Y-55.0
X60.5Y-33.0
X62.5Y-62.0
X63.5Y-33.0
X65.5Y-62.0
X66.5Y-33.0
X66.5Y-38.0
X68.0Y-40.5
X68.5Y-62.0
X69.5Y-33.0
X69.5Y-38.0
X71.0Y-40.5
X71.5Y-62.0
X72.5Y-33.0
X72.5Y-38.0
X73.0Y-48.0
X74.5Y-62.0
X75.5Y-33.0
X75.5Y-38.0
X76.0Y-51.0
X77.5Y-62.0
X78.5Y-33.0
X78.5Y-38.0
X81.5Y-33.0
X81.5Y-38.0
X84.5Y-33.0
X85.3Y-42.2
X95.5Y-33.0
X99.0Y-33.0
X100.5Y-35.5
X101.5Y-58.0
X102.0Y-33.0
X102.0Y-38.0
X103.0Y-60.5
X103.5Y-35.5
X104.5Y-58.0
X105.0Y-33.0
X105.0Y-38.0
X106.0Y-60.5
X106.5Y-35.5
X108.0Y-33.0
X108.0Y-38.0
X111.0Y-38.0
T4
X57.1Y-60.25
X57.583Y-59.083
X57.583Y-61.417
X58.75Y-58.6
X58.75Y-61.9
X59.917Y-59.083
X59.917Y-61.417
X60.4Y-60.25
X110.6Y-34.75
X111.083Y-33.583
X111.083Y-35.917
X112.25Y-33.1
X112.25Y-36.4
X113.417Y-33.583
X113.417Y-35.917
X113.9Y-34.75
T6
X59.625Y-35.2
X62.165Y-35.2
X108.3Y-48.37
X108.3Y-50.91
X108.3Y-53.45
X108.3Y-55.99
X108.3Y-58.53
X108.3Y-61.07
T7
X58.75Y-60.25
X112.25Y-34.75
T5
G00X58.325Y-41.18
M15
G01X57.525Y-41.18
M16
G05
G00X58.325Y-49.82
M15
G01X57.525Y-49.82
M16
G05
G00X62.655Y-41.18
M15
G01X61.555Y-41.18
M16
G05
G00X62.655Y-49.82
M15
G01X61.555Y-49.82
M16
G05
M30
