%TF.GenerationSoftware,KiCad,Pcbnew,9.0.4*%
%TF.CreationDate,2025-09-25T07:19:07+02:00*%
%TF.ProjectId,stm32_sensirion_wb,73746d33-325f-4736-956e-736972696f6e,rev?*%
%TF.SameCoordinates,Original*%
%TF.FileFunction,Legend,Top*%
%TF.FilePolarity,Positive*%
%FSLAX46Y46*%
G04 Gerber Fmt 4.6, Leading zero omitted, Abs format (unit mm)*
G04 Created by KiCad (PCBNEW 9.0.4) date 2025-09-25 07:19:07*
%MOMM*%
%LPD*%
G01*
G04 APERTURE LIST*
%ADD10C,0.150000*%
%ADD11C,0.100000*%
%ADD12C,0.300000*%
%ADD13C,0.120000*%
%ADD14C,0.400000*%
G04 APERTURE END LIST*
D10*
G36*
X112029598Y-53082990D02*
G01*
X112103711Y-53157103D01*
X112142204Y-53234090D01*
X112185588Y-53407624D01*
X112185588Y-53532013D01*
X112142204Y-53705547D01*
X112103710Y-53782534D01*
X112029598Y-53856647D01*
X111915085Y-53894819D01*
X111764160Y-53894819D01*
X111764160Y-53044819D01*
X111915085Y-53044819D01*
X112029598Y-53082990D01*
G37*
G36*
X113013674Y-53609104D02*
G01*
X112745598Y-53609104D01*
X112879636Y-53206989D01*
X113013674Y-53609104D01*
G37*
G36*
X113398491Y-54155930D02*
G01*
X110503049Y-54155930D01*
X110503049Y-53160295D01*
X110614160Y-53160295D01*
X110614160Y-53255533D01*
X110615601Y-53270165D01*
X110616632Y-53272654D01*
X110616823Y-53275342D01*
X110622078Y-53289074D01*
X110669697Y-53384312D01*
X110673661Y-53390611D01*
X110674419Y-53392439D01*
X110676107Y-53394495D01*
X110677529Y-53396755D01*
X110679027Y-53398054D01*
X110683746Y-53403804D01*
X110731365Y-53451423D01*
X110737114Y-53456141D01*
X110738414Y-53457640D01*
X110740673Y-53459061D01*
X110742730Y-53460750D01*
X110744557Y-53461507D01*
X110750857Y-53465472D01*
X110846095Y-53513091D01*
X110847164Y-53513500D01*
X110847600Y-53513823D01*
X110853736Y-53516015D01*
X110859826Y-53518346D01*
X110860366Y-53518384D01*
X110861446Y-53518770D01*
X111043936Y-53564392D01*
X111120923Y-53602886D01*
X111151330Y-53633293D01*
X111185588Y-53701809D01*
X111185588Y-53761637D01*
X111151329Y-53830153D01*
X111120922Y-53860561D01*
X111052407Y-53894819D01*
X110844187Y-53894819D01*
X110712877Y-53851049D01*
X110698540Y-53847789D01*
X110669350Y-53849864D01*
X110643177Y-53862950D01*
X110624003Y-53885057D01*
X110614749Y-53912820D01*
X110616824Y-53942010D01*
X110629910Y-53968183D01*
X110652017Y-53987357D01*
X110665443Y-53993351D01*
X110808299Y-54040970D01*
X110815554Y-54042619D01*
X110817385Y-54043378D01*
X110820038Y-54043639D01*
X110822636Y-54044230D01*
X110824610Y-54044089D01*
X110832017Y-54044819D01*
X111070112Y-54044819D01*
X111084744Y-54043378D01*
X111087233Y-54042346D01*
X111089921Y-54042156D01*
X111103653Y-54036901D01*
X111198891Y-53989282D01*
X111205190Y-53985317D01*
X111207018Y-53984560D01*
X111209074Y-53982872D01*
X111211334Y-53981450D01*
X111212634Y-53979950D01*
X111218384Y-53975232D01*
X111266002Y-53927613D01*
X111270720Y-53921863D01*
X111272219Y-53920564D01*
X111273640Y-53918305D01*
X111275330Y-53916247D01*
X111276087Y-53914417D01*
X111280051Y-53908121D01*
X111327670Y-53812883D01*
X111332925Y-53799152D01*
X111333116Y-53796462D01*
X111334147Y-53793974D01*
X111335588Y-53779342D01*
X111335588Y-53684104D01*
X111334147Y-53669472D01*
X111333116Y-53666983D01*
X111332925Y-53664294D01*
X111327670Y-53650563D01*
X111280051Y-53555325D01*
X111276086Y-53549025D01*
X111275329Y-53547198D01*
X111273640Y-53545141D01*
X111272219Y-53542882D01*
X111270720Y-53541582D01*
X111266002Y-53535833D01*
X111218383Y-53488214D01*
X111212633Y-53483495D01*
X111211334Y-53481997D01*
X111209074Y-53480575D01*
X111207018Y-53478887D01*
X111205190Y-53478129D01*
X111198891Y-53474165D01*
X111103653Y-53426546D01*
X111102583Y-53426136D01*
X111102148Y-53425814D01*
X111096002Y-53423618D01*
X111089921Y-53421291D01*
X111089381Y-53421252D01*
X111088302Y-53420867D01*
X110905812Y-53375244D01*
X110828825Y-53336751D01*
X110798418Y-53306344D01*
X110764160Y-53237828D01*
X110764160Y-53178000D01*
X110798418Y-53109484D01*
X110828825Y-53079077D01*
X110897341Y-53044819D01*
X111105561Y-53044819D01*
X111236870Y-53088589D01*
X111251207Y-53091849D01*
X111280397Y-53089774D01*
X111306571Y-53076688D01*
X111325745Y-53054580D01*
X111334999Y-53026818D01*
X111332924Y-52997628D01*
X111319837Y-52971455D01*
X111317951Y-52969819D01*
X111614160Y-52969819D01*
X111614160Y-53969819D01*
X111615601Y-53984451D01*
X111626800Y-54011487D01*
X111647492Y-54032179D01*
X111674528Y-54043378D01*
X111689160Y-54044819D01*
X111927255Y-54044819D01*
X111934660Y-54044089D01*
X111936635Y-54044230D01*
X111939232Y-54043639D01*
X111941887Y-54043378D01*
X111943718Y-54042619D01*
X111950972Y-54040970D01*
X112093829Y-53993351D01*
X112107254Y-53987357D01*
X112109289Y-53985591D01*
X112111780Y-53984560D01*
X112123145Y-53975233D01*
X112137939Y-53960439D01*
X112471892Y-53960439D01*
X112473967Y-53989629D01*
X112487053Y-54015802D01*
X112509160Y-54034976D01*
X112536923Y-54044230D01*
X112566113Y-54042155D01*
X112592286Y-54029069D01*
X112611460Y-54006962D01*
X112617454Y-53993536D01*
X112695598Y-53759104D01*
X113063674Y-53759104D01*
X113141818Y-53993536D01*
X113147812Y-54006961D01*
X113166986Y-54029068D01*
X113193159Y-54042155D01*
X113222349Y-54044230D01*
X113250111Y-54034976D01*
X113272219Y-54015802D01*
X113285305Y-53989628D01*
X113287380Y-53960438D01*
X113284120Y-53946102D01*
X112950787Y-52946102D01*
X112944793Y-52932676D01*
X112941281Y-52928627D01*
X112938886Y-52923836D01*
X112931782Y-52917674D01*
X112925619Y-52910569D01*
X112920825Y-52908172D01*
X112916778Y-52904662D01*
X112907856Y-52901688D01*
X112899446Y-52897483D01*
X112894101Y-52897103D01*
X112889016Y-52895408D01*
X112879636Y-52896074D01*
X112870256Y-52895408D01*
X112865170Y-52897103D01*
X112859826Y-52897483D01*
X112851418Y-52901687D01*
X112842493Y-52904662D01*
X112838442Y-52908175D01*
X112833653Y-52910570D01*
X112827494Y-52917670D01*
X112820386Y-52923836D01*
X112817989Y-52928629D01*
X112814479Y-52932677D01*
X112808485Y-52946102D01*
X112475152Y-53946102D01*
X112471892Y-53960439D01*
X112137939Y-53960439D01*
X112218384Y-53879993D01*
X112223101Y-53874244D01*
X112224600Y-53872945D01*
X112226021Y-53870686D01*
X112227711Y-53868628D01*
X112228468Y-53866798D01*
X112232432Y-53860502D01*
X112280051Y-53765264D01*
X112280460Y-53764194D01*
X112280783Y-53763759D01*
X112282975Y-53757622D01*
X112285306Y-53751533D01*
X112285344Y-53750992D01*
X112285730Y-53749913D01*
X112333349Y-53559437D01*
X112333724Y-53556900D01*
X112334147Y-53555879D01*
X112334689Y-53550366D01*
X112335499Y-53544893D01*
X112335336Y-53543800D01*
X112335588Y-53541247D01*
X112335588Y-53398390D01*
X112335336Y-53395836D01*
X112335499Y-53394744D01*
X112334689Y-53389270D01*
X112334147Y-53383758D01*
X112333724Y-53382736D01*
X112333349Y-53380200D01*
X112285730Y-53189724D01*
X112285344Y-53188644D01*
X112285306Y-53188104D01*
X112282975Y-53182014D01*
X112280783Y-53175878D01*
X112280460Y-53175442D01*
X112280051Y-53174373D01*
X112232432Y-53079135D01*
X112228469Y-53072840D01*
X112227711Y-53071008D01*
X112226019Y-53068946D01*
X112224600Y-53066692D01*
X112223103Y-53065393D01*
X112218383Y-53059643D01*
X112123145Y-52964405D01*
X112111780Y-52955078D01*
X112109289Y-52954046D01*
X112107254Y-52952281D01*
X112093829Y-52946287D01*
X111950972Y-52898668D01*
X111943718Y-52897018D01*
X111941887Y-52896260D01*
X111939232Y-52895998D01*
X111936635Y-52895408D01*
X111934660Y-52895548D01*
X111927255Y-52894819D01*
X111689160Y-52894819D01*
X111674528Y-52896260D01*
X111647492Y-52907459D01*
X111626800Y-52928151D01*
X111615601Y-52955187D01*
X111614160Y-52969819D01*
X111317951Y-52969819D01*
X111297730Y-52952281D01*
X111284305Y-52946287D01*
X111141448Y-52898668D01*
X111134194Y-52897018D01*
X111132363Y-52896260D01*
X111129708Y-52895998D01*
X111127111Y-52895408D01*
X111125136Y-52895548D01*
X111117731Y-52894819D01*
X110879636Y-52894819D01*
X110865004Y-52896260D01*
X110862515Y-52897290D01*
X110859826Y-52897482D01*
X110846095Y-52902737D01*
X110750857Y-52950356D01*
X110744557Y-52954320D01*
X110742730Y-52955078D01*
X110740673Y-52956766D01*
X110738414Y-52958188D01*
X110737114Y-52959686D01*
X110731365Y-52964405D01*
X110683746Y-53012024D01*
X110679027Y-53017773D01*
X110677529Y-53019073D01*
X110676107Y-53021332D01*
X110674419Y-53023389D01*
X110673661Y-53025216D01*
X110669697Y-53031516D01*
X110622078Y-53126754D01*
X110616823Y-53140486D01*
X110616632Y-53143173D01*
X110615601Y-53145663D01*
X110614160Y-53160295D01*
X110503049Y-53160295D01*
X110503049Y-52783708D01*
X113398491Y-52783708D01*
X113398491Y-54155930D01*
G37*
G36*
X113450020Y-49055930D02*
G01*
X110508400Y-49055930D01*
X110508400Y-47879199D01*
X110619511Y-47879199D01*
X110622771Y-47893536D01*
X110956104Y-48893536D01*
X110962098Y-48906961D01*
X110965608Y-48911008D01*
X110968005Y-48915802D01*
X110975113Y-48921967D01*
X110981272Y-48929068D01*
X110986061Y-48931462D01*
X110990112Y-48934976D01*
X110999037Y-48937950D01*
X111007445Y-48942155D01*
X111012789Y-48942534D01*
X111017875Y-48944230D01*
X111027255Y-48943563D01*
X111036635Y-48944230D01*
X111041720Y-48942534D01*
X111047065Y-48942155D01*
X111055475Y-48937949D01*
X111064397Y-48934976D01*
X111068444Y-48931465D01*
X111073238Y-48929069D01*
X111079401Y-48921963D01*
X111086505Y-48915802D01*
X111088900Y-48911010D01*
X111092412Y-48906962D01*
X111098406Y-48893536D01*
X111296788Y-48298390D01*
X111571303Y-48298390D01*
X111571303Y-48441247D01*
X111571554Y-48443800D01*
X111571392Y-48444893D01*
X111572201Y-48450366D01*
X111572744Y-48455879D01*
X111573166Y-48456900D01*
X111573542Y-48459437D01*
X111621161Y-48649913D01*
X111621546Y-48650992D01*
X111621585Y-48651532D01*
X111623912Y-48657613D01*
X111626108Y-48663759D01*
X111626430Y-48664194D01*
X111626840Y-48665264D01*
X111674459Y-48760502D01*
X111678422Y-48766798D01*
X111679180Y-48768628D01*
X111680869Y-48770686D01*
X111682291Y-48772945D01*
X111683789Y-48774244D01*
X111688508Y-48779994D01*
X111783746Y-48875233D01*
X111795111Y-48884561D01*
X111797601Y-48885592D01*
X111799636Y-48887357D01*
X111813062Y-48893351D01*
X111955918Y-48940970D01*
X111963173Y-48942619D01*
X111965004Y-48943378D01*
X111967657Y-48943639D01*
X111970255Y-48944230D01*
X111972229Y-48944089D01*
X111979636Y-48944819D01*
X112074874Y-48944819D01*
X112082279Y-48944089D01*
X112084254Y-48944230D01*
X112086851Y-48943639D01*
X112089506Y-48943378D01*
X112091337Y-48942619D01*
X112098591Y-48940970D01*
X112241448Y-48893351D01*
X112254873Y-48887357D01*
X112256908Y-48885591D01*
X112259399Y-48884560D01*
X112270765Y-48875232D01*
X112318383Y-48827613D01*
X112327711Y-48816247D01*
X112338909Y-48789211D01*
X112338909Y-48759948D01*
X112327710Y-48732912D01*
X112307017Y-48712219D01*
X112279981Y-48701021D01*
X112250718Y-48701021D01*
X112223682Y-48712220D01*
X112212316Y-48721548D01*
X112177217Y-48756647D01*
X112062704Y-48794819D01*
X111991806Y-48794819D01*
X111877293Y-48756648D01*
X111803180Y-48682534D01*
X111764686Y-48605547D01*
X111721303Y-48432013D01*
X111721303Y-48307624D01*
X111723611Y-48298390D01*
X112571303Y-48298390D01*
X112571303Y-48441247D01*
X112571554Y-48443800D01*
X112571392Y-48444893D01*
X112572201Y-48450366D01*
X112572744Y-48455879D01*
X112573166Y-48456900D01*
X112573542Y-48459437D01*
X112621161Y-48649913D01*
X112621546Y-48650992D01*
X112621585Y-48651532D01*
X112623912Y-48657613D01*
X112626108Y-48663759D01*
X112626430Y-48664194D01*
X112626840Y-48665264D01*
X112674459Y-48760502D01*
X112678422Y-48766798D01*
X112679180Y-48768628D01*
X112680869Y-48770686D01*
X112682291Y-48772945D01*
X112683789Y-48774244D01*
X112688508Y-48779994D01*
X112783746Y-48875233D01*
X112795111Y-48884561D01*
X112797601Y-48885592D01*
X112799636Y-48887357D01*
X112813062Y-48893351D01*
X112955918Y-48940970D01*
X112963173Y-48942619D01*
X112965004Y-48943378D01*
X112967657Y-48943639D01*
X112970255Y-48944230D01*
X112972229Y-48944089D01*
X112979636Y-48944819D01*
X113074874Y-48944819D01*
X113082279Y-48944089D01*
X113084254Y-48944230D01*
X113086851Y-48943639D01*
X113089506Y-48943378D01*
X113091337Y-48942619D01*
X113098591Y-48940970D01*
X113241448Y-48893351D01*
X113254873Y-48887357D01*
X113256908Y-48885591D01*
X113259399Y-48884560D01*
X113270765Y-48875232D01*
X113318383Y-48827613D01*
X113327711Y-48816247D01*
X113338909Y-48789211D01*
X113338909Y-48759948D01*
X113327710Y-48732912D01*
X113307017Y-48712219D01*
X113279981Y-48701021D01*
X113250718Y-48701021D01*
X113223682Y-48712220D01*
X113212316Y-48721548D01*
X113177217Y-48756647D01*
X113062704Y-48794819D01*
X112991806Y-48794819D01*
X112877293Y-48756648D01*
X112803180Y-48682534D01*
X112764686Y-48605547D01*
X112721303Y-48432013D01*
X112721303Y-48307624D01*
X112764686Y-48134090D01*
X112803180Y-48057103D01*
X112877293Y-47982990D01*
X112991806Y-47944819D01*
X113062704Y-47944819D01*
X113177217Y-47982990D01*
X113212317Y-48018090D01*
X113223682Y-48027417D01*
X113250718Y-48038616D01*
X113279981Y-48038616D01*
X113307017Y-48027417D01*
X113327710Y-48006724D01*
X113338909Y-47979688D01*
X113338909Y-47950425D01*
X113327710Y-47923389D01*
X113318383Y-47912024D01*
X113270764Y-47864405D01*
X113259399Y-47855078D01*
X113256908Y-47854046D01*
X113254873Y-47852281D01*
X113241448Y-47846287D01*
X113098591Y-47798668D01*
X113091337Y-47797018D01*
X113089506Y-47796260D01*
X113086851Y-47795998D01*
X113084254Y-47795408D01*
X113082279Y-47795548D01*
X113074874Y-47794819D01*
X112979636Y-47794819D01*
X112972229Y-47795548D01*
X112970255Y-47795408D01*
X112967657Y-47795998D01*
X112965004Y-47796260D01*
X112963173Y-47797018D01*
X112955918Y-47798668D01*
X112813062Y-47846287D01*
X112799636Y-47852281D01*
X112797601Y-47854045D01*
X112795111Y-47855077D01*
X112783746Y-47864405D01*
X112688508Y-47959643D01*
X112683789Y-47965392D01*
X112682291Y-47966692D01*
X112680869Y-47968951D01*
X112679181Y-47971008D01*
X112678423Y-47972835D01*
X112674459Y-47979135D01*
X112626840Y-48074373D01*
X112626430Y-48075442D01*
X112626108Y-48075878D01*
X112623912Y-48082023D01*
X112621585Y-48088105D01*
X112621546Y-48088644D01*
X112621161Y-48089724D01*
X112573542Y-48280200D01*
X112573166Y-48282736D01*
X112572744Y-48283758D01*
X112572201Y-48289270D01*
X112571392Y-48294744D01*
X112571554Y-48295836D01*
X112571303Y-48298390D01*
X111723611Y-48298390D01*
X111764686Y-48134090D01*
X111803180Y-48057103D01*
X111877293Y-47982990D01*
X111991806Y-47944819D01*
X112062704Y-47944819D01*
X112177217Y-47982990D01*
X112212317Y-48018090D01*
X112223682Y-48027417D01*
X112250718Y-48038616D01*
X112279981Y-48038616D01*
X112307017Y-48027417D01*
X112327710Y-48006724D01*
X112338909Y-47979688D01*
X112338909Y-47950425D01*
X112327710Y-47923389D01*
X112318383Y-47912024D01*
X112270764Y-47864405D01*
X112259399Y-47855078D01*
X112256908Y-47854046D01*
X112254873Y-47852281D01*
X112241448Y-47846287D01*
X112098591Y-47798668D01*
X112091337Y-47797018D01*
X112089506Y-47796260D01*
X112086851Y-47795998D01*
X112084254Y-47795408D01*
X112082279Y-47795548D01*
X112074874Y-47794819D01*
X111979636Y-47794819D01*
X111972229Y-47795548D01*
X111970255Y-47795408D01*
X111967657Y-47795998D01*
X111965004Y-47796260D01*
X111963173Y-47797018D01*
X111955918Y-47798668D01*
X111813062Y-47846287D01*
X111799636Y-47852281D01*
X111797601Y-47854045D01*
X111795111Y-47855077D01*
X111783746Y-47864405D01*
X111688508Y-47959643D01*
X111683789Y-47965392D01*
X111682291Y-47966692D01*
X111680869Y-47968951D01*
X111679181Y-47971008D01*
X111678423Y-47972835D01*
X111674459Y-47979135D01*
X111626840Y-48074373D01*
X111626430Y-48075442D01*
X111626108Y-48075878D01*
X111623912Y-48082023D01*
X111621585Y-48088105D01*
X111621546Y-48088644D01*
X111621161Y-48089724D01*
X111573542Y-48280200D01*
X111573166Y-48282736D01*
X111572744Y-48283758D01*
X111572201Y-48289270D01*
X111571392Y-48294744D01*
X111571554Y-48295836D01*
X111571303Y-48298390D01*
X111296788Y-48298390D01*
X111431739Y-47893536D01*
X111434999Y-47879200D01*
X111432924Y-47850010D01*
X111419838Y-47823836D01*
X111397730Y-47804662D01*
X111369968Y-47795408D01*
X111340778Y-47797483D01*
X111314605Y-47810570D01*
X111295431Y-47832677D01*
X111289437Y-47846102D01*
X111027255Y-48632648D01*
X110765073Y-47846102D01*
X110759079Y-47832676D01*
X110739905Y-47810569D01*
X110713732Y-47797483D01*
X110684542Y-47795408D01*
X110656779Y-47804662D01*
X110634672Y-47823836D01*
X110621586Y-47850009D01*
X110619511Y-47879199D01*
X110508400Y-47879199D01*
X110508400Y-47683708D01*
X113450020Y-47683708D01*
X113450020Y-49055930D01*
G37*
G36*
X113124836Y-58032990D02*
G01*
X113198949Y-58107103D01*
X113237442Y-58184090D01*
X113280826Y-58357624D01*
X113280826Y-58482013D01*
X113237442Y-58655547D01*
X113198948Y-58732534D01*
X113124836Y-58806647D01*
X113010323Y-58844819D01*
X112859398Y-58844819D01*
X112859398Y-57994819D01*
X113010323Y-57994819D01*
X113124836Y-58032990D01*
G37*
G36*
X113541937Y-59105930D02*
G01*
X110503049Y-59105930D01*
X110503049Y-58348390D01*
X110614160Y-58348390D01*
X110614160Y-58491247D01*
X110614411Y-58493800D01*
X110614249Y-58494893D01*
X110615058Y-58500366D01*
X110615601Y-58505879D01*
X110616023Y-58506900D01*
X110616399Y-58509437D01*
X110664018Y-58699913D01*
X110664403Y-58700992D01*
X110664442Y-58701532D01*
X110666769Y-58707613D01*
X110668965Y-58713759D01*
X110669287Y-58714194D01*
X110669697Y-58715264D01*
X110717316Y-58810502D01*
X110721279Y-58816798D01*
X110722037Y-58818628D01*
X110723726Y-58820686D01*
X110725148Y-58822945D01*
X110726646Y-58824244D01*
X110731365Y-58829994D01*
X110826603Y-58925233D01*
X110837968Y-58934561D01*
X110840458Y-58935592D01*
X110842493Y-58937357D01*
X110855919Y-58943351D01*
X110998775Y-58990970D01*
X111006030Y-58992619D01*
X111007861Y-58993378D01*
X111010514Y-58993639D01*
X111013112Y-58994230D01*
X111015086Y-58994089D01*
X111022493Y-58994819D01*
X111117731Y-58994819D01*
X111125136Y-58994089D01*
X111127111Y-58994230D01*
X111129708Y-58993639D01*
X111132363Y-58993378D01*
X111134194Y-58992619D01*
X111141448Y-58990970D01*
X111284305Y-58943351D01*
X111297730Y-58937357D01*
X111299765Y-58935591D01*
X111302256Y-58934560D01*
X111313622Y-58925232D01*
X111361240Y-58877613D01*
X111370568Y-58866247D01*
X111377849Y-58848668D01*
X111381766Y-58839212D01*
X111383207Y-58824580D01*
X111383207Y-58491247D01*
X111381766Y-58476615D01*
X111370567Y-58449579D01*
X111349875Y-58428887D01*
X111322839Y-58417688D01*
X111308207Y-58416247D01*
X111117731Y-58416247D01*
X111103099Y-58417688D01*
X111076063Y-58428887D01*
X111055371Y-58449579D01*
X111044172Y-58476615D01*
X111044172Y-58505879D01*
X111055371Y-58532915D01*
X111076063Y-58553607D01*
X111103099Y-58564806D01*
X111117731Y-58566247D01*
X111233207Y-58566247D01*
X111233207Y-58793514D01*
X111220074Y-58806647D01*
X111105561Y-58844819D01*
X111034663Y-58844819D01*
X110920150Y-58806648D01*
X110846037Y-58732534D01*
X110807543Y-58655547D01*
X110764160Y-58482013D01*
X110764160Y-58357624D01*
X110807543Y-58184090D01*
X110846037Y-58107103D01*
X110920150Y-58032990D01*
X111034663Y-57994819D01*
X111147645Y-57994819D01*
X111227047Y-58034520D01*
X111240778Y-58039775D01*
X111269968Y-58041849D01*
X111297730Y-58032595D01*
X111319837Y-58013422D01*
X111332925Y-57987247D01*
X111334999Y-57958057D01*
X111325745Y-57930296D01*
X111316659Y-57919819D01*
X111661779Y-57919819D01*
X111661779Y-58919819D01*
X111663220Y-58934451D01*
X111674419Y-58961487D01*
X111695111Y-58982179D01*
X111722147Y-58993378D01*
X111751411Y-58993378D01*
X111778447Y-58982179D01*
X111799139Y-58961487D01*
X111810338Y-58934451D01*
X111811779Y-58919819D01*
X111811779Y-58202235D01*
X112243089Y-58957030D01*
X112245278Y-58960114D01*
X112245847Y-58961487D01*
X112247244Y-58962884D01*
X112251599Y-58969019D01*
X112259487Y-58975127D01*
X112266539Y-58982179D01*
X112270957Y-58984009D01*
X112274737Y-58986936D01*
X112284358Y-58989560D01*
X112293575Y-58993378D01*
X112298356Y-58993378D01*
X112302968Y-58994636D01*
X112312865Y-58993378D01*
X112322839Y-58993378D01*
X112327254Y-58991548D01*
X112331998Y-58990946D01*
X112340662Y-58985995D01*
X112349875Y-58982179D01*
X112353253Y-58978800D01*
X112357407Y-58976427D01*
X112363516Y-58968537D01*
X112370567Y-58961487D01*
X112372396Y-58957070D01*
X112375324Y-58953290D01*
X112377948Y-58943666D01*
X112381766Y-58934451D01*
X112382502Y-58926968D01*
X112383024Y-58925058D01*
X112382836Y-58923582D01*
X112383207Y-58919819D01*
X112383207Y-57919819D01*
X112709398Y-57919819D01*
X112709398Y-58919819D01*
X112710839Y-58934451D01*
X112722038Y-58961487D01*
X112742730Y-58982179D01*
X112769766Y-58993378D01*
X112784398Y-58994819D01*
X113022493Y-58994819D01*
X113029898Y-58994089D01*
X113031873Y-58994230D01*
X113034470Y-58993639D01*
X113037125Y-58993378D01*
X113038956Y-58992619D01*
X113046210Y-58990970D01*
X113189067Y-58943351D01*
X113202492Y-58937357D01*
X113204527Y-58935591D01*
X113207018Y-58934560D01*
X113218383Y-58925233D01*
X113313622Y-58829993D01*
X113318339Y-58824244D01*
X113319838Y-58822945D01*
X113321259Y-58820686D01*
X113322949Y-58818628D01*
X113323706Y-58816798D01*
X113327670Y-58810502D01*
X113375289Y-58715264D01*
X113375698Y-58714194D01*
X113376021Y-58713759D01*
X113378213Y-58707622D01*
X113380544Y-58701533D01*
X113380582Y-58700992D01*
X113380968Y-58699913D01*
X113428587Y-58509437D01*
X113428962Y-58506900D01*
X113429385Y-58505879D01*
X113429927Y-58500366D01*
X113430737Y-58494893D01*
X113430574Y-58493800D01*
X113430826Y-58491247D01*
X113430826Y-58348390D01*
X113430574Y-58345836D01*
X113430737Y-58344744D01*
X113429927Y-58339270D01*
X113429385Y-58333758D01*
X113428962Y-58332736D01*
X113428587Y-58330200D01*
X113380968Y-58139724D01*
X113380582Y-58138644D01*
X113380544Y-58138104D01*
X113378213Y-58132014D01*
X113376021Y-58125878D01*
X113375698Y-58125442D01*
X113375289Y-58124373D01*
X113327670Y-58029135D01*
X113323707Y-58022840D01*
X113322949Y-58021008D01*
X113321257Y-58018946D01*
X113319838Y-58016692D01*
X113318341Y-58015393D01*
X113313621Y-58009643D01*
X113218383Y-57914405D01*
X113207018Y-57905078D01*
X113204527Y-57904046D01*
X113202492Y-57902281D01*
X113189067Y-57896287D01*
X113046210Y-57848668D01*
X113038956Y-57847018D01*
X113037125Y-57846260D01*
X113034470Y-57845998D01*
X113031873Y-57845408D01*
X113029898Y-57845548D01*
X113022493Y-57844819D01*
X112784398Y-57844819D01*
X112769766Y-57846260D01*
X112742730Y-57857459D01*
X112722038Y-57878151D01*
X112710839Y-57905187D01*
X112709398Y-57919819D01*
X112383207Y-57919819D01*
X112381766Y-57905187D01*
X112370567Y-57878151D01*
X112349875Y-57857459D01*
X112322839Y-57846260D01*
X112293575Y-57846260D01*
X112266539Y-57857459D01*
X112245847Y-57878151D01*
X112234648Y-57905187D01*
X112233207Y-57919819D01*
X112233207Y-58637402D01*
X111801897Y-57882609D01*
X111799708Y-57879525D01*
X111799139Y-57878151D01*
X111797739Y-57876751D01*
X111793387Y-57870619D01*
X111785497Y-57864509D01*
X111778447Y-57857459D01*
X111774030Y-57855629D01*
X111770250Y-57852702D01*
X111760626Y-57850077D01*
X111751411Y-57846260D01*
X111746630Y-57846260D01*
X111742018Y-57845002D01*
X111732121Y-57846260D01*
X111722147Y-57846260D01*
X111717731Y-57848089D01*
X111712988Y-57848692D01*
X111704323Y-57853642D01*
X111695111Y-57857459D01*
X111691732Y-57860837D01*
X111687579Y-57863211D01*
X111681469Y-57871100D01*
X111674419Y-57878151D01*
X111672589Y-57882567D01*
X111669662Y-57886348D01*
X111667037Y-57895971D01*
X111663220Y-57905187D01*
X111662483Y-57912669D01*
X111661962Y-57914580D01*
X111662149Y-57916055D01*
X111661779Y-57919819D01*
X111316659Y-57919819D01*
X111306572Y-57908188D01*
X111294129Y-57900356D01*
X111198891Y-57852737D01*
X111185159Y-57847482D01*
X111182471Y-57847291D01*
X111179982Y-57846260D01*
X111165350Y-57844819D01*
X111022493Y-57844819D01*
X111015086Y-57845548D01*
X111013112Y-57845408D01*
X111010514Y-57845998D01*
X111007861Y-57846260D01*
X111006030Y-57847018D01*
X110998775Y-57848668D01*
X110855919Y-57896287D01*
X110842493Y-57902281D01*
X110840458Y-57904045D01*
X110837968Y-57905077D01*
X110826603Y-57914405D01*
X110731365Y-58009643D01*
X110726646Y-58015392D01*
X110725148Y-58016692D01*
X110723726Y-58018951D01*
X110722038Y-58021008D01*
X110721280Y-58022835D01*
X110717316Y-58029135D01*
X110669697Y-58124373D01*
X110669287Y-58125442D01*
X110668965Y-58125878D01*
X110666769Y-58132023D01*
X110664442Y-58138105D01*
X110664403Y-58138644D01*
X110664018Y-58139724D01*
X110616399Y-58330200D01*
X110616023Y-58332736D01*
X110615601Y-58333758D01*
X110615058Y-58339270D01*
X110614249Y-58344744D01*
X110614411Y-58345836D01*
X110614160Y-58348390D01*
X110503049Y-58348390D01*
X110503049Y-57733708D01*
X113541937Y-57733708D01*
X113541937Y-59105930D01*
G37*
G36*
X112540496Y-61855930D02*
G01*
X110550668Y-61855930D01*
X110550668Y-60669819D01*
X110661779Y-60669819D01*
X110661779Y-61669819D01*
X110663220Y-61684451D01*
X110674419Y-61711487D01*
X110695111Y-61732179D01*
X110722147Y-61743378D01*
X110751411Y-61743378D01*
X110778447Y-61732179D01*
X110799139Y-61711487D01*
X110810338Y-61684451D01*
X110811779Y-61669819D01*
X110811779Y-60952235D01*
X111243089Y-61707030D01*
X111245278Y-61710114D01*
X111245847Y-61711487D01*
X111247244Y-61712884D01*
X111251599Y-61719019D01*
X111259487Y-61725127D01*
X111266539Y-61732179D01*
X111270957Y-61734009D01*
X111274737Y-61736936D01*
X111284358Y-61739560D01*
X111293575Y-61743378D01*
X111298356Y-61743378D01*
X111302968Y-61744636D01*
X111312865Y-61743378D01*
X111322839Y-61743378D01*
X111327254Y-61741548D01*
X111331998Y-61740946D01*
X111340662Y-61735995D01*
X111349875Y-61732179D01*
X111353253Y-61728800D01*
X111357407Y-61726427D01*
X111363516Y-61718537D01*
X111370567Y-61711487D01*
X111372396Y-61707070D01*
X111375324Y-61703290D01*
X111377948Y-61693666D01*
X111381766Y-61684451D01*
X111382502Y-61676968D01*
X111383024Y-61675058D01*
X111382836Y-61673582D01*
X111383207Y-61669819D01*
X111383207Y-61098390D01*
X111661779Y-61098390D01*
X111661779Y-61241247D01*
X111662030Y-61243800D01*
X111661868Y-61244893D01*
X111662677Y-61250366D01*
X111663220Y-61255879D01*
X111663642Y-61256900D01*
X111664018Y-61259437D01*
X111711637Y-61449913D01*
X111712022Y-61450992D01*
X111712061Y-61451532D01*
X111714388Y-61457613D01*
X111716584Y-61463759D01*
X111716906Y-61464194D01*
X111717316Y-61465264D01*
X111764935Y-61560502D01*
X111768898Y-61566798D01*
X111769656Y-61568628D01*
X111771345Y-61570686D01*
X111772767Y-61572945D01*
X111774265Y-61574244D01*
X111778984Y-61579994D01*
X111874222Y-61675233D01*
X111885587Y-61684561D01*
X111888077Y-61685592D01*
X111890112Y-61687357D01*
X111903538Y-61693351D01*
X112046394Y-61740970D01*
X112053649Y-61742619D01*
X112055480Y-61743378D01*
X112058133Y-61743639D01*
X112060731Y-61744230D01*
X112062705Y-61744089D01*
X112070112Y-61744819D01*
X112165350Y-61744819D01*
X112172755Y-61744089D01*
X112174730Y-61744230D01*
X112177327Y-61743639D01*
X112179982Y-61743378D01*
X112181813Y-61742619D01*
X112189067Y-61740970D01*
X112331924Y-61693351D01*
X112345349Y-61687357D01*
X112347384Y-61685591D01*
X112349875Y-61684560D01*
X112361241Y-61675232D01*
X112408859Y-61627613D01*
X112418187Y-61616247D01*
X112429385Y-61589211D01*
X112429385Y-61559948D01*
X112418186Y-61532912D01*
X112397493Y-61512219D01*
X112370457Y-61501021D01*
X112341194Y-61501021D01*
X112314158Y-61512220D01*
X112302792Y-61521548D01*
X112267693Y-61556647D01*
X112153180Y-61594819D01*
X112082282Y-61594819D01*
X111967769Y-61556648D01*
X111893656Y-61482534D01*
X111855162Y-61405547D01*
X111811779Y-61232013D01*
X111811779Y-61107624D01*
X111855162Y-60934090D01*
X111893656Y-60857103D01*
X111967769Y-60782990D01*
X112082282Y-60744819D01*
X112153180Y-60744819D01*
X112267693Y-60782990D01*
X112302793Y-60818090D01*
X112314158Y-60827417D01*
X112341194Y-60838616D01*
X112370457Y-60838616D01*
X112397493Y-60827417D01*
X112418186Y-60806724D01*
X112429385Y-60779688D01*
X112429385Y-60750425D01*
X112418186Y-60723389D01*
X112408859Y-60712024D01*
X112361240Y-60664405D01*
X112349875Y-60655078D01*
X112347384Y-60654046D01*
X112345349Y-60652281D01*
X112331924Y-60646287D01*
X112189067Y-60598668D01*
X112181813Y-60597018D01*
X112179982Y-60596260D01*
X112177327Y-60595998D01*
X112174730Y-60595408D01*
X112172755Y-60595548D01*
X112165350Y-60594819D01*
X112070112Y-60594819D01*
X112062705Y-60595548D01*
X112060731Y-60595408D01*
X112058133Y-60595998D01*
X112055480Y-60596260D01*
X112053649Y-60597018D01*
X112046394Y-60598668D01*
X111903538Y-60646287D01*
X111890112Y-60652281D01*
X111888077Y-60654045D01*
X111885587Y-60655077D01*
X111874222Y-60664405D01*
X111778984Y-60759643D01*
X111774265Y-60765392D01*
X111772767Y-60766692D01*
X111771345Y-60768951D01*
X111769657Y-60771008D01*
X111768899Y-60772835D01*
X111764935Y-60779135D01*
X111717316Y-60874373D01*
X111716906Y-60875442D01*
X111716584Y-60875878D01*
X111714388Y-60882023D01*
X111712061Y-60888105D01*
X111712022Y-60888644D01*
X111711637Y-60889724D01*
X111664018Y-61080200D01*
X111663642Y-61082736D01*
X111663220Y-61083758D01*
X111662677Y-61089270D01*
X111661868Y-61094744D01*
X111662030Y-61095836D01*
X111661779Y-61098390D01*
X111383207Y-61098390D01*
X111383207Y-60669819D01*
X111381766Y-60655187D01*
X111370567Y-60628151D01*
X111349875Y-60607459D01*
X111322839Y-60596260D01*
X111293575Y-60596260D01*
X111266539Y-60607459D01*
X111245847Y-60628151D01*
X111234648Y-60655187D01*
X111233207Y-60669819D01*
X111233207Y-61387402D01*
X110801897Y-60632609D01*
X110799708Y-60629525D01*
X110799139Y-60628151D01*
X110797739Y-60626751D01*
X110793387Y-60620619D01*
X110785497Y-60614509D01*
X110778447Y-60607459D01*
X110774030Y-60605629D01*
X110770250Y-60602702D01*
X110760626Y-60600077D01*
X110751411Y-60596260D01*
X110746630Y-60596260D01*
X110742018Y-60595002D01*
X110732121Y-60596260D01*
X110722147Y-60596260D01*
X110717731Y-60598089D01*
X110712988Y-60598692D01*
X110704323Y-60603642D01*
X110695111Y-60607459D01*
X110691732Y-60610837D01*
X110687579Y-60613211D01*
X110681469Y-60621100D01*
X110674419Y-60628151D01*
X110672589Y-60632567D01*
X110669662Y-60636348D01*
X110667037Y-60645971D01*
X110663220Y-60655187D01*
X110662483Y-60662669D01*
X110661962Y-60664580D01*
X110662149Y-60666055D01*
X110661779Y-60669819D01*
X110550668Y-60669819D01*
X110550668Y-60483708D01*
X112540496Y-60483708D01*
X112540496Y-61855930D01*
G37*
G36*
X85422455Y-60059180D02*
G01*
X85448949Y-60085674D01*
X85483207Y-60154190D01*
X85483207Y-60261637D01*
X85448948Y-60330153D01*
X85418541Y-60360561D01*
X85350026Y-60394819D01*
X85061779Y-60394819D01*
X85061779Y-60021009D01*
X85307942Y-60021009D01*
X85422455Y-60059180D01*
G37*
G36*
X85370923Y-59579077D02*
G01*
X85401330Y-59609484D01*
X85435588Y-59678000D01*
X85435588Y-59737828D01*
X85401330Y-59806344D01*
X85370923Y-59836751D01*
X85302407Y-59871009D01*
X85061779Y-59871009D01*
X85061779Y-59544819D01*
X85302407Y-59544819D01*
X85370923Y-59579077D01*
G37*
G36*
X86418542Y-59579077D02*
G01*
X86490484Y-59651019D01*
X86530826Y-59812386D01*
X86530826Y-60127251D01*
X86490484Y-60288617D01*
X86418541Y-60360561D01*
X86350026Y-60394819D01*
X86194960Y-60394819D01*
X86126444Y-60360561D01*
X86054501Y-60288617D01*
X86014160Y-60127251D01*
X86014160Y-59812386D01*
X86054501Y-59651019D01*
X86126444Y-59579077D01*
X86194960Y-59544819D01*
X86350026Y-59544819D01*
X86418542Y-59579077D01*
G37*
G36*
X87466161Y-59579077D02*
G01*
X87538103Y-59651019D01*
X87578445Y-59812386D01*
X87578445Y-60127251D01*
X87538103Y-60288617D01*
X87466160Y-60360561D01*
X87397645Y-60394819D01*
X87242579Y-60394819D01*
X87174063Y-60360561D01*
X87102120Y-60288617D01*
X87061779Y-60127251D01*
X87061779Y-59812386D01*
X87102120Y-59651019D01*
X87174063Y-59579077D01*
X87242579Y-59544819D01*
X87397645Y-59544819D01*
X87466161Y-59579077D01*
G37*
G36*
X88695258Y-60655930D02*
G01*
X84800668Y-60655930D01*
X84800668Y-59469819D01*
X84911779Y-59469819D01*
X84911779Y-60469819D01*
X84913220Y-60484451D01*
X84924419Y-60511487D01*
X84945111Y-60532179D01*
X84972147Y-60543378D01*
X84986779Y-60544819D01*
X85367731Y-60544819D01*
X85382363Y-60543378D01*
X85384852Y-60542346D01*
X85387540Y-60542156D01*
X85401272Y-60536901D01*
X85496510Y-60489282D01*
X85502809Y-60485317D01*
X85504637Y-60484560D01*
X85506693Y-60482872D01*
X85508953Y-60481450D01*
X85510253Y-60479950D01*
X85516003Y-60475232D01*
X85563621Y-60427613D01*
X85568339Y-60421863D01*
X85569838Y-60420564D01*
X85571259Y-60418305D01*
X85572949Y-60416247D01*
X85573706Y-60414417D01*
X85577670Y-60408121D01*
X85625289Y-60312883D01*
X85630544Y-60299152D01*
X85630735Y-60296462D01*
X85631766Y-60293974D01*
X85633207Y-60279342D01*
X85633207Y-60136485D01*
X85631766Y-60121853D01*
X85630735Y-60119364D01*
X85630544Y-60116675D01*
X85625289Y-60102944D01*
X85577670Y-60007706D01*
X85573705Y-60001406D01*
X85572948Y-59999579D01*
X85571259Y-59997522D01*
X85569838Y-59995263D01*
X85568339Y-59993963D01*
X85563621Y-59988214D01*
X85516002Y-59940595D01*
X85504637Y-59931268D01*
X85502146Y-59930236D01*
X85500111Y-59928471D01*
X85494043Y-59925762D01*
X85516002Y-59903804D01*
X85520720Y-59898054D01*
X85522219Y-59896755D01*
X85523640Y-59894495D01*
X85525329Y-59892439D01*
X85526086Y-59890611D01*
X85530051Y-59884312D01*
X85570631Y-59803152D01*
X85864160Y-59803152D01*
X85864160Y-60136485D01*
X85864411Y-60139038D01*
X85864249Y-60140131D01*
X85865058Y-60145604D01*
X85865601Y-60151117D01*
X85866023Y-60152138D01*
X85866399Y-60154675D01*
X85914018Y-60345151D01*
X85918965Y-60358997D01*
X85922284Y-60363476D01*
X85924418Y-60368628D01*
X85933746Y-60379994D01*
X86028984Y-60475233D01*
X86034734Y-60479953D01*
X86036033Y-60481450D01*
X86038287Y-60482869D01*
X86040349Y-60484561D01*
X86042181Y-60485319D01*
X86048476Y-60489282D01*
X86143714Y-60536901D01*
X86157445Y-60542156D01*
X86160134Y-60542347D01*
X86162623Y-60543378D01*
X86177255Y-60544819D01*
X86367731Y-60544819D01*
X86382363Y-60543378D01*
X86384852Y-60542346D01*
X86387540Y-60542156D01*
X86401272Y-60536901D01*
X86496510Y-60489282D01*
X86502809Y-60485317D01*
X86504637Y-60484560D01*
X86506693Y-60482871D01*
X86508953Y-60481450D01*
X86510252Y-60479951D01*
X86516002Y-60475233D01*
X86611241Y-60379993D01*
X86620568Y-60368628D01*
X86622701Y-60363476D01*
X86626021Y-60358997D01*
X86630968Y-60345151D01*
X86678587Y-60154675D01*
X86678962Y-60152138D01*
X86679385Y-60151117D01*
X86679927Y-60145604D01*
X86680737Y-60140131D01*
X86680574Y-60139038D01*
X86680826Y-60136485D01*
X86680826Y-59803152D01*
X86911779Y-59803152D01*
X86911779Y-60136485D01*
X86912030Y-60139038D01*
X86911868Y-60140131D01*
X86912677Y-60145604D01*
X86913220Y-60151117D01*
X86913642Y-60152138D01*
X86914018Y-60154675D01*
X86961637Y-60345151D01*
X86966584Y-60358997D01*
X86969903Y-60363476D01*
X86972037Y-60368628D01*
X86981365Y-60379994D01*
X87076603Y-60475233D01*
X87082353Y-60479953D01*
X87083652Y-60481450D01*
X87085906Y-60482869D01*
X87087968Y-60484561D01*
X87089800Y-60485319D01*
X87096095Y-60489282D01*
X87191333Y-60536901D01*
X87205064Y-60542156D01*
X87207753Y-60542347D01*
X87210242Y-60543378D01*
X87224874Y-60544819D01*
X87415350Y-60544819D01*
X87429982Y-60543378D01*
X87432471Y-60542346D01*
X87435159Y-60542156D01*
X87448891Y-60536901D01*
X87544129Y-60489282D01*
X87550428Y-60485317D01*
X87552256Y-60484560D01*
X87554312Y-60482871D01*
X87556572Y-60481450D01*
X87557871Y-60479951D01*
X87563621Y-60475233D01*
X87658860Y-60379993D01*
X87668187Y-60368628D01*
X87670320Y-60363476D01*
X87673640Y-60358997D01*
X87678587Y-60345151D01*
X87726206Y-60154675D01*
X87726581Y-60152138D01*
X87727004Y-60151117D01*
X87727546Y-60145604D01*
X87728356Y-60140131D01*
X87728193Y-60139038D01*
X87728445Y-60136485D01*
X87728445Y-59803152D01*
X87728193Y-59800598D01*
X87728356Y-59799506D01*
X87727546Y-59794032D01*
X87727004Y-59788520D01*
X87726581Y-59787498D01*
X87726206Y-59784962D01*
X87678587Y-59594486D01*
X87673640Y-59580640D01*
X87670321Y-59576161D01*
X87668187Y-59571008D01*
X87658859Y-59559643D01*
X87563621Y-59464405D01*
X87557871Y-59459686D01*
X87556572Y-59458188D01*
X87554312Y-59456766D01*
X87552389Y-59455187D01*
X87865601Y-59455187D01*
X87865601Y-59484451D01*
X87876800Y-59511487D01*
X87897492Y-59532179D01*
X87924528Y-59543378D01*
X87939160Y-59544819D01*
X88149874Y-59544819D01*
X88149874Y-60469819D01*
X88151315Y-60484451D01*
X88162514Y-60511487D01*
X88183206Y-60532179D01*
X88210242Y-60543378D01*
X88239506Y-60543378D01*
X88266542Y-60532179D01*
X88287234Y-60511487D01*
X88298433Y-60484451D01*
X88299874Y-60469819D01*
X88299874Y-59544819D01*
X88510588Y-59544819D01*
X88525220Y-59543378D01*
X88552256Y-59532179D01*
X88572948Y-59511487D01*
X88584147Y-59484451D01*
X88584147Y-59455187D01*
X88572948Y-59428151D01*
X88552256Y-59407459D01*
X88525220Y-59396260D01*
X88510588Y-59394819D01*
X87939160Y-59394819D01*
X87924528Y-59396260D01*
X87897492Y-59407459D01*
X87876800Y-59428151D01*
X87865601Y-59455187D01*
X87552389Y-59455187D01*
X87552256Y-59455078D01*
X87550428Y-59454320D01*
X87544129Y-59450356D01*
X87448891Y-59402737D01*
X87435159Y-59397482D01*
X87432471Y-59397291D01*
X87429982Y-59396260D01*
X87415350Y-59394819D01*
X87224874Y-59394819D01*
X87210242Y-59396260D01*
X87207753Y-59397290D01*
X87205064Y-59397482D01*
X87191333Y-59402737D01*
X87096095Y-59450356D01*
X87089800Y-59454318D01*
X87087968Y-59455077D01*
X87085906Y-59456768D01*
X87083652Y-59458188D01*
X87082353Y-59459684D01*
X87076603Y-59464405D01*
X86981365Y-59559643D01*
X86972038Y-59571008D01*
X86969904Y-59576158D01*
X86966584Y-59580640D01*
X86961637Y-59594486D01*
X86914018Y-59784962D01*
X86913642Y-59787498D01*
X86913220Y-59788520D01*
X86912677Y-59794032D01*
X86911868Y-59799506D01*
X86912030Y-59800598D01*
X86911779Y-59803152D01*
X86680826Y-59803152D01*
X86680574Y-59800598D01*
X86680737Y-59799506D01*
X86679927Y-59794032D01*
X86679385Y-59788520D01*
X86678962Y-59787498D01*
X86678587Y-59784962D01*
X86630968Y-59594486D01*
X86626021Y-59580640D01*
X86622702Y-59576161D01*
X86620568Y-59571008D01*
X86611240Y-59559643D01*
X86516002Y-59464405D01*
X86510252Y-59459686D01*
X86508953Y-59458188D01*
X86506693Y-59456766D01*
X86504637Y-59455078D01*
X86502809Y-59454320D01*
X86496510Y-59450356D01*
X86401272Y-59402737D01*
X86387540Y-59397482D01*
X86384852Y-59397291D01*
X86382363Y-59396260D01*
X86367731Y-59394819D01*
X86177255Y-59394819D01*
X86162623Y-59396260D01*
X86160134Y-59397290D01*
X86157445Y-59397482D01*
X86143714Y-59402737D01*
X86048476Y-59450356D01*
X86042181Y-59454318D01*
X86040349Y-59455077D01*
X86038287Y-59456768D01*
X86036033Y-59458188D01*
X86034734Y-59459684D01*
X86028984Y-59464405D01*
X85933746Y-59559643D01*
X85924419Y-59571008D01*
X85922285Y-59576158D01*
X85918965Y-59580640D01*
X85914018Y-59594486D01*
X85866399Y-59784962D01*
X85866023Y-59787498D01*
X85865601Y-59788520D01*
X85865058Y-59794032D01*
X85864249Y-59799506D01*
X85864411Y-59800598D01*
X85864160Y-59803152D01*
X85570631Y-59803152D01*
X85577670Y-59789074D01*
X85582925Y-59775343D01*
X85583116Y-59772653D01*
X85584147Y-59770165D01*
X85585588Y-59755533D01*
X85585588Y-59660295D01*
X85584147Y-59645663D01*
X85583116Y-59643174D01*
X85582925Y-59640485D01*
X85577670Y-59626754D01*
X85530051Y-59531516D01*
X85526086Y-59525216D01*
X85525329Y-59523389D01*
X85523640Y-59521332D01*
X85522219Y-59519073D01*
X85520720Y-59517773D01*
X85516002Y-59512024D01*
X85468383Y-59464405D01*
X85462633Y-59459686D01*
X85461334Y-59458188D01*
X85459074Y-59456766D01*
X85457018Y-59455078D01*
X85455190Y-59454320D01*
X85448891Y-59450356D01*
X85353653Y-59402737D01*
X85339921Y-59397482D01*
X85337233Y-59397291D01*
X85334744Y-59396260D01*
X85320112Y-59394819D01*
X84986779Y-59394819D01*
X84972147Y-59396260D01*
X84945111Y-59407459D01*
X84924419Y-59428151D01*
X84913220Y-59455187D01*
X84911779Y-59469819D01*
X84800668Y-59469819D01*
X84800668Y-59283708D01*
X88695258Y-59283708D01*
X88695258Y-60655930D01*
G37*
D11*
G36*
X57723094Y-35729724D02*
G01*
X56646579Y-35729724D01*
X56646579Y-35172332D01*
X56757690Y-35172332D01*
X56757690Y-35210600D01*
X56784750Y-35237660D01*
X56803884Y-35241466D01*
X57134836Y-35241466D01*
X57134836Y-35572419D01*
X57138642Y-35591553D01*
X57165702Y-35618613D01*
X57203970Y-35618613D01*
X57231030Y-35591553D01*
X57234836Y-35572419D01*
X57234836Y-35241466D01*
X57565789Y-35241466D01*
X57584923Y-35237660D01*
X57611983Y-35210600D01*
X57611983Y-35172332D01*
X57584923Y-35145272D01*
X57565789Y-35141466D01*
X57234836Y-35141466D01*
X57234836Y-34810514D01*
X57231030Y-34791380D01*
X57203970Y-34764320D01*
X57165702Y-34764320D01*
X57138642Y-34791380D01*
X57134836Y-34810514D01*
X57134836Y-35141466D01*
X56803884Y-35141466D01*
X56784750Y-35145272D01*
X56757690Y-35172332D01*
X56646579Y-35172332D01*
X56646579Y-34653209D01*
X57723094Y-34653209D01*
X57723094Y-35729724D01*
G37*
D10*
G36*
X113074836Y-50582990D02*
G01*
X113148949Y-50657103D01*
X113187442Y-50734090D01*
X113230826Y-50907624D01*
X113230826Y-51032013D01*
X113187442Y-51205547D01*
X113148948Y-51282534D01*
X113074836Y-51356647D01*
X112960323Y-51394819D01*
X112809398Y-51394819D01*
X112809398Y-50544819D01*
X112960323Y-50544819D01*
X113074836Y-50582990D01*
G37*
G36*
X113491937Y-51655930D02*
G01*
X110453049Y-51655930D01*
X110453049Y-50898390D01*
X110564160Y-50898390D01*
X110564160Y-51041247D01*
X110564411Y-51043800D01*
X110564249Y-51044893D01*
X110565058Y-51050366D01*
X110565601Y-51055879D01*
X110566023Y-51056900D01*
X110566399Y-51059437D01*
X110614018Y-51249913D01*
X110614403Y-51250992D01*
X110614442Y-51251532D01*
X110616769Y-51257613D01*
X110618965Y-51263759D01*
X110619287Y-51264194D01*
X110619697Y-51265264D01*
X110667316Y-51360502D01*
X110671279Y-51366798D01*
X110672037Y-51368628D01*
X110673726Y-51370686D01*
X110675148Y-51372945D01*
X110676646Y-51374244D01*
X110681365Y-51379994D01*
X110776603Y-51475233D01*
X110787968Y-51484561D01*
X110790458Y-51485592D01*
X110792493Y-51487357D01*
X110805919Y-51493351D01*
X110948775Y-51540970D01*
X110956030Y-51542619D01*
X110957861Y-51543378D01*
X110960514Y-51543639D01*
X110963112Y-51544230D01*
X110965086Y-51544089D01*
X110972493Y-51544819D01*
X111067731Y-51544819D01*
X111075136Y-51544089D01*
X111077111Y-51544230D01*
X111079708Y-51543639D01*
X111082363Y-51543378D01*
X111084194Y-51542619D01*
X111091448Y-51540970D01*
X111234305Y-51493351D01*
X111247730Y-51487357D01*
X111249765Y-51485591D01*
X111252256Y-51484560D01*
X111263622Y-51475232D01*
X111311240Y-51427613D01*
X111320568Y-51416247D01*
X111327849Y-51398668D01*
X111331766Y-51389212D01*
X111333207Y-51374580D01*
X111333207Y-51041247D01*
X111331766Y-51026615D01*
X111320567Y-50999579D01*
X111299875Y-50978887D01*
X111272839Y-50967688D01*
X111258207Y-50966247D01*
X111067731Y-50966247D01*
X111053099Y-50967688D01*
X111026063Y-50978887D01*
X111005371Y-50999579D01*
X110994172Y-51026615D01*
X110994172Y-51055879D01*
X111005371Y-51082915D01*
X111026063Y-51103607D01*
X111053099Y-51114806D01*
X111067731Y-51116247D01*
X111183207Y-51116247D01*
X111183207Y-51343514D01*
X111170074Y-51356647D01*
X111055561Y-51394819D01*
X110984663Y-51394819D01*
X110870150Y-51356648D01*
X110796037Y-51282534D01*
X110757543Y-51205547D01*
X110714160Y-51032013D01*
X110714160Y-50907624D01*
X110757543Y-50734090D01*
X110796037Y-50657103D01*
X110870150Y-50582990D01*
X110984663Y-50544819D01*
X111097645Y-50544819D01*
X111177047Y-50584520D01*
X111190778Y-50589775D01*
X111219968Y-50591849D01*
X111247730Y-50582595D01*
X111269837Y-50563422D01*
X111282925Y-50537247D01*
X111284999Y-50508057D01*
X111275745Y-50480296D01*
X111266659Y-50469819D01*
X111611779Y-50469819D01*
X111611779Y-51469819D01*
X111613220Y-51484451D01*
X111624419Y-51511487D01*
X111645111Y-51532179D01*
X111672147Y-51543378D01*
X111701411Y-51543378D01*
X111728447Y-51532179D01*
X111749139Y-51511487D01*
X111760338Y-51484451D01*
X111761779Y-51469819D01*
X111761779Y-50752235D01*
X112193089Y-51507030D01*
X112195278Y-51510114D01*
X112195847Y-51511487D01*
X112197244Y-51512884D01*
X112201599Y-51519019D01*
X112209487Y-51525127D01*
X112216539Y-51532179D01*
X112220957Y-51534009D01*
X112224737Y-51536936D01*
X112234358Y-51539560D01*
X112243575Y-51543378D01*
X112248356Y-51543378D01*
X112252968Y-51544636D01*
X112262865Y-51543378D01*
X112272839Y-51543378D01*
X112277254Y-51541548D01*
X112281998Y-51540946D01*
X112290662Y-51535995D01*
X112299875Y-51532179D01*
X112303253Y-51528800D01*
X112307407Y-51526427D01*
X112313516Y-51518537D01*
X112320567Y-51511487D01*
X112322396Y-51507070D01*
X112325324Y-51503290D01*
X112327948Y-51493666D01*
X112331766Y-51484451D01*
X112332502Y-51476968D01*
X112333024Y-51475058D01*
X112332836Y-51473582D01*
X112333207Y-51469819D01*
X112333207Y-50469819D01*
X112659398Y-50469819D01*
X112659398Y-51469819D01*
X112660839Y-51484451D01*
X112672038Y-51511487D01*
X112692730Y-51532179D01*
X112719766Y-51543378D01*
X112734398Y-51544819D01*
X112972493Y-51544819D01*
X112979898Y-51544089D01*
X112981873Y-51544230D01*
X112984470Y-51543639D01*
X112987125Y-51543378D01*
X112988956Y-51542619D01*
X112996210Y-51540970D01*
X113139067Y-51493351D01*
X113152492Y-51487357D01*
X113154527Y-51485591D01*
X113157018Y-51484560D01*
X113168383Y-51475233D01*
X113263622Y-51379993D01*
X113268339Y-51374244D01*
X113269838Y-51372945D01*
X113271259Y-51370686D01*
X113272949Y-51368628D01*
X113273706Y-51366798D01*
X113277670Y-51360502D01*
X113325289Y-51265264D01*
X113325698Y-51264194D01*
X113326021Y-51263759D01*
X113328213Y-51257622D01*
X113330544Y-51251533D01*
X113330582Y-51250992D01*
X113330968Y-51249913D01*
X113378587Y-51059437D01*
X113378962Y-51056900D01*
X113379385Y-51055879D01*
X113379927Y-51050366D01*
X113380737Y-51044893D01*
X113380574Y-51043800D01*
X113380826Y-51041247D01*
X113380826Y-50898390D01*
X113380574Y-50895836D01*
X113380737Y-50894744D01*
X113379927Y-50889270D01*
X113379385Y-50883758D01*
X113378962Y-50882736D01*
X113378587Y-50880200D01*
X113330968Y-50689724D01*
X113330582Y-50688644D01*
X113330544Y-50688104D01*
X113328213Y-50682014D01*
X113326021Y-50675878D01*
X113325698Y-50675442D01*
X113325289Y-50674373D01*
X113277670Y-50579135D01*
X113273707Y-50572840D01*
X113272949Y-50571008D01*
X113271257Y-50568946D01*
X113269838Y-50566692D01*
X113268341Y-50565393D01*
X113263621Y-50559643D01*
X113168383Y-50464405D01*
X113157018Y-50455078D01*
X113154527Y-50454046D01*
X113152492Y-50452281D01*
X113139067Y-50446287D01*
X112996210Y-50398668D01*
X112988956Y-50397018D01*
X112987125Y-50396260D01*
X112984470Y-50395998D01*
X112981873Y-50395408D01*
X112979898Y-50395548D01*
X112972493Y-50394819D01*
X112734398Y-50394819D01*
X112719766Y-50396260D01*
X112692730Y-50407459D01*
X112672038Y-50428151D01*
X112660839Y-50455187D01*
X112659398Y-50469819D01*
X112333207Y-50469819D01*
X112331766Y-50455187D01*
X112320567Y-50428151D01*
X112299875Y-50407459D01*
X112272839Y-50396260D01*
X112243575Y-50396260D01*
X112216539Y-50407459D01*
X112195847Y-50428151D01*
X112184648Y-50455187D01*
X112183207Y-50469819D01*
X112183207Y-51187402D01*
X111751897Y-50432609D01*
X111749708Y-50429525D01*
X111749139Y-50428151D01*
X111747739Y-50426751D01*
X111743387Y-50420619D01*
X111735497Y-50414509D01*
X111728447Y-50407459D01*
X111724030Y-50405629D01*
X111720250Y-50402702D01*
X111710626Y-50400077D01*
X111701411Y-50396260D01*
X111696630Y-50396260D01*
X111692018Y-50395002D01*
X111682121Y-50396260D01*
X111672147Y-50396260D01*
X111667731Y-50398089D01*
X111662988Y-50398692D01*
X111654323Y-50403642D01*
X111645111Y-50407459D01*
X111641732Y-50410837D01*
X111637579Y-50413211D01*
X111631469Y-50421100D01*
X111624419Y-50428151D01*
X111622589Y-50432567D01*
X111619662Y-50436348D01*
X111617037Y-50445971D01*
X111613220Y-50455187D01*
X111612483Y-50462669D01*
X111611962Y-50464580D01*
X111612149Y-50466055D01*
X111611779Y-50469819D01*
X111266659Y-50469819D01*
X111256572Y-50458188D01*
X111244129Y-50450356D01*
X111148891Y-50402737D01*
X111135159Y-50397482D01*
X111132471Y-50397291D01*
X111129982Y-50396260D01*
X111115350Y-50394819D01*
X110972493Y-50394819D01*
X110965086Y-50395548D01*
X110963112Y-50395408D01*
X110960514Y-50395998D01*
X110957861Y-50396260D01*
X110956030Y-50397018D01*
X110948775Y-50398668D01*
X110805919Y-50446287D01*
X110792493Y-50452281D01*
X110790458Y-50454045D01*
X110787968Y-50455077D01*
X110776603Y-50464405D01*
X110681365Y-50559643D01*
X110676646Y-50565392D01*
X110675148Y-50566692D01*
X110673726Y-50568951D01*
X110672038Y-50571008D01*
X110671280Y-50572835D01*
X110667316Y-50579135D01*
X110619697Y-50674373D01*
X110619287Y-50675442D01*
X110618965Y-50675878D01*
X110616769Y-50682023D01*
X110614442Y-50688105D01*
X110614403Y-50688644D01*
X110614018Y-50689724D01*
X110566399Y-50880200D01*
X110566023Y-50882736D01*
X110565601Y-50883758D01*
X110565058Y-50889270D01*
X110564249Y-50894744D01*
X110564411Y-50895836D01*
X110564160Y-50898390D01*
X110453049Y-50898390D01*
X110453049Y-50283708D01*
X113491937Y-50283708D01*
X113491937Y-51655930D01*
G37*
G36*
X113350020Y-56655930D02*
G01*
X110503049Y-56655930D01*
X110503049Y-55660295D01*
X110614160Y-55660295D01*
X110614160Y-55755533D01*
X110615601Y-55770165D01*
X110616632Y-55772654D01*
X110616823Y-55775342D01*
X110622078Y-55789074D01*
X110669697Y-55884312D01*
X110673661Y-55890611D01*
X110674419Y-55892439D01*
X110676107Y-55894495D01*
X110677529Y-55896755D01*
X110679027Y-55898054D01*
X110683746Y-55903804D01*
X110731365Y-55951423D01*
X110737114Y-55956141D01*
X110738414Y-55957640D01*
X110740673Y-55959061D01*
X110742730Y-55960750D01*
X110744557Y-55961507D01*
X110750857Y-55965472D01*
X110846095Y-56013091D01*
X110847164Y-56013500D01*
X110847600Y-56013823D01*
X110853736Y-56016015D01*
X110859826Y-56018346D01*
X110860366Y-56018384D01*
X110861446Y-56018770D01*
X111043936Y-56064392D01*
X111120923Y-56102886D01*
X111151330Y-56133293D01*
X111185588Y-56201809D01*
X111185588Y-56261637D01*
X111151329Y-56330153D01*
X111120922Y-56360561D01*
X111052407Y-56394819D01*
X110844187Y-56394819D01*
X110712877Y-56351049D01*
X110698540Y-56347789D01*
X110669350Y-56349864D01*
X110643177Y-56362950D01*
X110624003Y-56385057D01*
X110614749Y-56412820D01*
X110616824Y-56442010D01*
X110629910Y-56468183D01*
X110652017Y-56487357D01*
X110665443Y-56493351D01*
X110808299Y-56540970D01*
X110815554Y-56542619D01*
X110817385Y-56543378D01*
X110820038Y-56543639D01*
X110822636Y-56544230D01*
X110824610Y-56544089D01*
X110832017Y-56544819D01*
X111070112Y-56544819D01*
X111084744Y-56543378D01*
X111087233Y-56542346D01*
X111089921Y-56542156D01*
X111103653Y-56536901D01*
X111198891Y-56489282D01*
X111205190Y-56485317D01*
X111207018Y-56484560D01*
X111209074Y-56482872D01*
X111211334Y-56481450D01*
X111212634Y-56479950D01*
X111218384Y-56475232D01*
X111266002Y-56427613D01*
X111270720Y-56421863D01*
X111272219Y-56420564D01*
X111273640Y-56418305D01*
X111275330Y-56416247D01*
X111276087Y-56414417D01*
X111280051Y-56408121D01*
X111327670Y-56312883D01*
X111332925Y-56299152D01*
X111333116Y-56296462D01*
X111334147Y-56293974D01*
X111335588Y-56279342D01*
X111335588Y-56184104D01*
X111334147Y-56169472D01*
X111333116Y-56166983D01*
X111332925Y-56164294D01*
X111327670Y-56150563D01*
X111280051Y-56055325D01*
X111276086Y-56049025D01*
X111275329Y-56047198D01*
X111273640Y-56045141D01*
X111272219Y-56042882D01*
X111270720Y-56041582D01*
X111266002Y-56035833D01*
X111218383Y-55988214D01*
X111212633Y-55983495D01*
X111211334Y-55981997D01*
X111209074Y-55980575D01*
X111207018Y-55978887D01*
X111205190Y-55978129D01*
X111198891Y-55974165D01*
X111103653Y-55926546D01*
X111102583Y-55926136D01*
X111102148Y-55925814D01*
X111096002Y-55923618D01*
X111089921Y-55921291D01*
X111089381Y-55921252D01*
X111088302Y-55920867D01*
X110998395Y-55898390D01*
X111566541Y-55898390D01*
X111566541Y-56041247D01*
X111566792Y-56043800D01*
X111566630Y-56044893D01*
X111567439Y-56050366D01*
X111567982Y-56055879D01*
X111568404Y-56056900D01*
X111568780Y-56059437D01*
X111616399Y-56249913D01*
X111616784Y-56250992D01*
X111616823Y-56251532D01*
X111619150Y-56257613D01*
X111621346Y-56263759D01*
X111621668Y-56264194D01*
X111622078Y-56265264D01*
X111669697Y-56360502D01*
X111673660Y-56366798D01*
X111674418Y-56368628D01*
X111676107Y-56370686D01*
X111677529Y-56372945D01*
X111679027Y-56374244D01*
X111683746Y-56379994D01*
X111778984Y-56475233D01*
X111790349Y-56484561D01*
X111792839Y-56485592D01*
X111794874Y-56487357D01*
X111808300Y-56493351D01*
X111951156Y-56540970D01*
X111958411Y-56542619D01*
X111960242Y-56543378D01*
X111962895Y-56543639D01*
X111965493Y-56544230D01*
X111967467Y-56544089D01*
X111974874Y-56544819D01*
X112070112Y-56544819D01*
X112077517Y-56544089D01*
X112079492Y-56544230D01*
X112082089Y-56543639D01*
X112084744Y-56543378D01*
X112086575Y-56542619D01*
X112093829Y-56540970D01*
X112236686Y-56493351D01*
X112250111Y-56487357D01*
X112252146Y-56485591D01*
X112254637Y-56484560D01*
X112266003Y-56475232D01*
X112313621Y-56427613D01*
X112322949Y-56416247D01*
X112334147Y-56389211D01*
X112334147Y-56359948D01*
X112322948Y-56332912D01*
X112302255Y-56312219D01*
X112275219Y-56301021D01*
X112245956Y-56301021D01*
X112218920Y-56312220D01*
X112207554Y-56321548D01*
X112172455Y-56356647D01*
X112057942Y-56394819D01*
X111987044Y-56394819D01*
X111872531Y-56356648D01*
X111798418Y-56282534D01*
X111759924Y-56205547D01*
X111716541Y-56032013D01*
X111716541Y-55907624D01*
X111759924Y-55734090D01*
X111798418Y-55657103D01*
X111872531Y-55582990D01*
X111987044Y-55544819D01*
X112057942Y-55544819D01*
X112172455Y-55582990D01*
X112207555Y-55618090D01*
X112218920Y-55627417D01*
X112245956Y-55638616D01*
X112275219Y-55638616D01*
X112302255Y-55627417D01*
X112322948Y-55606724D01*
X112334147Y-55579688D01*
X112334147Y-55550425D01*
X112322948Y-55523389D01*
X112313621Y-55512024D01*
X112271416Y-55469819D01*
X112614160Y-55469819D01*
X112614160Y-56469819D01*
X112615601Y-56484451D01*
X112626800Y-56511487D01*
X112647492Y-56532179D01*
X112674528Y-56543378D01*
X112689160Y-56544819D01*
X113165350Y-56544819D01*
X113179982Y-56543378D01*
X113207018Y-56532179D01*
X113227710Y-56511487D01*
X113238909Y-56484451D01*
X113238909Y-56455187D01*
X113227710Y-56428151D01*
X113207018Y-56407459D01*
X113179982Y-56396260D01*
X113165350Y-56394819D01*
X112764160Y-56394819D01*
X112764160Y-55469819D01*
X112762719Y-55455187D01*
X112751520Y-55428151D01*
X112730828Y-55407459D01*
X112703792Y-55396260D01*
X112674528Y-55396260D01*
X112647492Y-55407459D01*
X112626800Y-55428151D01*
X112615601Y-55455187D01*
X112614160Y-55469819D01*
X112271416Y-55469819D01*
X112266002Y-55464405D01*
X112254637Y-55455078D01*
X112252146Y-55454046D01*
X112250111Y-55452281D01*
X112236686Y-55446287D01*
X112093829Y-55398668D01*
X112086575Y-55397018D01*
X112084744Y-55396260D01*
X112082089Y-55395998D01*
X112079492Y-55395408D01*
X112077517Y-55395548D01*
X112070112Y-55394819D01*
X111974874Y-55394819D01*
X111967467Y-55395548D01*
X111965493Y-55395408D01*
X111962895Y-55395998D01*
X111960242Y-55396260D01*
X111958411Y-55397018D01*
X111951156Y-55398668D01*
X111808300Y-55446287D01*
X111794874Y-55452281D01*
X111792839Y-55454045D01*
X111790349Y-55455077D01*
X111778984Y-55464405D01*
X111683746Y-55559643D01*
X111679027Y-55565392D01*
X111677529Y-55566692D01*
X111676107Y-55568951D01*
X111674419Y-55571008D01*
X111673661Y-55572835D01*
X111669697Y-55579135D01*
X111622078Y-55674373D01*
X111621668Y-55675442D01*
X111621346Y-55675878D01*
X111619150Y-55682023D01*
X111616823Y-55688105D01*
X111616784Y-55688644D01*
X111616399Y-55689724D01*
X111568780Y-55880200D01*
X111568404Y-55882736D01*
X111567982Y-55883758D01*
X111567439Y-55889270D01*
X111566630Y-55894744D01*
X111566792Y-55895836D01*
X111566541Y-55898390D01*
X110998395Y-55898390D01*
X110905812Y-55875244D01*
X110828825Y-55836751D01*
X110798418Y-55806344D01*
X110764160Y-55737828D01*
X110764160Y-55678000D01*
X110798418Y-55609484D01*
X110828825Y-55579077D01*
X110897341Y-55544819D01*
X111105561Y-55544819D01*
X111236870Y-55588589D01*
X111251207Y-55591849D01*
X111280397Y-55589774D01*
X111306571Y-55576688D01*
X111325745Y-55554580D01*
X111334999Y-55526818D01*
X111332924Y-55497628D01*
X111319837Y-55471455D01*
X111297730Y-55452281D01*
X111284305Y-55446287D01*
X111141448Y-55398668D01*
X111134194Y-55397018D01*
X111132363Y-55396260D01*
X111129708Y-55395998D01*
X111127111Y-55395408D01*
X111125136Y-55395548D01*
X111117731Y-55394819D01*
X110879636Y-55394819D01*
X110865004Y-55396260D01*
X110862515Y-55397290D01*
X110859826Y-55397482D01*
X110846095Y-55402737D01*
X110750857Y-55450356D01*
X110744557Y-55454320D01*
X110742730Y-55455078D01*
X110740673Y-55456766D01*
X110738414Y-55458188D01*
X110737114Y-55459686D01*
X110731365Y-55464405D01*
X110683746Y-55512024D01*
X110679027Y-55517773D01*
X110677529Y-55519073D01*
X110676107Y-55521332D01*
X110674419Y-55523389D01*
X110673661Y-55525216D01*
X110669697Y-55531516D01*
X110622078Y-55626754D01*
X110616823Y-55640486D01*
X110616632Y-55643173D01*
X110615601Y-55645663D01*
X110614160Y-55660295D01*
X110503049Y-55660295D01*
X110503049Y-55283708D01*
X113350020Y-55283708D01*
X113350020Y-56655930D01*
G37*
D12*
X65683082Y-36329400D02*
X65897368Y-36400828D01*
X65897368Y-36400828D02*
X66254510Y-36400828D01*
X66254510Y-36400828D02*
X66397368Y-36329400D01*
X66397368Y-36329400D02*
X66468796Y-36257971D01*
X66468796Y-36257971D02*
X66540225Y-36115114D01*
X66540225Y-36115114D02*
X66540225Y-35972257D01*
X66540225Y-35972257D02*
X66468796Y-35829400D01*
X66468796Y-35829400D02*
X66397368Y-35757971D01*
X66397368Y-35757971D02*
X66254510Y-35686542D01*
X66254510Y-35686542D02*
X65968796Y-35615114D01*
X65968796Y-35615114D02*
X65825939Y-35543685D01*
X65825939Y-35543685D02*
X65754510Y-35472257D01*
X65754510Y-35472257D02*
X65683082Y-35329400D01*
X65683082Y-35329400D02*
X65683082Y-35186542D01*
X65683082Y-35186542D02*
X65754510Y-35043685D01*
X65754510Y-35043685D02*
X65825939Y-34972257D01*
X65825939Y-34972257D02*
X65968796Y-34900828D01*
X65968796Y-34900828D02*
X66325939Y-34900828D01*
X66325939Y-34900828D02*
X66540225Y-34972257D01*
X66968796Y-34900828D02*
X67825939Y-34900828D01*
X67397367Y-36400828D02*
X67397367Y-34900828D01*
X68325938Y-36400828D02*
X68325938Y-34900828D01*
X68325938Y-34900828D02*
X68825938Y-35972257D01*
X68825938Y-35972257D02*
X69325938Y-34900828D01*
X69325938Y-34900828D02*
X69325938Y-36400828D01*
X69897367Y-34900828D02*
X70825939Y-34900828D01*
X70825939Y-34900828D02*
X70325939Y-35472257D01*
X70325939Y-35472257D02*
X70540224Y-35472257D01*
X70540224Y-35472257D02*
X70683082Y-35543685D01*
X70683082Y-35543685D02*
X70754510Y-35615114D01*
X70754510Y-35615114D02*
X70825939Y-35757971D01*
X70825939Y-35757971D02*
X70825939Y-36115114D01*
X70825939Y-36115114D02*
X70754510Y-36257971D01*
X70754510Y-36257971D02*
X70683082Y-36329400D01*
X70683082Y-36329400D02*
X70540224Y-36400828D01*
X70540224Y-36400828D02*
X70111653Y-36400828D01*
X70111653Y-36400828D02*
X69968796Y-36329400D01*
X69968796Y-36329400D02*
X69897367Y-36257971D01*
X71397367Y-35043685D02*
X71468795Y-34972257D01*
X71468795Y-34972257D02*
X71611653Y-34900828D01*
X71611653Y-34900828D02*
X71968795Y-34900828D01*
X71968795Y-34900828D02*
X72111653Y-34972257D01*
X72111653Y-34972257D02*
X72183081Y-35043685D01*
X72183081Y-35043685D02*
X72254510Y-35186542D01*
X72254510Y-35186542D02*
X72254510Y-35329400D01*
X72254510Y-35329400D02*
X72183081Y-35543685D01*
X72183081Y-35543685D02*
X71325938Y-36400828D01*
X71325938Y-36400828D02*
X72254510Y-36400828D01*
X72754509Y-34900828D02*
X73111652Y-36400828D01*
X73111652Y-36400828D02*
X73397366Y-35329400D01*
X73397366Y-35329400D02*
X73683081Y-36400828D01*
X73683081Y-36400828D02*
X74040224Y-34900828D01*
X75111652Y-35615114D02*
X75325938Y-35686542D01*
X75325938Y-35686542D02*
X75397367Y-35757971D01*
X75397367Y-35757971D02*
X75468795Y-35900828D01*
X75468795Y-35900828D02*
X75468795Y-36115114D01*
X75468795Y-36115114D02*
X75397367Y-36257971D01*
X75397367Y-36257971D02*
X75325938Y-36329400D01*
X75325938Y-36329400D02*
X75183081Y-36400828D01*
X75183081Y-36400828D02*
X74611652Y-36400828D01*
X74611652Y-36400828D02*
X74611652Y-34900828D01*
X74611652Y-34900828D02*
X75111652Y-34900828D01*
X75111652Y-34900828D02*
X75254510Y-34972257D01*
X75254510Y-34972257D02*
X75325938Y-35043685D01*
X75325938Y-35043685D02*
X75397367Y-35186542D01*
X75397367Y-35186542D02*
X75397367Y-35329400D01*
X75397367Y-35329400D02*
X75325938Y-35472257D01*
X75325938Y-35472257D02*
X75254510Y-35543685D01*
X75254510Y-35543685D02*
X75111652Y-35615114D01*
X75111652Y-35615114D02*
X74611652Y-35615114D01*
X75968795Y-34900828D02*
X76897367Y-34900828D01*
X76897367Y-34900828D02*
X76397367Y-35472257D01*
X76397367Y-35472257D02*
X76611652Y-35472257D01*
X76611652Y-35472257D02*
X76754510Y-35543685D01*
X76754510Y-35543685D02*
X76825938Y-35615114D01*
X76825938Y-35615114D02*
X76897367Y-35757971D01*
X76897367Y-35757971D02*
X76897367Y-36115114D01*
X76897367Y-36115114D02*
X76825938Y-36257971D01*
X76825938Y-36257971D02*
X76754510Y-36329400D01*
X76754510Y-36329400D02*
X76611652Y-36400828D01*
X76611652Y-36400828D02*
X76183081Y-36400828D01*
X76183081Y-36400828D02*
X76040224Y-36329400D01*
X76040224Y-36329400D02*
X75968795Y-36257971D01*
X78254509Y-34900828D02*
X77540223Y-34900828D01*
X77540223Y-34900828D02*
X77468795Y-35615114D01*
X77468795Y-35615114D02*
X77540223Y-35543685D01*
X77540223Y-35543685D02*
X77683081Y-35472257D01*
X77683081Y-35472257D02*
X78040223Y-35472257D01*
X78040223Y-35472257D02*
X78183081Y-35543685D01*
X78183081Y-35543685D02*
X78254509Y-35615114D01*
X78254509Y-35615114D02*
X78325938Y-35757971D01*
X78325938Y-35757971D02*
X78325938Y-36115114D01*
X78325938Y-36115114D02*
X78254509Y-36257971D01*
X78254509Y-36257971D02*
X78183081Y-36329400D01*
X78183081Y-36329400D02*
X78040223Y-36400828D01*
X78040223Y-36400828D02*
X77683081Y-36400828D01*
X77683081Y-36400828D02*
X77540223Y-36329400D01*
X77540223Y-36329400D02*
X77468795Y-36257971D01*
X80111651Y-36400828D02*
X80111651Y-34900828D01*
X80754509Y-35043685D02*
X80825937Y-34972257D01*
X80825937Y-34972257D02*
X80968795Y-34900828D01*
X80968795Y-34900828D02*
X81325937Y-34900828D01*
X81325937Y-34900828D02*
X81468795Y-34972257D01*
X81468795Y-34972257D02*
X81540223Y-35043685D01*
X81540223Y-35043685D02*
X81611652Y-35186542D01*
X81611652Y-35186542D02*
X81611652Y-35329400D01*
X81611652Y-35329400D02*
X81540223Y-35543685D01*
X81540223Y-35543685D02*
X80683080Y-36400828D01*
X80683080Y-36400828D02*
X81611652Y-36400828D01*
X83111651Y-36257971D02*
X83040223Y-36329400D01*
X83040223Y-36329400D02*
X82825937Y-36400828D01*
X82825937Y-36400828D02*
X82683080Y-36400828D01*
X82683080Y-36400828D02*
X82468794Y-36329400D01*
X82468794Y-36329400D02*
X82325937Y-36186542D01*
X82325937Y-36186542D02*
X82254508Y-36043685D01*
X82254508Y-36043685D02*
X82183080Y-35757971D01*
X82183080Y-35757971D02*
X82183080Y-35543685D01*
X82183080Y-35543685D02*
X82254508Y-35257971D01*
X82254508Y-35257971D02*
X82325937Y-35115114D01*
X82325937Y-35115114D02*
X82468794Y-34972257D01*
X82468794Y-34972257D02*
X82683080Y-34900828D01*
X82683080Y-34900828D02*
X82825937Y-34900828D01*
X82825937Y-34900828D02*
X83040223Y-34972257D01*
X83040223Y-34972257D02*
X83111651Y-35043685D01*
D10*
X66861905Y-49954819D02*
X66861905Y-48954819D01*
X66861905Y-48954819D02*
X67100000Y-48954819D01*
X67100000Y-48954819D02*
X67242857Y-49002438D01*
X67242857Y-49002438D02*
X67338095Y-49097676D01*
X67338095Y-49097676D02*
X67385714Y-49192914D01*
X67385714Y-49192914D02*
X67433333Y-49383390D01*
X67433333Y-49383390D02*
X67433333Y-49526247D01*
X67433333Y-49526247D02*
X67385714Y-49716723D01*
X67385714Y-49716723D02*
X67338095Y-49811961D01*
X67338095Y-49811961D02*
X67242857Y-49907200D01*
X67242857Y-49907200D02*
X67100000Y-49954819D01*
X67100000Y-49954819D02*
X66861905Y-49954819D01*
X67814286Y-49050057D02*
X67861905Y-49002438D01*
X67861905Y-49002438D02*
X67957143Y-48954819D01*
X67957143Y-48954819D02*
X68195238Y-48954819D01*
X68195238Y-48954819D02*
X68290476Y-49002438D01*
X68290476Y-49002438D02*
X68338095Y-49050057D01*
X68338095Y-49050057D02*
X68385714Y-49145295D01*
X68385714Y-49145295D02*
X68385714Y-49240533D01*
X68385714Y-49240533D02*
X68338095Y-49383390D01*
X68338095Y-49383390D02*
X67766667Y-49954819D01*
X67766667Y-49954819D02*
X68385714Y-49954819D01*
X72054819Y-57966666D02*
X71578628Y-58299999D01*
X72054819Y-58538094D02*
X71054819Y-58538094D01*
X71054819Y-58538094D02*
X71054819Y-58157142D01*
X71054819Y-58157142D02*
X71102438Y-58061904D01*
X71102438Y-58061904D02*
X71150057Y-58014285D01*
X71150057Y-58014285D02*
X71245295Y-57966666D01*
X71245295Y-57966666D02*
X71388152Y-57966666D01*
X71388152Y-57966666D02*
X71483390Y-58014285D01*
X71483390Y-58014285D02*
X71531009Y-58061904D01*
X71531009Y-58061904D02*
X71578628Y-58157142D01*
X71578628Y-58157142D02*
X71578628Y-58538094D01*
X71054819Y-57061904D02*
X71054819Y-57538094D01*
X71054819Y-57538094D02*
X71531009Y-57585713D01*
X71531009Y-57585713D02*
X71483390Y-57538094D01*
X71483390Y-57538094D02*
X71435771Y-57442856D01*
X71435771Y-57442856D02*
X71435771Y-57204761D01*
X71435771Y-57204761D02*
X71483390Y-57109523D01*
X71483390Y-57109523D02*
X71531009Y-57061904D01*
X71531009Y-57061904D02*
X71626247Y-57014285D01*
X71626247Y-57014285D02*
X71864342Y-57014285D01*
X71864342Y-57014285D02*
X71959580Y-57061904D01*
X71959580Y-57061904D02*
X72007200Y-57109523D01*
X72007200Y-57109523D02*
X72054819Y-57204761D01*
X72054819Y-57204761D02*
X72054819Y-57442856D01*
X72054819Y-57442856D02*
X72007200Y-57538094D01*
X72007200Y-57538094D02*
X71959580Y-57585713D01*
X83759580Y-51266666D02*
X83807200Y-51314285D01*
X83807200Y-51314285D02*
X83854819Y-51457142D01*
X83854819Y-51457142D02*
X83854819Y-51552380D01*
X83854819Y-51552380D02*
X83807200Y-51695237D01*
X83807200Y-51695237D02*
X83711961Y-51790475D01*
X83711961Y-51790475D02*
X83616723Y-51838094D01*
X83616723Y-51838094D02*
X83426247Y-51885713D01*
X83426247Y-51885713D02*
X83283390Y-51885713D01*
X83283390Y-51885713D02*
X83092914Y-51838094D01*
X83092914Y-51838094D02*
X82997676Y-51790475D01*
X82997676Y-51790475D02*
X82902438Y-51695237D01*
X82902438Y-51695237D02*
X82854819Y-51552380D01*
X82854819Y-51552380D02*
X82854819Y-51457142D01*
X82854819Y-51457142D02*
X82902438Y-51314285D01*
X82902438Y-51314285D02*
X82950057Y-51266666D01*
X82950057Y-50885713D02*
X82902438Y-50838094D01*
X82902438Y-50838094D02*
X82854819Y-50742856D01*
X82854819Y-50742856D02*
X82854819Y-50504761D01*
X82854819Y-50504761D02*
X82902438Y-50409523D01*
X82902438Y-50409523D02*
X82950057Y-50361904D01*
X82950057Y-50361904D02*
X83045295Y-50314285D01*
X83045295Y-50314285D02*
X83140533Y-50314285D01*
X83140533Y-50314285D02*
X83283390Y-50361904D01*
X83283390Y-50361904D02*
X83854819Y-50933332D01*
X83854819Y-50933332D02*
X83854819Y-50314285D01*
X91533333Y-34054819D02*
X91057143Y-34054819D01*
X91057143Y-34054819D02*
X91057143Y-33054819D01*
X91771429Y-33054819D02*
X92390476Y-33054819D01*
X92390476Y-33054819D02*
X92057143Y-33435771D01*
X92057143Y-33435771D02*
X92200000Y-33435771D01*
X92200000Y-33435771D02*
X92295238Y-33483390D01*
X92295238Y-33483390D02*
X92342857Y-33531009D01*
X92342857Y-33531009D02*
X92390476Y-33626247D01*
X92390476Y-33626247D02*
X92390476Y-33864342D01*
X92390476Y-33864342D02*
X92342857Y-33959580D01*
X92342857Y-33959580D02*
X92295238Y-34007200D01*
X92295238Y-34007200D02*
X92200000Y-34054819D01*
X92200000Y-34054819D02*
X91914286Y-34054819D01*
X91914286Y-34054819D02*
X91819048Y-34007200D01*
X91819048Y-34007200D02*
X91771429Y-33959580D01*
X97359580Y-47966666D02*
X97407200Y-48014285D01*
X97407200Y-48014285D02*
X97454819Y-48157142D01*
X97454819Y-48157142D02*
X97454819Y-48252380D01*
X97454819Y-48252380D02*
X97407200Y-48395237D01*
X97407200Y-48395237D02*
X97311961Y-48490475D01*
X97311961Y-48490475D02*
X97216723Y-48538094D01*
X97216723Y-48538094D02*
X97026247Y-48585713D01*
X97026247Y-48585713D02*
X96883390Y-48585713D01*
X96883390Y-48585713D02*
X96692914Y-48538094D01*
X96692914Y-48538094D02*
X96597676Y-48490475D01*
X96597676Y-48490475D02*
X96502438Y-48395237D01*
X96502438Y-48395237D02*
X96454819Y-48252380D01*
X96454819Y-48252380D02*
X96454819Y-48157142D01*
X96454819Y-48157142D02*
X96502438Y-48014285D01*
X96502438Y-48014285D02*
X96550057Y-47966666D01*
X97454819Y-47490475D02*
X97454819Y-47299999D01*
X97454819Y-47299999D02*
X97407200Y-47204761D01*
X97407200Y-47204761D02*
X97359580Y-47157142D01*
X97359580Y-47157142D02*
X97216723Y-47061904D01*
X97216723Y-47061904D02*
X97026247Y-47014285D01*
X97026247Y-47014285D02*
X96645295Y-47014285D01*
X96645295Y-47014285D02*
X96550057Y-47061904D01*
X96550057Y-47061904D02*
X96502438Y-47109523D01*
X96502438Y-47109523D02*
X96454819Y-47204761D01*
X96454819Y-47204761D02*
X96454819Y-47395237D01*
X96454819Y-47395237D02*
X96502438Y-47490475D01*
X96502438Y-47490475D02*
X96550057Y-47538094D01*
X96550057Y-47538094D02*
X96645295Y-47585713D01*
X96645295Y-47585713D02*
X96883390Y-47585713D01*
X96883390Y-47585713D02*
X96978628Y-47538094D01*
X96978628Y-47538094D02*
X97026247Y-47490475D01*
X97026247Y-47490475D02*
X97073866Y-47395237D01*
X97073866Y-47395237D02*
X97073866Y-47204761D01*
X97073866Y-47204761D02*
X97026247Y-47109523D01*
X97026247Y-47109523D02*
X96978628Y-47061904D01*
X96978628Y-47061904D02*
X96883390Y-47014285D01*
X101533333Y-45554819D02*
X101057143Y-45554819D01*
X101057143Y-45554819D02*
X101057143Y-44554819D01*
X102295238Y-44888152D02*
X102295238Y-45554819D01*
X102057143Y-44507200D02*
X101819048Y-45221485D01*
X101819048Y-45221485D02*
X102438095Y-45221485D01*
X86533333Y-45659580D02*
X86485714Y-45707200D01*
X86485714Y-45707200D02*
X86342857Y-45754819D01*
X86342857Y-45754819D02*
X86247619Y-45754819D01*
X86247619Y-45754819D02*
X86104762Y-45707200D01*
X86104762Y-45707200D02*
X86009524Y-45611961D01*
X86009524Y-45611961D02*
X85961905Y-45516723D01*
X85961905Y-45516723D02*
X85914286Y-45326247D01*
X85914286Y-45326247D02*
X85914286Y-45183390D01*
X85914286Y-45183390D02*
X85961905Y-44992914D01*
X85961905Y-44992914D02*
X86009524Y-44897676D01*
X86009524Y-44897676D02*
X86104762Y-44802438D01*
X86104762Y-44802438D02*
X86247619Y-44754819D01*
X86247619Y-44754819D02*
X86342857Y-44754819D01*
X86342857Y-44754819D02*
X86485714Y-44802438D01*
X86485714Y-44802438D02*
X86533333Y-44850057D01*
X86866667Y-44754819D02*
X87485714Y-44754819D01*
X87485714Y-44754819D02*
X87152381Y-45135771D01*
X87152381Y-45135771D02*
X87295238Y-45135771D01*
X87295238Y-45135771D02*
X87390476Y-45183390D01*
X87390476Y-45183390D02*
X87438095Y-45231009D01*
X87438095Y-45231009D02*
X87485714Y-45326247D01*
X87485714Y-45326247D02*
X87485714Y-45564342D01*
X87485714Y-45564342D02*
X87438095Y-45659580D01*
X87438095Y-45659580D02*
X87390476Y-45707200D01*
X87390476Y-45707200D02*
X87295238Y-45754819D01*
X87295238Y-45754819D02*
X87009524Y-45754819D01*
X87009524Y-45754819D02*
X86914286Y-45707200D01*
X86914286Y-45707200D02*
X86866667Y-45659580D01*
X65504761Y-57950057D02*
X65409523Y-57902438D01*
X65409523Y-57902438D02*
X65314285Y-57807200D01*
X65314285Y-57807200D02*
X65171428Y-57664342D01*
X65171428Y-57664342D02*
X65076190Y-57616723D01*
X65076190Y-57616723D02*
X64980952Y-57616723D01*
X65028571Y-57854819D02*
X64933333Y-57807200D01*
X64933333Y-57807200D02*
X64838095Y-57711961D01*
X64838095Y-57711961D02*
X64790476Y-57521485D01*
X64790476Y-57521485D02*
X64790476Y-57188152D01*
X64790476Y-57188152D02*
X64838095Y-56997676D01*
X64838095Y-56997676D02*
X64933333Y-56902438D01*
X64933333Y-56902438D02*
X65028571Y-56854819D01*
X65028571Y-56854819D02*
X65219047Y-56854819D01*
X65219047Y-56854819D02*
X65314285Y-56902438D01*
X65314285Y-56902438D02*
X65409523Y-56997676D01*
X65409523Y-56997676D02*
X65457142Y-57188152D01*
X65457142Y-57188152D02*
X65457142Y-57521485D01*
X65457142Y-57521485D02*
X65409523Y-57711961D01*
X65409523Y-57711961D02*
X65314285Y-57807200D01*
X65314285Y-57807200D02*
X65219047Y-57854819D01*
X65219047Y-57854819D02*
X65028571Y-57854819D01*
X66409523Y-57854819D02*
X65838095Y-57854819D01*
X66123809Y-57854819D02*
X66123809Y-56854819D01*
X66123809Y-56854819D02*
X66028571Y-56997676D01*
X66028571Y-56997676D02*
X65933333Y-57092914D01*
X65933333Y-57092914D02*
X65838095Y-57140533D01*
X86957142Y-50059580D02*
X86909523Y-50107200D01*
X86909523Y-50107200D02*
X86766666Y-50154819D01*
X86766666Y-50154819D02*
X86671428Y-50154819D01*
X86671428Y-50154819D02*
X86528571Y-50107200D01*
X86528571Y-50107200D02*
X86433333Y-50011961D01*
X86433333Y-50011961D02*
X86385714Y-49916723D01*
X86385714Y-49916723D02*
X86338095Y-49726247D01*
X86338095Y-49726247D02*
X86338095Y-49583390D01*
X86338095Y-49583390D02*
X86385714Y-49392914D01*
X86385714Y-49392914D02*
X86433333Y-49297676D01*
X86433333Y-49297676D02*
X86528571Y-49202438D01*
X86528571Y-49202438D02*
X86671428Y-49154819D01*
X86671428Y-49154819D02*
X86766666Y-49154819D01*
X86766666Y-49154819D02*
X86909523Y-49202438D01*
X86909523Y-49202438D02*
X86957142Y-49250057D01*
X87909523Y-50154819D02*
X87338095Y-50154819D01*
X87623809Y-50154819D02*
X87623809Y-49154819D01*
X87623809Y-49154819D02*
X87528571Y-49297676D01*
X87528571Y-49297676D02*
X87433333Y-49392914D01*
X87433333Y-49392914D02*
X87338095Y-49440533D01*
X88814285Y-49154819D02*
X88338095Y-49154819D01*
X88338095Y-49154819D02*
X88290476Y-49631009D01*
X88290476Y-49631009D02*
X88338095Y-49583390D01*
X88338095Y-49583390D02*
X88433333Y-49535771D01*
X88433333Y-49535771D02*
X88671428Y-49535771D01*
X88671428Y-49535771D02*
X88766666Y-49583390D01*
X88766666Y-49583390D02*
X88814285Y-49631009D01*
X88814285Y-49631009D02*
X88861904Y-49726247D01*
X88861904Y-49726247D02*
X88861904Y-49964342D01*
X88861904Y-49964342D02*
X88814285Y-50059580D01*
X88814285Y-50059580D02*
X88766666Y-50107200D01*
X88766666Y-50107200D02*
X88671428Y-50154819D01*
X88671428Y-50154819D02*
X88433333Y-50154819D01*
X88433333Y-50154819D02*
X88338095Y-50107200D01*
X88338095Y-50107200D02*
X88290476Y-50059580D01*
X98704819Y-38909523D02*
X99704819Y-38242857D01*
X98704819Y-38242857D02*
X99704819Y-38909523D01*
X98800057Y-37909523D02*
X98752438Y-37861904D01*
X98752438Y-37861904D02*
X98704819Y-37766666D01*
X98704819Y-37766666D02*
X98704819Y-37528571D01*
X98704819Y-37528571D02*
X98752438Y-37433333D01*
X98752438Y-37433333D02*
X98800057Y-37385714D01*
X98800057Y-37385714D02*
X98895295Y-37338095D01*
X98895295Y-37338095D02*
X98990533Y-37338095D01*
X98990533Y-37338095D02*
X99133390Y-37385714D01*
X99133390Y-37385714D02*
X99704819Y-37957142D01*
X99704819Y-37957142D02*
X99704819Y-37338095D01*
X103557142Y-42459580D02*
X103509523Y-42507200D01*
X103509523Y-42507200D02*
X103366666Y-42554819D01*
X103366666Y-42554819D02*
X103271428Y-42554819D01*
X103271428Y-42554819D02*
X103128571Y-42507200D01*
X103128571Y-42507200D02*
X103033333Y-42411961D01*
X103033333Y-42411961D02*
X102985714Y-42316723D01*
X102985714Y-42316723D02*
X102938095Y-42126247D01*
X102938095Y-42126247D02*
X102938095Y-41983390D01*
X102938095Y-41983390D02*
X102985714Y-41792914D01*
X102985714Y-41792914D02*
X103033333Y-41697676D01*
X103033333Y-41697676D02*
X103128571Y-41602438D01*
X103128571Y-41602438D02*
X103271428Y-41554819D01*
X103271428Y-41554819D02*
X103366666Y-41554819D01*
X103366666Y-41554819D02*
X103509523Y-41602438D01*
X103509523Y-41602438D02*
X103557142Y-41650057D01*
X103938095Y-41650057D02*
X103985714Y-41602438D01*
X103985714Y-41602438D02*
X104080952Y-41554819D01*
X104080952Y-41554819D02*
X104319047Y-41554819D01*
X104319047Y-41554819D02*
X104414285Y-41602438D01*
X104414285Y-41602438D02*
X104461904Y-41650057D01*
X104461904Y-41650057D02*
X104509523Y-41745295D01*
X104509523Y-41745295D02*
X104509523Y-41840533D01*
X104509523Y-41840533D02*
X104461904Y-41983390D01*
X104461904Y-41983390D02*
X103890476Y-42554819D01*
X103890476Y-42554819D02*
X104509523Y-42554819D01*
X105461904Y-42554819D02*
X104890476Y-42554819D01*
X105176190Y-42554819D02*
X105176190Y-41554819D01*
X105176190Y-41554819D02*
X105080952Y-41697676D01*
X105080952Y-41697676D02*
X104985714Y-41792914D01*
X104985714Y-41792914D02*
X104890476Y-41840533D01*
X72133333Y-50404819D02*
X71657143Y-50404819D01*
X71657143Y-50404819D02*
X71657143Y-49404819D01*
X72990476Y-50404819D02*
X72419048Y-50404819D01*
X72704762Y-50404819D02*
X72704762Y-49404819D01*
X72704762Y-49404819D02*
X72609524Y-49547676D01*
X72609524Y-49547676D02*
X72514286Y-49642914D01*
X72514286Y-49642914D02*
X72419048Y-49690533D01*
X86454819Y-42161904D02*
X87264342Y-42161904D01*
X87264342Y-42161904D02*
X87359580Y-42114285D01*
X87359580Y-42114285D02*
X87407200Y-42066666D01*
X87407200Y-42066666D02*
X87454819Y-41971428D01*
X87454819Y-41971428D02*
X87454819Y-41780952D01*
X87454819Y-41780952D02*
X87407200Y-41685714D01*
X87407200Y-41685714D02*
X87359580Y-41638095D01*
X87359580Y-41638095D02*
X87264342Y-41590476D01*
X87264342Y-41590476D02*
X86454819Y-41590476D01*
X86454819Y-41209523D02*
X86454819Y-40590476D01*
X86454819Y-40590476D02*
X86835771Y-40923809D01*
X86835771Y-40923809D02*
X86835771Y-40780952D01*
X86835771Y-40780952D02*
X86883390Y-40685714D01*
X86883390Y-40685714D02*
X86931009Y-40638095D01*
X86931009Y-40638095D02*
X87026247Y-40590476D01*
X87026247Y-40590476D02*
X87264342Y-40590476D01*
X87264342Y-40590476D02*
X87359580Y-40638095D01*
X87359580Y-40638095D02*
X87407200Y-40685714D01*
X87407200Y-40685714D02*
X87454819Y-40780952D01*
X87454819Y-40780952D02*
X87454819Y-41066666D01*
X87454819Y-41066666D02*
X87407200Y-41161904D01*
X87407200Y-41161904D02*
X87359580Y-41209523D01*
X82979819Y-55861904D02*
X83789342Y-55861904D01*
X83789342Y-55861904D02*
X83884580Y-55814285D01*
X83884580Y-55814285D02*
X83932200Y-55766666D01*
X83932200Y-55766666D02*
X83979819Y-55671428D01*
X83979819Y-55671428D02*
X83979819Y-55480952D01*
X83979819Y-55480952D02*
X83932200Y-55385714D01*
X83932200Y-55385714D02*
X83884580Y-55338095D01*
X83884580Y-55338095D02*
X83789342Y-55290476D01*
X83789342Y-55290476D02*
X82979819Y-55290476D01*
X83313152Y-54385714D02*
X83979819Y-54385714D01*
X82932200Y-54623809D02*
X83646485Y-54861904D01*
X83646485Y-54861904D02*
X83646485Y-54242857D01*
X92607142Y-38009580D02*
X92559523Y-38057200D01*
X92559523Y-38057200D02*
X92416666Y-38104819D01*
X92416666Y-38104819D02*
X92321428Y-38104819D01*
X92321428Y-38104819D02*
X92178571Y-38057200D01*
X92178571Y-38057200D02*
X92083333Y-37961961D01*
X92083333Y-37961961D02*
X92035714Y-37866723D01*
X92035714Y-37866723D02*
X91988095Y-37676247D01*
X91988095Y-37676247D02*
X91988095Y-37533390D01*
X91988095Y-37533390D02*
X92035714Y-37342914D01*
X92035714Y-37342914D02*
X92083333Y-37247676D01*
X92083333Y-37247676D02*
X92178571Y-37152438D01*
X92178571Y-37152438D02*
X92321428Y-37104819D01*
X92321428Y-37104819D02*
X92416666Y-37104819D01*
X92416666Y-37104819D02*
X92559523Y-37152438D01*
X92559523Y-37152438D02*
X92607142Y-37200057D01*
X93559523Y-38104819D02*
X92988095Y-38104819D01*
X93273809Y-38104819D02*
X93273809Y-37104819D01*
X93273809Y-37104819D02*
X93178571Y-37247676D01*
X93178571Y-37247676D02*
X93083333Y-37342914D01*
X93083333Y-37342914D02*
X92988095Y-37390533D01*
X94130952Y-37533390D02*
X94035714Y-37485771D01*
X94035714Y-37485771D02*
X93988095Y-37438152D01*
X93988095Y-37438152D02*
X93940476Y-37342914D01*
X93940476Y-37342914D02*
X93940476Y-37295295D01*
X93940476Y-37295295D02*
X93988095Y-37200057D01*
X93988095Y-37200057D02*
X94035714Y-37152438D01*
X94035714Y-37152438D02*
X94130952Y-37104819D01*
X94130952Y-37104819D02*
X94321428Y-37104819D01*
X94321428Y-37104819D02*
X94416666Y-37152438D01*
X94416666Y-37152438D02*
X94464285Y-37200057D01*
X94464285Y-37200057D02*
X94511904Y-37295295D01*
X94511904Y-37295295D02*
X94511904Y-37342914D01*
X94511904Y-37342914D02*
X94464285Y-37438152D01*
X94464285Y-37438152D02*
X94416666Y-37485771D01*
X94416666Y-37485771D02*
X94321428Y-37533390D01*
X94321428Y-37533390D02*
X94130952Y-37533390D01*
X94130952Y-37533390D02*
X94035714Y-37581009D01*
X94035714Y-37581009D02*
X93988095Y-37628628D01*
X93988095Y-37628628D02*
X93940476Y-37723866D01*
X93940476Y-37723866D02*
X93940476Y-37914342D01*
X93940476Y-37914342D02*
X93988095Y-38009580D01*
X93988095Y-38009580D02*
X94035714Y-38057200D01*
X94035714Y-38057200D02*
X94130952Y-38104819D01*
X94130952Y-38104819D02*
X94321428Y-38104819D01*
X94321428Y-38104819D02*
X94416666Y-38057200D01*
X94416666Y-38057200D02*
X94464285Y-38009580D01*
X94464285Y-38009580D02*
X94511904Y-37914342D01*
X94511904Y-37914342D02*
X94511904Y-37723866D01*
X94511904Y-37723866D02*
X94464285Y-37628628D01*
X94464285Y-37628628D02*
X94416666Y-37581009D01*
X94416666Y-37581009D02*
X94321428Y-37533390D01*
X75533333Y-60484819D02*
X75200000Y-60008628D01*
X74961905Y-60484819D02*
X74961905Y-59484819D01*
X74961905Y-59484819D02*
X75342857Y-59484819D01*
X75342857Y-59484819D02*
X75438095Y-59532438D01*
X75438095Y-59532438D02*
X75485714Y-59580057D01*
X75485714Y-59580057D02*
X75533333Y-59675295D01*
X75533333Y-59675295D02*
X75533333Y-59818152D01*
X75533333Y-59818152D02*
X75485714Y-59913390D01*
X75485714Y-59913390D02*
X75438095Y-59961009D01*
X75438095Y-59961009D02*
X75342857Y-60008628D01*
X75342857Y-60008628D02*
X74961905Y-60008628D01*
X76390476Y-59818152D02*
X76390476Y-60484819D01*
X76152381Y-59437200D02*
X75914286Y-60151485D01*
X75914286Y-60151485D02*
X76533333Y-60151485D01*
X95659580Y-57592857D02*
X95707200Y-57640476D01*
X95707200Y-57640476D02*
X95754819Y-57783333D01*
X95754819Y-57783333D02*
X95754819Y-57878571D01*
X95754819Y-57878571D02*
X95707200Y-58021428D01*
X95707200Y-58021428D02*
X95611961Y-58116666D01*
X95611961Y-58116666D02*
X95516723Y-58164285D01*
X95516723Y-58164285D02*
X95326247Y-58211904D01*
X95326247Y-58211904D02*
X95183390Y-58211904D01*
X95183390Y-58211904D02*
X94992914Y-58164285D01*
X94992914Y-58164285D02*
X94897676Y-58116666D01*
X94897676Y-58116666D02*
X94802438Y-58021428D01*
X94802438Y-58021428D02*
X94754819Y-57878571D01*
X94754819Y-57878571D02*
X94754819Y-57783333D01*
X94754819Y-57783333D02*
X94802438Y-57640476D01*
X94802438Y-57640476D02*
X94850057Y-57592857D01*
X95754819Y-56640476D02*
X95754819Y-57211904D01*
X95754819Y-56926190D02*
X94754819Y-56926190D01*
X94754819Y-56926190D02*
X94897676Y-57021428D01*
X94897676Y-57021428D02*
X94992914Y-57116666D01*
X94992914Y-57116666D02*
X95040533Y-57211904D01*
X95754819Y-56164285D02*
X95754819Y-55973809D01*
X95754819Y-55973809D02*
X95707200Y-55878571D01*
X95707200Y-55878571D02*
X95659580Y-55830952D01*
X95659580Y-55830952D02*
X95516723Y-55735714D01*
X95516723Y-55735714D02*
X95326247Y-55688095D01*
X95326247Y-55688095D02*
X94945295Y-55688095D01*
X94945295Y-55688095D02*
X94850057Y-55735714D01*
X94850057Y-55735714D02*
X94802438Y-55783333D01*
X94802438Y-55783333D02*
X94754819Y-55878571D01*
X94754819Y-55878571D02*
X94754819Y-56069047D01*
X94754819Y-56069047D02*
X94802438Y-56164285D01*
X94802438Y-56164285D02*
X94850057Y-56211904D01*
X94850057Y-56211904D02*
X94945295Y-56259523D01*
X94945295Y-56259523D02*
X95183390Y-56259523D01*
X95183390Y-56259523D02*
X95278628Y-56211904D01*
X95278628Y-56211904D02*
X95326247Y-56164285D01*
X95326247Y-56164285D02*
X95373866Y-56069047D01*
X95373866Y-56069047D02*
X95373866Y-55878571D01*
X95373866Y-55878571D02*
X95326247Y-55783333D01*
X95326247Y-55783333D02*
X95278628Y-55735714D01*
X95278628Y-55735714D02*
X95183390Y-55688095D01*
X90533333Y-37054819D02*
X90057143Y-37054819D01*
X90057143Y-37054819D02*
X90057143Y-36054819D01*
X90819048Y-36150057D02*
X90866667Y-36102438D01*
X90866667Y-36102438D02*
X90961905Y-36054819D01*
X90961905Y-36054819D02*
X91200000Y-36054819D01*
X91200000Y-36054819D02*
X91295238Y-36102438D01*
X91295238Y-36102438D02*
X91342857Y-36150057D01*
X91342857Y-36150057D02*
X91390476Y-36245295D01*
X91390476Y-36245295D02*
X91390476Y-36340533D01*
X91390476Y-36340533D02*
X91342857Y-36483390D01*
X91342857Y-36483390D02*
X90771429Y-37054819D01*
X90771429Y-37054819D02*
X91390476Y-37054819D01*
X98557142Y-40959580D02*
X98509523Y-41007200D01*
X98509523Y-41007200D02*
X98366666Y-41054819D01*
X98366666Y-41054819D02*
X98271428Y-41054819D01*
X98271428Y-41054819D02*
X98128571Y-41007200D01*
X98128571Y-41007200D02*
X98033333Y-40911961D01*
X98033333Y-40911961D02*
X97985714Y-40816723D01*
X97985714Y-40816723D02*
X97938095Y-40626247D01*
X97938095Y-40626247D02*
X97938095Y-40483390D01*
X97938095Y-40483390D02*
X97985714Y-40292914D01*
X97985714Y-40292914D02*
X98033333Y-40197676D01*
X98033333Y-40197676D02*
X98128571Y-40102438D01*
X98128571Y-40102438D02*
X98271428Y-40054819D01*
X98271428Y-40054819D02*
X98366666Y-40054819D01*
X98366666Y-40054819D02*
X98509523Y-40102438D01*
X98509523Y-40102438D02*
X98557142Y-40150057D01*
X99509523Y-41054819D02*
X98938095Y-41054819D01*
X99223809Y-41054819D02*
X99223809Y-40054819D01*
X99223809Y-40054819D02*
X99128571Y-40197676D01*
X99128571Y-40197676D02*
X99033333Y-40292914D01*
X99033333Y-40292914D02*
X98938095Y-40340533D01*
X99890476Y-40150057D02*
X99938095Y-40102438D01*
X99938095Y-40102438D02*
X100033333Y-40054819D01*
X100033333Y-40054819D02*
X100271428Y-40054819D01*
X100271428Y-40054819D02*
X100366666Y-40102438D01*
X100366666Y-40102438D02*
X100414285Y-40150057D01*
X100414285Y-40150057D02*
X100461904Y-40245295D01*
X100461904Y-40245295D02*
X100461904Y-40340533D01*
X100461904Y-40340533D02*
X100414285Y-40483390D01*
X100414285Y-40483390D02*
X99842857Y-41054819D01*
X99842857Y-41054819D02*
X100461904Y-41054819D01*
X84257142Y-37959580D02*
X84209523Y-38007200D01*
X84209523Y-38007200D02*
X84066666Y-38054819D01*
X84066666Y-38054819D02*
X83971428Y-38054819D01*
X83971428Y-38054819D02*
X83828571Y-38007200D01*
X83828571Y-38007200D02*
X83733333Y-37911961D01*
X83733333Y-37911961D02*
X83685714Y-37816723D01*
X83685714Y-37816723D02*
X83638095Y-37626247D01*
X83638095Y-37626247D02*
X83638095Y-37483390D01*
X83638095Y-37483390D02*
X83685714Y-37292914D01*
X83685714Y-37292914D02*
X83733333Y-37197676D01*
X83733333Y-37197676D02*
X83828571Y-37102438D01*
X83828571Y-37102438D02*
X83971428Y-37054819D01*
X83971428Y-37054819D02*
X84066666Y-37054819D01*
X84066666Y-37054819D02*
X84209523Y-37102438D01*
X84209523Y-37102438D02*
X84257142Y-37150057D01*
X85209523Y-38054819D02*
X84638095Y-38054819D01*
X84923809Y-38054819D02*
X84923809Y-37054819D01*
X84923809Y-37054819D02*
X84828571Y-37197676D01*
X84828571Y-37197676D02*
X84733333Y-37292914D01*
X84733333Y-37292914D02*
X84638095Y-37340533D01*
X86161904Y-38054819D02*
X85590476Y-38054819D01*
X85876190Y-38054819D02*
X85876190Y-37054819D01*
X85876190Y-37054819D02*
X85780952Y-37197676D01*
X85780952Y-37197676D02*
X85685714Y-37292914D01*
X85685714Y-37292914D02*
X85590476Y-37340533D01*
X69359580Y-58666666D02*
X69407200Y-58714285D01*
X69407200Y-58714285D02*
X69454819Y-58857142D01*
X69454819Y-58857142D02*
X69454819Y-58952380D01*
X69454819Y-58952380D02*
X69407200Y-59095237D01*
X69407200Y-59095237D02*
X69311961Y-59190475D01*
X69311961Y-59190475D02*
X69216723Y-59238094D01*
X69216723Y-59238094D02*
X69026247Y-59285713D01*
X69026247Y-59285713D02*
X68883390Y-59285713D01*
X68883390Y-59285713D02*
X68692914Y-59238094D01*
X68692914Y-59238094D02*
X68597676Y-59190475D01*
X68597676Y-59190475D02*
X68502438Y-59095237D01*
X68502438Y-59095237D02*
X68454819Y-58952380D01*
X68454819Y-58952380D02*
X68454819Y-58857142D01*
X68454819Y-58857142D02*
X68502438Y-58714285D01*
X68502438Y-58714285D02*
X68550057Y-58666666D01*
X69454819Y-57714285D02*
X69454819Y-58285713D01*
X69454819Y-57999999D02*
X68454819Y-57999999D01*
X68454819Y-57999999D02*
X68597676Y-58095237D01*
X68597676Y-58095237D02*
X68692914Y-58190475D01*
X68692914Y-58190475D02*
X68740533Y-58285713D01*
X84633333Y-45659580D02*
X84585714Y-45707200D01*
X84585714Y-45707200D02*
X84442857Y-45754819D01*
X84442857Y-45754819D02*
X84347619Y-45754819D01*
X84347619Y-45754819D02*
X84204762Y-45707200D01*
X84204762Y-45707200D02*
X84109524Y-45611961D01*
X84109524Y-45611961D02*
X84061905Y-45516723D01*
X84061905Y-45516723D02*
X84014286Y-45326247D01*
X84014286Y-45326247D02*
X84014286Y-45183390D01*
X84014286Y-45183390D02*
X84061905Y-44992914D01*
X84061905Y-44992914D02*
X84109524Y-44897676D01*
X84109524Y-44897676D02*
X84204762Y-44802438D01*
X84204762Y-44802438D02*
X84347619Y-44754819D01*
X84347619Y-44754819D02*
X84442857Y-44754819D01*
X84442857Y-44754819D02*
X84585714Y-44802438D01*
X84585714Y-44802438D02*
X84633333Y-44850057D01*
X85490476Y-44754819D02*
X85300000Y-44754819D01*
X85300000Y-44754819D02*
X85204762Y-44802438D01*
X85204762Y-44802438D02*
X85157143Y-44850057D01*
X85157143Y-44850057D02*
X85061905Y-44992914D01*
X85061905Y-44992914D02*
X85014286Y-45183390D01*
X85014286Y-45183390D02*
X85014286Y-45564342D01*
X85014286Y-45564342D02*
X85061905Y-45659580D01*
X85061905Y-45659580D02*
X85109524Y-45707200D01*
X85109524Y-45707200D02*
X85204762Y-45754819D01*
X85204762Y-45754819D02*
X85395238Y-45754819D01*
X85395238Y-45754819D02*
X85490476Y-45707200D01*
X85490476Y-45707200D02*
X85538095Y-45659580D01*
X85538095Y-45659580D02*
X85585714Y-45564342D01*
X85585714Y-45564342D02*
X85585714Y-45326247D01*
X85585714Y-45326247D02*
X85538095Y-45231009D01*
X85538095Y-45231009D02*
X85490476Y-45183390D01*
X85490476Y-45183390D02*
X85395238Y-45135771D01*
X85395238Y-45135771D02*
X85204762Y-45135771D01*
X85204762Y-45135771D02*
X85109524Y-45183390D01*
X85109524Y-45183390D02*
X85061905Y-45231009D01*
X85061905Y-45231009D02*
X85014286Y-45326247D01*
X74745180Y-53838095D02*
X73935657Y-53838095D01*
X73935657Y-53838095D02*
X73840419Y-53885714D01*
X73840419Y-53885714D02*
X73792800Y-53933333D01*
X73792800Y-53933333D02*
X73745180Y-54028571D01*
X73745180Y-54028571D02*
X73745180Y-54219047D01*
X73745180Y-54219047D02*
X73792800Y-54314285D01*
X73792800Y-54314285D02*
X73840419Y-54361904D01*
X73840419Y-54361904D02*
X73935657Y-54409523D01*
X73935657Y-54409523D02*
X74745180Y-54409523D01*
X73745180Y-55409523D02*
X73745180Y-54838095D01*
X73745180Y-55123809D02*
X74745180Y-55123809D01*
X74745180Y-55123809D02*
X74602323Y-55028571D01*
X74602323Y-55028571D02*
X74507085Y-54933333D01*
X74507085Y-54933333D02*
X74459466Y-54838095D01*
X98654819Y-57617857D02*
X98178628Y-57951190D01*
X98654819Y-58189285D02*
X97654819Y-58189285D01*
X97654819Y-58189285D02*
X97654819Y-57808333D01*
X97654819Y-57808333D02*
X97702438Y-57713095D01*
X97702438Y-57713095D02*
X97750057Y-57665476D01*
X97750057Y-57665476D02*
X97845295Y-57617857D01*
X97845295Y-57617857D02*
X97988152Y-57617857D01*
X97988152Y-57617857D02*
X98083390Y-57665476D01*
X98083390Y-57665476D02*
X98131009Y-57713095D01*
X98131009Y-57713095D02*
X98178628Y-57808333D01*
X98178628Y-57808333D02*
X98178628Y-58189285D01*
X98654819Y-56665476D02*
X98654819Y-57236904D01*
X98654819Y-56951190D02*
X97654819Y-56951190D01*
X97654819Y-56951190D02*
X97797676Y-57046428D01*
X97797676Y-57046428D02*
X97892914Y-57141666D01*
X97892914Y-57141666D02*
X97940533Y-57236904D01*
X97654819Y-56046428D02*
X97654819Y-55951190D01*
X97654819Y-55951190D02*
X97702438Y-55855952D01*
X97702438Y-55855952D02*
X97750057Y-55808333D01*
X97750057Y-55808333D02*
X97845295Y-55760714D01*
X97845295Y-55760714D02*
X98035771Y-55713095D01*
X98035771Y-55713095D02*
X98273866Y-55713095D01*
X98273866Y-55713095D02*
X98464342Y-55760714D01*
X98464342Y-55760714D02*
X98559580Y-55808333D01*
X98559580Y-55808333D02*
X98607200Y-55855952D01*
X98607200Y-55855952D02*
X98654819Y-55951190D01*
X98654819Y-55951190D02*
X98654819Y-56046428D01*
X98654819Y-56046428D02*
X98607200Y-56141666D01*
X98607200Y-56141666D02*
X98559580Y-56189285D01*
X98559580Y-56189285D02*
X98464342Y-56236904D01*
X98464342Y-56236904D02*
X98273866Y-56284523D01*
X98273866Y-56284523D02*
X98035771Y-56284523D01*
X98035771Y-56284523D02*
X97845295Y-56236904D01*
X97845295Y-56236904D02*
X97750057Y-56189285D01*
X97750057Y-56189285D02*
X97702438Y-56141666D01*
X97702438Y-56141666D02*
X97654819Y-56046428D01*
X58833333Y-52354819D02*
X58500000Y-51878628D01*
X58261905Y-52354819D02*
X58261905Y-51354819D01*
X58261905Y-51354819D02*
X58642857Y-51354819D01*
X58642857Y-51354819D02*
X58738095Y-51402438D01*
X58738095Y-51402438D02*
X58785714Y-51450057D01*
X58785714Y-51450057D02*
X58833333Y-51545295D01*
X58833333Y-51545295D02*
X58833333Y-51688152D01*
X58833333Y-51688152D02*
X58785714Y-51783390D01*
X58785714Y-51783390D02*
X58738095Y-51831009D01*
X58738095Y-51831009D02*
X58642857Y-51878628D01*
X58642857Y-51878628D02*
X58261905Y-51878628D01*
X59214286Y-51450057D02*
X59261905Y-51402438D01*
X59261905Y-51402438D02*
X59357143Y-51354819D01*
X59357143Y-51354819D02*
X59595238Y-51354819D01*
X59595238Y-51354819D02*
X59690476Y-51402438D01*
X59690476Y-51402438D02*
X59738095Y-51450057D01*
X59738095Y-51450057D02*
X59785714Y-51545295D01*
X59785714Y-51545295D02*
X59785714Y-51640533D01*
X59785714Y-51640533D02*
X59738095Y-51783390D01*
X59738095Y-51783390D02*
X59166667Y-52354819D01*
X59166667Y-52354819D02*
X59785714Y-52354819D01*
X103054819Y-52738094D02*
X102054819Y-52738094D01*
X102054819Y-52738094D02*
X102054819Y-52499999D01*
X102054819Y-52499999D02*
X102102438Y-52357142D01*
X102102438Y-52357142D02*
X102197676Y-52261904D01*
X102197676Y-52261904D02*
X102292914Y-52214285D01*
X102292914Y-52214285D02*
X102483390Y-52166666D01*
X102483390Y-52166666D02*
X102626247Y-52166666D01*
X102626247Y-52166666D02*
X102816723Y-52214285D01*
X102816723Y-52214285D02*
X102911961Y-52261904D01*
X102911961Y-52261904D02*
X103007200Y-52357142D01*
X103007200Y-52357142D02*
X103054819Y-52499999D01*
X103054819Y-52499999D02*
X103054819Y-52738094D01*
X102054819Y-51833332D02*
X102054819Y-51214285D01*
X102054819Y-51214285D02*
X102435771Y-51547618D01*
X102435771Y-51547618D02*
X102435771Y-51404761D01*
X102435771Y-51404761D02*
X102483390Y-51309523D01*
X102483390Y-51309523D02*
X102531009Y-51261904D01*
X102531009Y-51261904D02*
X102626247Y-51214285D01*
X102626247Y-51214285D02*
X102864342Y-51214285D01*
X102864342Y-51214285D02*
X102959580Y-51261904D01*
X102959580Y-51261904D02*
X103007200Y-51309523D01*
X103007200Y-51309523D02*
X103054819Y-51404761D01*
X103054819Y-51404761D02*
X103054819Y-51690475D01*
X103054819Y-51690475D02*
X103007200Y-51785713D01*
X103007200Y-51785713D02*
X102959580Y-51833332D01*
X62745833Y-59354819D02*
X62412500Y-58878628D01*
X62174405Y-59354819D02*
X62174405Y-58354819D01*
X62174405Y-58354819D02*
X62555357Y-58354819D01*
X62555357Y-58354819D02*
X62650595Y-58402438D01*
X62650595Y-58402438D02*
X62698214Y-58450057D01*
X62698214Y-58450057D02*
X62745833Y-58545295D01*
X62745833Y-58545295D02*
X62745833Y-58688152D01*
X62745833Y-58688152D02*
X62698214Y-58783390D01*
X62698214Y-58783390D02*
X62650595Y-58831009D01*
X62650595Y-58831009D02*
X62555357Y-58878628D01*
X62555357Y-58878628D02*
X62174405Y-58878628D01*
X63698214Y-59354819D02*
X63126786Y-59354819D01*
X63412500Y-59354819D02*
X63412500Y-58354819D01*
X63412500Y-58354819D02*
X63317262Y-58497676D01*
X63317262Y-58497676D02*
X63222024Y-58592914D01*
X63222024Y-58592914D02*
X63126786Y-58640533D01*
X93954819Y-54566666D02*
X93478628Y-54899999D01*
X93954819Y-55138094D02*
X92954819Y-55138094D01*
X92954819Y-55138094D02*
X92954819Y-54757142D01*
X92954819Y-54757142D02*
X93002438Y-54661904D01*
X93002438Y-54661904D02*
X93050057Y-54614285D01*
X93050057Y-54614285D02*
X93145295Y-54566666D01*
X93145295Y-54566666D02*
X93288152Y-54566666D01*
X93288152Y-54566666D02*
X93383390Y-54614285D01*
X93383390Y-54614285D02*
X93431009Y-54661904D01*
X93431009Y-54661904D02*
X93478628Y-54757142D01*
X93478628Y-54757142D02*
X93478628Y-55138094D01*
X93383390Y-53995237D02*
X93335771Y-54090475D01*
X93335771Y-54090475D02*
X93288152Y-54138094D01*
X93288152Y-54138094D02*
X93192914Y-54185713D01*
X93192914Y-54185713D02*
X93145295Y-54185713D01*
X93145295Y-54185713D02*
X93050057Y-54138094D01*
X93050057Y-54138094D02*
X93002438Y-54090475D01*
X93002438Y-54090475D02*
X92954819Y-53995237D01*
X92954819Y-53995237D02*
X92954819Y-53804761D01*
X92954819Y-53804761D02*
X93002438Y-53709523D01*
X93002438Y-53709523D02*
X93050057Y-53661904D01*
X93050057Y-53661904D02*
X93145295Y-53614285D01*
X93145295Y-53614285D02*
X93192914Y-53614285D01*
X93192914Y-53614285D02*
X93288152Y-53661904D01*
X93288152Y-53661904D02*
X93335771Y-53709523D01*
X93335771Y-53709523D02*
X93383390Y-53804761D01*
X93383390Y-53804761D02*
X93383390Y-53995237D01*
X93383390Y-53995237D02*
X93431009Y-54090475D01*
X93431009Y-54090475D02*
X93478628Y-54138094D01*
X93478628Y-54138094D02*
X93573866Y-54185713D01*
X93573866Y-54185713D02*
X93764342Y-54185713D01*
X93764342Y-54185713D02*
X93859580Y-54138094D01*
X93859580Y-54138094D02*
X93907200Y-54090475D01*
X93907200Y-54090475D02*
X93954819Y-53995237D01*
X93954819Y-53995237D02*
X93954819Y-53804761D01*
X93954819Y-53804761D02*
X93907200Y-53709523D01*
X93907200Y-53709523D02*
X93859580Y-53661904D01*
X93859580Y-53661904D02*
X93764342Y-53614285D01*
X93764342Y-53614285D02*
X93573866Y-53614285D01*
X93573866Y-53614285D02*
X93478628Y-53661904D01*
X93478628Y-53661904D02*
X93431009Y-53709523D01*
X93431009Y-53709523D02*
X93383390Y-53804761D01*
X58683333Y-39604819D02*
X58350000Y-39128628D01*
X58111905Y-39604819D02*
X58111905Y-38604819D01*
X58111905Y-38604819D02*
X58492857Y-38604819D01*
X58492857Y-38604819D02*
X58588095Y-38652438D01*
X58588095Y-38652438D02*
X58635714Y-38700057D01*
X58635714Y-38700057D02*
X58683333Y-38795295D01*
X58683333Y-38795295D02*
X58683333Y-38938152D01*
X58683333Y-38938152D02*
X58635714Y-39033390D01*
X58635714Y-39033390D02*
X58588095Y-39081009D01*
X58588095Y-39081009D02*
X58492857Y-39128628D01*
X58492857Y-39128628D02*
X58111905Y-39128628D01*
X59016667Y-38604819D02*
X59635714Y-38604819D01*
X59635714Y-38604819D02*
X59302381Y-38985771D01*
X59302381Y-38985771D02*
X59445238Y-38985771D01*
X59445238Y-38985771D02*
X59540476Y-39033390D01*
X59540476Y-39033390D02*
X59588095Y-39081009D01*
X59588095Y-39081009D02*
X59635714Y-39176247D01*
X59635714Y-39176247D02*
X59635714Y-39414342D01*
X59635714Y-39414342D02*
X59588095Y-39509580D01*
X59588095Y-39509580D02*
X59540476Y-39557200D01*
X59540476Y-39557200D02*
X59445238Y-39604819D01*
X59445238Y-39604819D02*
X59159524Y-39604819D01*
X59159524Y-39604819D02*
X59064286Y-39557200D01*
X59064286Y-39557200D02*
X59016667Y-39509580D01*
X97833333Y-51259580D02*
X97785714Y-51307200D01*
X97785714Y-51307200D02*
X97642857Y-51354819D01*
X97642857Y-51354819D02*
X97547619Y-51354819D01*
X97547619Y-51354819D02*
X97404762Y-51307200D01*
X97404762Y-51307200D02*
X97309524Y-51211961D01*
X97309524Y-51211961D02*
X97261905Y-51116723D01*
X97261905Y-51116723D02*
X97214286Y-50926247D01*
X97214286Y-50926247D02*
X97214286Y-50783390D01*
X97214286Y-50783390D02*
X97261905Y-50592914D01*
X97261905Y-50592914D02*
X97309524Y-50497676D01*
X97309524Y-50497676D02*
X97404762Y-50402438D01*
X97404762Y-50402438D02*
X97547619Y-50354819D01*
X97547619Y-50354819D02*
X97642857Y-50354819D01*
X97642857Y-50354819D02*
X97785714Y-50402438D01*
X97785714Y-50402438D02*
X97833333Y-50450057D01*
X98738095Y-50354819D02*
X98261905Y-50354819D01*
X98261905Y-50354819D02*
X98214286Y-50831009D01*
X98214286Y-50831009D02*
X98261905Y-50783390D01*
X98261905Y-50783390D02*
X98357143Y-50735771D01*
X98357143Y-50735771D02*
X98595238Y-50735771D01*
X98595238Y-50735771D02*
X98690476Y-50783390D01*
X98690476Y-50783390D02*
X98738095Y-50831009D01*
X98738095Y-50831009D02*
X98785714Y-50926247D01*
X98785714Y-50926247D02*
X98785714Y-51164342D01*
X98785714Y-51164342D02*
X98738095Y-51259580D01*
X98738095Y-51259580D02*
X98690476Y-51307200D01*
X98690476Y-51307200D02*
X98595238Y-51354819D01*
X98595238Y-51354819D02*
X98357143Y-51354819D01*
X98357143Y-51354819D02*
X98261905Y-51307200D01*
X98261905Y-51307200D02*
X98214286Y-51259580D01*
X95954819Y-54566666D02*
X95478628Y-54899999D01*
X95954819Y-55138094D02*
X94954819Y-55138094D01*
X94954819Y-55138094D02*
X94954819Y-54757142D01*
X94954819Y-54757142D02*
X95002438Y-54661904D01*
X95002438Y-54661904D02*
X95050057Y-54614285D01*
X95050057Y-54614285D02*
X95145295Y-54566666D01*
X95145295Y-54566666D02*
X95288152Y-54566666D01*
X95288152Y-54566666D02*
X95383390Y-54614285D01*
X95383390Y-54614285D02*
X95431009Y-54661904D01*
X95431009Y-54661904D02*
X95478628Y-54757142D01*
X95478628Y-54757142D02*
X95478628Y-55138094D01*
X94954819Y-54233332D02*
X94954819Y-53566666D01*
X94954819Y-53566666D02*
X95954819Y-53995237D01*
X85357142Y-57809580D02*
X85309523Y-57857200D01*
X85309523Y-57857200D02*
X85166666Y-57904819D01*
X85166666Y-57904819D02*
X85071428Y-57904819D01*
X85071428Y-57904819D02*
X84928571Y-57857200D01*
X84928571Y-57857200D02*
X84833333Y-57761961D01*
X84833333Y-57761961D02*
X84785714Y-57666723D01*
X84785714Y-57666723D02*
X84738095Y-57476247D01*
X84738095Y-57476247D02*
X84738095Y-57333390D01*
X84738095Y-57333390D02*
X84785714Y-57142914D01*
X84785714Y-57142914D02*
X84833333Y-57047676D01*
X84833333Y-57047676D02*
X84928571Y-56952438D01*
X84928571Y-56952438D02*
X85071428Y-56904819D01*
X85071428Y-56904819D02*
X85166666Y-56904819D01*
X85166666Y-56904819D02*
X85309523Y-56952438D01*
X85309523Y-56952438D02*
X85357142Y-57000057D01*
X86309523Y-57904819D02*
X85738095Y-57904819D01*
X86023809Y-57904819D02*
X86023809Y-56904819D01*
X86023809Y-56904819D02*
X85928571Y-57047676D01*
X85928571Y-57047676D02*
X85833333Y-57142914D01*
X85833333Y-57142914D02*
X85738095Y-57190533D01*
X86642857Y-56904819D02*
X87309523Y-56904819D01*
X87309523Y-56904819D02*
X86880952Y-57904819D01*
X85554819Y-54009523D02*
X86554819Y-53342857D01*
X85554819Y-53342857D02*
X86554819Y-54009523D01*
X86554819Y-52438095D02*
X86554819Y-53009523D01*
X86554819Y-52723809D02*
X85554819Y-52723809D01*
X85554819Y-52723809D02*
X85697676Y-52819047D01*
X85697676Y-52819047D02*
X85792914Y-52914285D01*
X85792914Y-52914285D02*
X85840533Y-53009523D01*
X80157142Y-60559580D02*
X80109523Y-60607200D01*
X80109523Y-60607200D02*
X79966666Y-60654819D01*
X79966666Y-60654819D02*
X79871428Y-60654819D01*
X79871428Y-60654819D02*
X79728571Y-60607200D01*
X79728571Y-60607200D02*
X79633333Y-60511961D01*
X79633333Y-60511961D02*
X79585714Y-60416723D01*
X79585714Y-60416723D02*
X79538095Y-60226247D01*
X79538095Y-60226247D02*
X79538095Y-60083390D01*
X79538095Y-60083390D02*
X79585714Y-59892914D01*
X79585714Y-59892914D02*
X79633333Y-59797676D01*
X79633333Y-59797676D02*
X79728571Y-59702438D01*
X79728571Y-59702438D02*
X79871428Y-59654819D01*
X79871428Y-59654819D02*
X79966666Y-59654819D01*
X79966666Y-59654819D02*
X80109523Y-59702438D01*
X80109523Y-59702438D02*
X80157142Y-59750057D01*
X81109523Y-60654819D02*
X80538095Y-60654819D01*
X80823809Y-60654819D02*
X80823809Y-59654819D01*
X80823809Y-59654819D02*
X80728571Y-59797676D01*
X80728571Y-59797676D02*
X80633333Y-59892914D01*
X80633333Y-59892914D02*
X80538095Y-59940533D01*
X81442857Y-59654819D02*
X82061904Y-59654819D01*
X82061904Y-59654819D02*
X81728571Y-60035771D01*
X81728571Y-60035771D02*
X81871428Y-60035771D01*
X81871428Y-60035771D02*
X81966666Y-60083390D01*
X81966666Y-60083390D02*
X82014285Y-60131009D01*
X82014285Y-60131009D02*
X82061904Y-60226247D01*
X82061904Y-60226247D02*
X82061904Y-60464342D01*
X82061904Y-60464342D02*
X82014285Y-60559580D01*
X82014285Y-60559580D02*
X81966666Y-60607200D01*
X81966666Y-60607200D02*
X81871428Y-60654819D01*
X81871428Y-60654819D02*
X81585714Y-60654819D01*
X81585714Y-60654819D02*
X81490476Y-60607200D01*
X81490476Y-60607200D02*
X81442857Y-60559580D01*
X85133333Y-36159580D02*
X85085714Y-36207200D01*
X85085714Y-36207200D02*
X84942857Y-36254819D01*
X84942857Y-36254819D02*
X84847619Y-36254819D01*
X84847619Y-36254819D02*
X84704762Y-36207200D01*
X84704762Y-36207200D02*
X84609524Y-36111961D01*
X84609524Y-36111961D02*
X84561905Y-36016723D01*
X84561905Y-36016723D02*
X84514286Y-35826247D01*
X84514286Y-35826247D02*
X84514286Y-35683390D01*
X84514286Y-35683390D02*
X84561905Y-35492914D01*
X84561905Y-35492914D02*
X84609524Y-35397676D01*
X84609524Y-35397676D02*
X84704762Y-35302438D01*
X84704762Y-35302438D02*
X84847619Y-35254819D01*
X84847619Y-35254819D02*
X84942857Y-35254819D01*
X84942857Y-35254819D02*
X85085714Y-35302438D01*
X85085714Y-35302438D02*
X85133333Y-35350057D01*
X85704762Y-35683390D02*
X85609524Y-35635771D01*
X85609524Y-35635771D02*
X85561905Y-35588152D01*
X85561905Y-35588152D02*
X85514286Y-35492914D01*
X85514286Y-35492914D02*
X85514286Y-35445295D01*
X85514286Y-35445295D02*
X85561905Y-35350057D01*
X85561905Y-35350057D02*
X85609524Y-35302438D01*
X85609524Y-35302438D02*
X85704762Y-35254819D01*
X85704762Y-35254819D02*
X85895238Y-35254819D01*
X85895238Y-35254819D02*
X85990476Y-35302438D01*
X85990476Y-35302438D02*
X86038095Y-35350057D01*
X86038095Y-35350057D02*
X86085714Y-35445295D01*
X86085714Y-35445295D02*
X86085714Y-35492914D01*
X86085714Y-35492914D02*
X86038095Y-35588152D01*
X86038095Y-35588152D02*
X85990476Y-35635771D01*
X85990476Y-35635771D02*
X85895238Y-35683390D01*
X85895238Y-35683390D02*
X85704762Y-35683390D01*
X85704762Y-35683390D02*
X85609524Y-35731009D01*
X85609524Y-35731009D02*
X85561905Y-35778628D01*
X85561905Y-35778628D02*
X85514286Y-35873866D01*
X85514286Y-35873866D02*
X85514286Y-36064342D01*
X85514286Y-36064342D02*
X85561905Y-36159580D01*
X85561905Y-36159580D02*
X85609524Y-36207200D01*
X85609524Y-36207200D02*
X85704762Y-36254819D01*
X85704762Y-36254819D02*
X85895238Y-36254819D01*
X85895238Y-36254819D02*
X85990476Y-36207200D01*
X85990476Y-36207200D02*
X86038095Y-36159580D01*
X86038095Y-36159580D02*
X86085714Y-36064342D01*
X86085714Y-36064342D02*
X86085714Y-35873866D01*
X86085714Y-35873866D02*
X86038095Y-35778628D01*
X86038095Y-35778628D02*
X85990476Y-35731009D01*
X85990476Y-35731009D02*
X85895238Y-35683390D01*
X90257142Y-50059580D02*
X90209523Y-50107200D01*
X90209523Y-50107200D02*
X90066666Y-50154819D01*
X90066666Y-50154819D02*
X89971428Y-50154819D01*
X89971428Y-50154819D02*
X89828571Y-50107200D01*
X89828571Y-50107200D02*
X89733333Y-50011961D01*
X89733333Y-50011961D02*
X89685714Y-49916723D01*
X89685714Y-49916723D02*
X89638095Y-49726247D01*
X89638095Y-49726247D02*
X89638095Y-49583390D01*
X89638095Y-49583390D02*
X89685714Y-49392914D01*
X89685714Y-49392914D02*
X89733333Y-49297676D01*
X89733333Y-49297676D02*
X89828571Y-49202438D01*
X89828571Y-49202438D02*
X89971428Y-49154819D01*
X89971428Y-49154819D02*
X90066666Y-49154819D01*
X90066666Y-49154819D02*
X90209523Y-49202438D01*
X90209523Y-49202438D02*
X90257142Y-49250057D01*
X91209523Y-50154819D02*
X90638095Y-50154819D01*
X90923809Y-50154819D02*
X90923809Y-49154819D01*
X90923809Y-49154819D02*
X90828571Y-49297676D01*
X90828571Y-49297676D02*
X90733333Y-49392914D01*
X90733333Y-49392914D02*
X90638095Y-49440533D01*
X92066666Y-49488152D02*
X92066666Y-50154819D01*
X91828571Y-49107200D02*
X91590476Y-49821485D01*
X91590476Y-49821485D02*
X92209523Y-49821485D01*
X80132142Y-50359580D02*
X80084523Y-50407200D01*
X80084523Y-50407200D02*
X79941666Y-50454819D01*
X79941666Y-50454819D02*
X79846428Y-50454819D01*
X79846428Y-50454819D02*
X79703571Y-50407200D01*
X79703571Y-50407200D02*
X79608333Y-50311961D01*
X79608333Y-50311961D02*
X79560714Y-50216723D01*
X79560714Y-50216723D02*
X79513095Y-50026247D01*
X79513095Y-50026247D02*
X79513095Y-49883390D01*
X79513095Y-49883390D02*
X79560714Y-49692914D01*
X79560714Y-49692914D02*
X79608333Y-49597676D01*
X79608333Y-49597676D02*
X79703571Y-49502438D01*
X79703571Y-49502438D02*
X79846428Y-49454819D01*
X79846428Y-49454819D02*
X79941666Y-49454819D01*
X79941666Y-49454819D02*
X80084523Y-49502438D01*
X80084523Y-49502438D02*
X80132142Y-49550057D01*
X81084523Y-50454819D02*
X80513095Y-50454819D01*
X80798809Y-50454819D02*
X80798809Y-49454819D01*
X80798809Y-49454819D02*
X80703571Y-49597676D01*
X80703571Y-49597676D02*
X80608333Y-49692914D01*
X80608333Y-49692914D02*
X80513095Y-49740533D01*
X81941666Y-49454819D02*
X81751190Y-49454819D01*
X81751190Y-49454819D02*
X81655952Y-49502438D01*
X81655952Y-49502438D02*
X81608333Y-49550057D01*
X81608333Y-49550057D02*
X81513095Y-49692914D01*
X81513095Y-49692914D02*
X81465476Y-49883390D01*
X81465476Y-49883390D02*
X81465476Y-50264342D01*
X81465476Y-50264342D02*
X81513095Y-50359580D01*
X81513095Y-50359580D02*
X81560714Y-50407200D01*
X81560714Y-50407200D02*
X81655952Y-50454819D01*
X81655952Y-50454819D02*
X81846428Y-50454819D01*
X81846428Y-50454819D02*
X81941666Y-50407200D01*
X81941666Y-50407200D02*
X81989285Y-50359580D01*
X81989285Y-50359580D02*
X82036904Y-50264342D01*
X82036904Y-50264342D02*
X82036904Y-50026247D01*
X82036904Y-50026247D02*
X81989285Y-49931009D01*
X81989285Y-49931009D02*
X81941666Y-49883390D01*
X81941666Y-49883390D02*
X81846428Y-49835771D01*
X81846428Y-49835771D02*
X81655952Y-49835771D01*
X81655952Y-49835771D02*
X81560714Y-49883390D01*
X81560714Y-49883390D02*
X81513095Y-49931009D01*
X81513095Y-49931009D02*
X81465476Y-50026247D01*
X98557142Y-42459580D02*
X98509523Y-42507200D01*
X98509523Y-42507200D02*
X98366666Y-42554819D01*
X98366666Y-42554819D02*
X98271428Y-42554819D01*
X98271428Y-42554819D02*
X98128571Y-42507200D01*
X98128571Y-42507200D02*
X98033333Y-42411961D01*
X98033333Y-42411961D02*
X97985714Y-42316723D01*
X97985714Y-42316723D02*
X97938095Y-42126247D01*
X97938095Y-42126247D02*
X97938095Y-41983390D01*
X97938095Y-41983390D02*
X97985714Y-41792914D01*
X97985714Y-41792914D02*
X98033333Y-41697676D01*
X98033333Y-41697676D02*
X98128571Y-41602438D01*
X98128571Y-41602438D02*
X98271428Y-41554819D01*
X98271428Y-41554819D02*
X98366666Y-41554819D01*
X98366666Y-41554819D02*
X98509523Y-41602438D01*
X98509523Y-41602438D02*
X98557142Y-41650057D01*
X98938095Y-41650057D02*
X98985714Y-41602438D01*
X98985714Y-41602438D02*
X99080952Y-41554819D01*
X99080952Y-41554819D02*
X99319047Y-41554819D01*
X99319047Y-41554819D02*
X99414285Y-41602438D01*
X99414285Y-41602438D02*
X99461904Y-41650057D01*
X99461904Y-41650057D02*
X99509523Y-41745295D01*
X99509523Y-41745295D02*
X99509523Y-41840533D01*
X99509523Y-41840533D02*
X99461904Y-41983390D01*
X99461904Y-41983390D02*
X98890476Y-42554819D01*
X98890476Y-42554819D02*
X99509523Y-42554819D01*
X100128571Y-41554819D02*
X100223809Y-41554819D01*
X100223809Y-41554819D02*
X100319047Y-41602438D01*
X100319047Y-41602438D02*
X100366666Y-41650057D01*
X100366666Y-41650057D02*
X100414285Y-41745295D01*
X100414285Y-41745295D02*
X100461904Y-41935771D01*
X100461904Y-41935771D02*
X100461904Y-42173866D01*
X100461904Y-42173866D02*
X100414285Y-42364342D01*
X100414285Y-42364342D02*
X100366666Y-42459580D01*
X100366666Y-42459580D02*
X100319047Y-42507200D01*
X100319047Y-42507200D02*
X100223809Y-42554819D01*
X100223809Y-42554819D02*
X100128571Y-42554819D01*
X100128571Y-42554819D02*
X100033333Y-42507200D01*
X100033333Y-42507200D02*
X99985714Y-42459580D01*
X99985714Y-42459580D02*
X99938095Y-42364342D01*
X99938095Y-42364342D02*
X99890476Y-42173866D01*
X99890476Y-42173866D02*
X99890476Y-41935771D01*
X99890476Y-41935771D02*
X99938095Y-41745295D01*
X99938095Y-41745295D02*
X99985714Y-41650057D01*
X99985714Y-41650057D02*
X100033333Y-41602438D01*
X100033333Y-41602438D02*
X100128571Y-41554819D01*
X90254819Y-57191666D02*
X89778628Y-57524999D01*
X90254819Y-57763094D02*
X89254819Y-57763094D01*
X89254819Y-57763094D02*
X89254819Y-57382142D01*
X89254819Y-57382142D02*
X89302438Y-57286904D01*
X89302438Y-57286904D02*
X89350057Y-57239285D01*
X89350057Y-57239285D02*
X89445295Y-57191666D01*
X89445295Y-57191666D02*
X89588152Y-57191666D01*
X89588152Y-57191666D02*
X89683390Y-57239285D01*
X89683390Y-57239285D02*
X89731009Y-57286904D01*
X89731009Y-57286904D02*
X89778628Y-57382142D01*
X89778628Y-57382142D02*
X89778628Y-57763094D01*
X90254819Y-56715475D02*
X90254819Y-56524999D01*
X90254819Y-56524999D02*
X90207200Y-56429761D01*
X90207200Y-56429761D02*
X90159580Y-56382142D01*
X90159580Y-56382142D02*
X90016723Y-56286904D01*
X90016723Y-56286904D02*
X89826247Y-56239285D01*
X89826247Y-56239285D02*
X89445295Y-56239285D01*
X89445295Y-56239285D02*
X89350057Y-56286904D01*
X89350057Y-56286904D02*
X89302438Y-56334523D01*
X89302438Y-56334523D02*
X89254819Y-56429761D01*
X89254819Y-56429761D02*
X89254819Y-56620237D01*
X89254819Y-56620237D02*
X89302438Y-56715475D01*
X89302438Y-56715475D02*
X89350057Y-56763094D01*
X89350057Y-56763094D02*
X89445295Y-56810713D01*
X89445295Y-56810713D02*
X89683390Y-56810713D01*
X89683390Y-56810713D02*
X89778628Y-56763094D01*
X89778628Y-56763094D02*
X89826247Y-56715475D01*
X89826247Y-56715475D02*
X89873866Y-56620237D01*
X89873866Y-56620237D02*
X89873866Y-56429761D01*
X89873866Y-56429761D02*
X89826247Y-56334523D01*
X89826247Y-56334523D02*
X89778628Y-56286904D01*
X89778628Y-56286904D02*
X89683390Y-56239285D01*
X105454819Y-52166666D02*
X104978628Y-52499999D01*
X105454819Y-52738094D02*
X104454819Y-52738094D01*
X104454819Y-52738094D02*
X104454819Y-52357142D01*
X104454819Y-52357142D02*
X104502438Y-52261904D01*
X104502438Y-52261904D02*
X104550057Y-52214285D01*
X104550057Y-52214285D02*
X104645295Y-52166666D01*
X104645295Y-52166666D02*
X104788152Y-52166666D01*
X104788152Y-52166666D02*
X104883390Y-52214285D01*
X104883390Y-52214285D02*
X104931009Y-52261904D01*
X104931009Y-52261904D02*
X104978628Y-52357142D01*
X104978628Y-52357142D02*
X104978628Y-52738094D01*
X104454819Y-51309523D02*
X104454819Y-51499999D01*
X104454819Y-51499999D02*
X104502438Y-51595237D01*
X104502438Y-51595237D02*
X104550057Y-51642856D01*
X104550057Y-51642856D02*
X104692914Y-51738094D01*
X104692914Y-51738094D02*
X104883390Y-51785713D01*
X104883390Y-51785713D02*
X105264342Y-51785713D01*
X105264342Y-51785713D02*
X105359580Y-51738094D01*
X105359580Y-51738094D02*
X105407200Y-51690475D01*
X105407200Y-51690475D02*
X105454819Y-51595237D01*
X105454819Y-51595237D02*
X105454819Y-51404761D01*
X105454819Y-51404761D02*
X105407200Y-51309523D01*
X105407200Y-51309523D02*
X105359580Y-51261904D01*
X105359580Y-51261904D02*
X105264342Y-51214285D01*
X105264342Y-51214285D02*
X105026247Y-51214285D01*
X105026247Y-51214285D02*
X104931009Y-51261904D01*
X104931009Y-51261904D02*
X104883390Y-51309523D01*
X104883390Y-51309523D02*
X104835771Y-51404761D01*
X104835771Y-51404761D02*
X104835771Y-51595237D01*
X104835771Y-51595237D02*
X104883390Y-51690475D01*
X104883390Y-51690475D02*
X104931009Y-51738094D01*
X104931009Y-51738094D02*
X105026247Y-51785713D01*
X68938095Y-42514819D02*
X68938095Y-43324342D01*
X68938095Y-43324342D02*
X68985714Y-43419580D01*
X68985714Y-43419580D02*
X69033333Y-43467200D01*
X69033333Y-43467200D02*
X69128571Y-43514819D01*
X69128571Y-43514819D02*
X69319047Y-43514819D01*
X69319047Y-43514819D02*
X69414285Y-43467200D01*
X69414285Y-43467200D02*
X69461904Y-43419580D01*
X69461904Y-43419580D02*
X69509523Y-43324342D01*
X69509523Y-43324342D02*
X69509523Y-42514819D01*
X69938095Y-42610057D02*
X69985714Y-42562438D01*
X69985714Y-42562438D02*
X70080952Y-42514819D01*
X70080952Y-42514819D02*
X70319047Y-42514819D01*
X70319047Y-42514819D02*
X70414285Y-42562438D01*
X70414285Y-42562438D02*
X70461904Y-42610057D01*
X70461904Y-42610057D02*
X70509523Y-42705295D01*
X70509523Y-42705295D02*
X70509523Y-42800533D01*
X70509523Y-42800533D02*
X70461904Y-42943390D01*
X70461904Y-42943390D02*
X69890476Y-43514819D01*
X69890476Y-43514819D02*
X70509523Y-43514819D01*
X78359580Y-55366666D02*
X78407200Y-55414285D01*
X78407200Y-55414285D02*
X78454819Y-55557142D01*
X78454819Y-55557142D02*
X78454819Y-55652380D01*
X78454819Y-55652380D02*
X78407200Y-55795237D01*
X78407200Y-55795237D02*
X78311961Y-55890475D01*
X78311961Y-55890475D02*
X78216723Y-55938094D01*
X78216723Y-55938094D02*
X78026247Y-55985713D01*
X78026247Y-55985713D02*
X77883390Y-55985713D01*
X77883390Y-55985713D02*
X77692914Y-55938094D01*
X77692914Y-55938094D02*
X77597676Y-55890475D01*
X77597676Y-55890475D02*
X77502438Y-55795237D01*
X77502438Y-55795237D02*
X77454819Y-55652380D01*
X77454819Y-55652380D02*
X77454819Y-55557142D01*
X77454819Y-55557142D02*
X77502438Y-55414285D01*
X77502438Y-55414285D02*
X77550057Y-55366666D01*
X77454819Y-55033332D02*
X77454819Y-54366666D01*
X77454819Y-54366666D02*
X78454819Y-54795237D01*
X83683333Y-42459580D02*
X83635714Y-42507200D01*
X83635714Y-42507200D02*
X83492857Y-42554819D01*
X83492857Y-42554819D02*
X83397619Y-42554819D01*
X83397619Y-42554819D02*
X83254762Y-42507200D01*
X83254762Y-42507200D02*
X83159524Y-42411961D01*
X83159524Y-42411961D02*
X83111905Y-42316723D01*
X83111905Y-42316723D02*
X83064286Y-42126247D01*
X83064286Y-42126247D02*
X83064286Y-41983390D01*
X83064286Y-41983390D02*
X83111905Y-41792914D01*
X83111905Y-41792914D02*
X83159524Y-41697676D01*
X83159524Y-41697676D02*
X83254762Y-41602438D01*
X83254762Y-41602438D02*
X83397619Y-41554819D01*
X83397619Y-41554819D02*
X83492857Y-41554819D01*
X83492857Y-41554819D02*
X83635714Y-41602438D01*
X83635714Y-41602438D02*
X83683333Y-41650057D01*
X84540476Y-41888152D02*
X84540476Y-42554819D01*
X84302381Y-41507200D02*
X84064286Y-42221485D01*
X84064286Y-42221485D02*
X84683333Y-42221485D01*
X60567319Y-55978094D02*
X59567319Y-55978094D01*
X59567319Y-55978094D02*
X59567319Y-55739999D01*
X59567319Y-55739999D02*
X59614938Y-55597142D01*
X59614938Y-55597142D02*
X59710176Y-55501904D01*
X59710176Y-55501904D02*
X59805414Y-55454285D01*
X59805414Y-55454285D02*
X59995890Y-55406666D01*
X59995890Y-55406666D02*
X60138747Y-55406666D01*
X60138747Y-55406666D02*
X60329223Y-55454285D01*
X60329223Y-55454285D02*
X60424461Y-55501904D01*
X60424461Y-55501904D02*
X60519700Y-55597142D01*
X60519700Y-55597142D02*
X60567319Y-55739999D01*
X60567319Y-55739999D02*
X60567319Y-55978094D01*
X60567319Y-54454285D02*
X60567319Y-55025713D01*
X60567319Y-54739999D02*
X59567319Y-54739999D01*
X59567319Y-54739999D02*
X59710176Y-54835237D01*
X59710176Y-54835237D02*
X59805414Y-54930475D01*
X59805414Y-54930475D02*
X59853033Y-55025713D01*
X84257142Y-39859580D02*
X84209523Y-39907200D01*
X84209523Y-39907200D02*
X84066666Y-39954819D01*
X84066666Y-39954819D02*
X83971428Y-39954819D01*
X83971428Y-39954819D02*
X83828571Y-39907200D01*
X83828571Y-39907200D02*
X83733333Y-39811961D01*
X83733333Y-39811961D02*
X83685714Y-39716723D01*
X83685714Y-39716723D02*
X83638095Y-39526247D01*
X83638095Y-39526247D02*
X83638095Y-39383390D01*
X83638095Y-39383390D02*
X83685714Y-39192914D01*
X83685714Y-39192914D02*
X83733333Y-39097676D01*
X83733333Y-39097676D02*
X83828571Y-39002438D01*
X83828571Y-39002438D02*
X83971428Y-38954819D01*
X83971428Y-38954819D02*
X84066666Y-38954819D01*
X84066666Y-38954819D02*
X84209523Y-39002438D01*
X84209523Y-39002438D02*
X84257142Y-39050057D01*
X85209523Y-39954819D02*
X84638095Y-39954819D01*
X84923809Y-39954819D02*
X84923809Y-38954819D01*
X84923809Y-38954819D02*
X84828571Y-39097676D01*
X84828571Y-39097676D02*
X84733333Y-39192914D01*
X84733333Y-39192914D02*
X84638095Y-39240533D01*
X85828571Y-38954819D02*
X85923809Y-38954819D01*
X85923809Y-38954819D02*
X86019047Y-39002438D01*
X86019047Y-39002438D02*
X86066666Y-39050057D01*
X86066666Y-39050057D02*
X86114285Y-39145295D01*
X86114285Y-39145295D02*
X86161904Y-39335771D01*
X86161904Y-39335771D02*
X86161904Y-39573866D01*
X86161904Y-39573866D02*
X86114285Y-39764342D01*
X86114285Y-39764342D02*
X86066666Y-39859580D01*
X86066666Y-39859580D02*
X86019047Y-39907200D01*
X86019047Y-39907200D02*
X85923809Y-39954819D01*
X85923809Y-39954819D02*
X85828571Y-39954819D01*
X85828571Y-39954819D02*
X85733333Y-39907200D01*
X85733333Y-39907200D02*
X85685714Y-39859580D01*
X85685714Y-39859580D02*
X85638095Y-39764342D01*
X85638095Y-39764342D02*
X85590476Y-39573866D01*
X85590476Y-39573866D02*
X85590476Y-39335771D01*
X85590476Y-39335771D02*
X85638095Y-39145295D01*
X85638095Y-39145295D02*
X85685714Y-39050057D01*
X85685714Y-39050057D02*
X85733333Y-39002438D01*
X85733333Y-39002438D02*
X85828571Y-38954819D01*
X106093452Y-44955009D02*
X105760119Y-44955009D01*
X105760119Y-45478819D02*
X105760119Y-44478819D01*
X105760119Y-44478819D02*
X106236309Y-44478819D01*
X107093452Y-45478819D02*
X106617262Y-45478819D01*
X106617262Y-45478819D02*
X106617262Y-44478819D01*
X107283929Y-44478819D02*
X107855357Y-44478819D01*
X107569643Y-45478819D02*
X107569643Y-44478819D01*
X108712500Y-45478819D02*
X108141072Y-45478819D01*
X108426786Y-45478819D02*
X108426786Y-44478819D01*
X108426786Y-44478819D02*
X108331548Y-44621676D01*
X108331548Y-44621676D02*
X108236310Y-44716914D01*
X108236310Y-44716914D02*
X108141072Y-44764533D01*
D13*
%TO.C,D2*%
X69872500Y-50340000D02*
X66212500Y-50340000D01*
X69872500Y-52240000D02*
X66212500Y-52240000D01*
X69872500Y-52240000D02*
X69872500Y-50340000D01*
%TO.C,R5*%
X72577500Y-57562742D02*
X72577500Y-58037258D01*
X73622500Y-57562742D02*
X73622500Y-58037258D01*
%TO.C,C2*%
X84290000Y-50859420D02*
X84290000Y-51140580D01*
X85310000Y-50859420D02*
X85310000Y-51140580D01*
%TO.C,L3*%
X91300378Y-34590000D02*
X92099622Y-34590000D01*
X91300378Y-35710000D02*
X92099622Y-35710000D01*
%TO.C,C9*%
X96490000Y-45159420D02*
X96490000Y-45440580D01*
X97510000Y-45159420D02*
X97510000Y-45440580D01*
%TO.C,L4*%
X101537221Y-42990000D02*
X101862779Y-42990000D01*
X101537221Y-44010000D02*
X101862779Y-44010000D01*
%TO.C,C3*%
X86190000Y-47640580D02*
X86190000Y-47359420D01*
X87210000Y-47640580D02*
X87210000Y-47359420D01*
%TO.C,Q1*%
X65612500Y-53180000D02*
X64962500Y-53180000D01*
X65612500Y-53180000D02*
X66262500Y-53180000D01*
X65612500Y-56300000D02*
X64962500Y-56300000D01*
X65612500Y-56300000D02*
X66262500Y-56300000D01*
X64450000Y-53230000D02*
X64210000Y-52900000D01*
X64690000Y-52900000D01*
X64450000Y-53230000D01*
G36*
X64450000Y-53230000D02*
G01*
X64210000Y-52900000D01*
X64690000Y-52900000D01*
X64450000Y-53230000D01*
G37*
%TO.C,C15*%
X87740580Y-50540000D02*
X87459420Y-50540000D01*
X87740580Y-51560000D02*
X87459420Y-51560000D01*
%TO.C,X2*%
X96000000Y-39600000D02*
X98400000Y-39600000D01*
X98400000Y-39600000D02*
X98400000Y-36800000D01*
%TO.C,C21*%
X103690000Y-44084420D02*
X103690000Y-44365580D01*
X104710000Y-44084420D02*
X104710000Y-44365580D01*
%TO.C,J5*%
X110415000Y-42000000D02*
X110415000Y-42640000D01*
X110415000Y-42640000D02*
X109785000Y-42640000D01*
X110415000Y-44800000D02*
X110415000Y-44160000D01*
X113135000Y-42050000D02*
X113135000Y-44750000D01*
%TO.C,L1*%
X71900378Y-50940000D02*
X72699622Y-50940000D01*
X71900378Y-52060000D02*
X72699622Y-52060000D01*
%TO.C,U3*%
X88290000Y-41090000D02*
X88765000Y-41090000D01*
X88290000Y-41565000D02*
X88290000Y-41090000D01*
X88290000Y-47835000D02*
X88290000Y-48010000D01*
X88765000Y-48310000D02*
X88530000Y-48310000D01*
X95510000Y-41090000D02*
X95035000Y-41090000D01*
X95510000Y-41565000D02*
X95510000Y-41090000D01*
X95510000Y-47835000D02*
X95510000Y-48310000D01*
X95510000Y-48310000D02*
X95035000Y-48310000D01*
X88290000Y-48310000D02*
X87960000Y-48550000D01*
X87960000Y-48070000D01*
X88290000Y-48310000D01*
G36*
X88290000Y-48310000D02*
G01*
X87960000Y-48550000D01*
X87960000Y-48070000D01*
X88290000Y-48310000D01*
G37*
%TO.C,U4*%
X79440000Y-55000000D02*
X79440000Y-54200000D01*
X79440000Y-55000000D02*
X79440000Y-55800000D01*
X82560000Y-55000000D02*
X82560000Y-54200000D01*
X82560000Y-55000000D02*
X82560000Y-55800000D01*
X79490000Y-56300000D02*
X79160000Y-56540000D01*
X79160000Y-56060000D01*
X79490000Y-56300000D01*
G36*
X79490000Y-56300000D02*
G01*
X79160000Y-56540000D01*
X79160000Y-56060000D01*
X79490000Y-56300000D01*
G37*
%TO.C,C18*%
X93390580Y-38540000D02*
X93109420Y-38540000D01*
X93390580Y-39560000D02*
X93109420Y-39560000D01*
%TO.C,R4*%
X75937258Y-58077500D02*
X75462742Y-58077500D01*
X75937258Y-59122500D02*
X75462742Y-59122500D01*
%TO.C,C19*%
X93340000Y-56809420D02*
X93340000Y-57090580D01*
X94360000Y-56809420D02*
X94360000Y-57090580D01*
%TO.C,L2*%
X90140000Y-38862779D02*
X90140000Y-38537221D01*
X91160000Y-38862779D02*
X91160000Y-38537221D01*
%TO.C,SW1*%
X90690000Y-59500000D02*
X96810000Y-59500000D01*
X90690000Y-63200000D02*
X90690000Y-59500000D01*
X96810000Y-59500000D02*
X96810000Y-63200000D01*
X96810000Y-63200000D02*
X90690000Y-63200000D01*
%TO.C,C12*%
X96490000Y-41840580D02*
X96490000Y-41559420D01*
X97510000Y-41840580D02*
X97510000Y-41559420D01*
%TO.C,C11*%
X88140580Y-37090000D02*
X87859420Y-37090000D01*
X88140580Y-38110000D02*
X87859420Y-38110000D01*
%TO.C,J3*%
X106920000Y-46990000D02*
X108300000Y-46990000D01*
X106920000Y-48370000D02*
X106920000Y-46990000D01*
X106920000Y-49640000D02*
X106920000Y-62450000D01*
X106920000Y-49640000D02*
X109680000Y-49640000D01*
X106920000Y-62450000D02*
X109680000Y-62450000D01*
X109680000Y-49640000D02*
X109680000Y-62450000D01*
%TO.C,C1*%
X68140000Y-54528748D02*
X68140000Y-55951252D01*
X69960000Y-54528748D02*
X69960000Y-55951252D01*
%TO.C,C6*%
X84290000Y-47640580D02*
X84290000Y-47359420D01*
X85310000Y-47640580D02*
X85310000Y-47359420D01*
%TO.C,U1*%
X71140000Y-54910000D02*
X71140000Y-53610000D01*
X73460000Y-54910000D02*
X73460000Y-53860000D01*
X73740000Y-53500000D02*
X73460000Y-53500000D01*
X73460000Y-53220000D01*
X73740000Y-53500000D01*
G36*
X73740000Y-53500000D02*
G01*
X73460000Y-53500000D01*
X73460000Y-53220000D01*
X73740000Y-53500000D01*
G37*
%TO.C,R10*%
X96177500Y-56712742D02*
X96177500Y-57187258D01*
X97222500Y-56712742D02*
X97222500Y-57187258D01*
%TO.C,R2*%
X61362742Y-51377500D02*
X61837258Y-51377500D01*
X61362742Y-52422500D02*
X61837258Y-52422500D01*
%TO.C,D3*%
X101640000Y-48200000D02*
X101640000Y-50885000D01*
X101640000Y-50885000D02*
X103560000Y-50885000D01*
X103560000Y-50885000D02*
X103560000Y-48200000D01*
%TO.C,R1*%
X65262742Y-58477500D02*
X65737258Y-58477500D01*
X65262742Y-59522500D02*
X65737258Y-59522500D01*
%TO.C,R8*%
X92977500Y-52037258D02*
X92977500Y-51562742D01*
X94022500Y-52037258D02*
X94022500Y-51562742D01*
%TO.C,R3*%
X61262742Y-38627500D02*
X61737258Y-38627500D01*
X61262742Y-39672500D02*
X61737258Y-39672500D01*
%TO.C,C5*%
X97859420Y-48990000D02*
X98140580Y-48990000D01*
X97859420Y-50010000D02*
X98140580Y-50010000D01*
%TO.C,R7*%
X94977500Y-52037258D02*
X94977500Y-51562742D01*
X96022500Y-52037258D02*
X96022500Y-51562742D01*
%TO.C,C17*%
X86140580Y-55340000D02*
X85859420Y-55340000D01*
X86140580Y-56360000D02*
X85859420Y-56360000D01*
%TO.C,X1*%
X88225000Y-52525000D02*
X89575000Y-52525000D01*
X88225000Y-54275000D02*
X89575000Y-54275000D01*
%TO.C,C13*%
X80659420Y-58090000D02*
X80940580Y-58090000D01*
X80659420Y-59110000D02*
X80940580Y-59110000D01*
%TO.C,C8*%
X88140580Y-35290000D02*
X87859420Y-35290000D01*
X88140580Y-36310000D02*
X87859420Y-36310000D01*
%TO.C,J4*%
X77365000Y-43465000D02*
X78000000Y-43465000D01*
X77365000Y-44100000D02*
X77365000Y-43465000D01*
%TO.C,C14*%
X90759420Y-50540000D02*
X91040580Y-50540000D01*
X90759420Y-51560000D02*
X91040580Y-51560000D01*
%TO.C,J1*%
X58245000Y-36580000D02*
X58245000Y-35200000D01*
X59625000Y-36580000D02*
X58245000Y-36580000D01*
X60895000Y-33820000D02*
X63545000Y-33820000D01*
X60895000Y-36580000D02*
X60895000Y-33820000D01*
X60895000Y-36580000D02*
X63545000Y-36580000D01*
X63545000Y-36580000D02*
X63545000Y-33820000D01*
%TO.C,C16*%
X80634420Y-50990000D02*
X80915580Y-50990000D01*
X80634420Y-52010000D02*
X80915580Y-52010000D01*
%TO.C,J2*%
X59100000Y-40830000D02*
X60800000Y-40830000D01*
X59100000Y-50170000D02*
X60800000Y-50170000D01*
%TO.C,C20*%
X98690000Y-44084420D02*
X98690000Y-44365580D01*
X99710000Y-44084420D02*
X99710000Y-44365580D01*
%TO.C,R9*%
X90727500Y-56787742D02*
X90727500Y-57262258D01*
X91772500Y-56787742D02*
X91772500Y-57262258D01*
%TO.C,R6*%
X104477500Y-49162742D02*
X104477500Y-49637258D01*
X105522500Y-49162742D02*
X105522500Y-49637258D01*
%TO.C,U2*%
X69700000Y-43900000D02*
X68900000Y-43900000D01*
X69700000Y-43900000D02*
X70500000Y-43900000D01*
X69700000Y-47020000D02*
X68900000Y-47020000D01*
X69700000Y-47020000D02*
X70500000Y-47020000D01*
X68400000Y-43950000D02*
X68160000Y-43620000D01*
X68640000Y-43620000D01*
X68400000Y-43950000D01*
G36*
X68400000Y-43950000D02*
G01*
X68160000Y-43620000D01*
X68640000Y-43620000D01*
X68400000Y-43950000D01*
G37*
%TO.C,C7*%
X75190000Y-54488748D02*
X75190000Y-55911252D01*
X77010000Y-54488748D02*
X77010000Y-55911252D01*
%TO.C,C4*%
X85740580Y-42990000D02*
X85459420Y-42990000D01*
X85740580Y-44010000D02*
X85459420Y-44010000D01*
%TO.C,D1*%
X61162500Y-57500000D02*
X61162500Y-53840000D01*
X61162500Y-57500000D02*
X63062500Y-57500000D01*
X63062500Y-57500000D02*
X63062500Y-53840000D01*
%TO.C,C10*%
X88140580Y-38890000D02*
X87859420Y-38890000D01*
X88140580Y-39910000D02*
X87859420Y-39910000D01*
%TO.C,FLT1*%
D11*
X106012500Y-42824000D02*
X108212500Y-42824000D01*
X108212500Y-44024000D01*
X106012500Y-44024000D01*
X106012500Y-42824000D01*
D14*
X105512501Y-43424000D02*
X105512501Y-43424000D01*
X105512501Y-43424000D01*
X105512501Y-43424000D01*
X105512501Y-43424000D01*
X105512501Y-43424000D01*
X105512501Y-43424001D01*
X105512501Y-43424001D01*
X105512501Y-43424001D01*
X105512501Y-43424001D01*
X105512501Y-43424001D01*
X105512501Y-43424001D01*
X105512501Y-43424001D01*
X105512500Y-43424001D01*
X105512500Y-43424001D01*
X105512500Y-43424001D01*
X105512500Y-43424001D01*
X105512500Y-43424001D01*
X105512500Y-43424001D01*
X105512500Y-43424001D01*
X105512500Y-43424001D01*
X105512500Y-43424001D01*
X105512500Y-43424001D01*
X105512500Y-43424001D01*
X105512500Y-43424001D01*
X105512499Y-43424001D01*
X105512499Y-43424001D01*
X105512499Y-43424001D01*
X105512499Y-43424001D01*
X105512499Y-43424001D01*
X105512499Y-43424001D01*
X105512499Y-43424000D01*
X105512499Y-43424000D01*
X105512499Y-43424000D01*
X105512499Y-43424000D01*
X105512499Y-43424000D01*
X105512499Y-43424000D01*
X105512499Y-43424000D02*
X105512499Y-43424000D01*
X105512499Y-43424000D01*
X105512499Y-43424000D01*
X105512499Y-43424000D01*
X105512499Y-43424000D01*
X105512499Y-43424000D01*
X105512499Y-43423999D01*
X105512499Y-43423999D01*
X105512499Y-43423999D01*
X105512499Y-43423999D01*
X105512499Y-43423999D01*
X105512500Y-43423999D01*
X105512500Y-43423999D01*
X105512500Y-43423999D01*
X105512500Y-43423999D01*
X105512500Y-43423999D01*
X105512500Y-43423999D01*
X105512500Y-43423999D01*
X105512500Y-43423999D01*
X105512500Y-43423999D01*
X105512500Y-43423999D01*
X105512500Y-43423999D01*
X105512500Y-43423999D01*
X105512501Y-43423999D01*
X105512501Y-43423999D01*
X105512501Y-43423999D01*
X105512501Y-43423999D01*
X105512501Y-43423999D01*
X105512501Y-43423999D01*
X105512501Y-43424000D01*
X105512501Y-43424000D01*
X105512501Y-43424000D01*
X105512501Y-43424000D01*
X105512501Y-43424000D01*
X105512501Y-43424000D01*
X105512501Y-43424000D01*
%TD*%
M02*
